StartChar: custom_3_1_0_0_0
Encoding: 9556 -1 9311
Width: 70
Flags: H
LayerCount: 2
Fore
SplineSet
9 25 m 1
 7 25 l 1
 7 27 l 1
 9 27 l 1
 9 25 l 1
9 29 m 1
 7 29 l 1
 7 31 l 1
 9 31 l 1
 9 29 l 1
9 33 m 1
 7 33 l 1
 7 35 l 1
 9 35 l 1
 9 33 l 1
9 37 m 1
 7 37 l 1
 7 39 l 1
 9 39 l 1
 9 37 l 1
9 41 m 1
 7 41 l 1
 7 43 l 1
 9 43 l 1
 9 41 l 1
12 25 m 1
 10 25 l 1
 10 27 l 1
 11 27 l 1
 11 26 l 1
 12 26 l 1
 12 25 l 1
14 25 m 1
 13 25 l 1
 13 26 l 1
 12 26 l 1
 12 27 l 1
 14 27 l 1
 14 25 l 1
17 25 m 1
 15 25 l 1
 15 27 l 1
 17 27 l 1
 17 25 l 1
17 29 m 1
 15 29 l 1
 15 31 l 1
 17 31 l 1
 17 29 l 1
23 25 m 1
 21 25 l 1
 21 27 l 1
 23 27 l 1
 23 25 l 1
26 25 m 1
 24 25 l 1
 24 27 l 1
 25 27 l 1
 25 26 l 1
 26 26 l 1
 26 25 l 1
23 29 m 1
 21 29 l 1
 21 31 l 1
 23 31 l 1
 23 29 l 1
17 33 m 1
 15 33 l 1
 15 35 l 1
 17 35 l 1
 17 33 l 1
17 37 m 1
 15 37 l 1
 15 39 l 1
 17 39 l 1
 17 37 l 1
23 33 m 1
 21 33 l 1
 21 35 l 1
 23 35 l 1
 23 33 l 1
23 37 m 1
 21 37 l 1
 21 39 l 1
 23 39 l 1
 23 37 l 1
28 25 m 1
 27 25 l 1
 27 26 l 1
 26 26 l 1
 26 27 l 1
 28 27 l 1
 28 25 l 1
31 25 m 1
 29 25 l 1
 29 27 l 1
 31 27 l 1
 31 25 l 1
31 29 m 1
 29 29 l 1
 29 31 l 1
 31 31 l 1
 31 29 l 1
41 25 m 1
 39 25 l 1
 39 27 l 1
 41 27 l 1
 41 25 l 1
36 31 m 1
 34 31 l 1
 34 33 l 1
 36 33 l 1
 36 31 l 1
31 33 m 1
 29 33 l 1
 29 35 l 1
 31 35 l 1
 31 33 l 1
31 37 m 1
 29 37 l 1
 29 39 l 1
 31 39 l 1
 31 37 l 1
36 35 m 1
 34 35 l 1
 34 37 l 1
 36 37 l 1
 36 35 l 1
41 33 m 1
 39 33 l 1
 39 35 l 1
 41 35 l 1
 41 33 l 1
44 25 m 1
 42 25 l 1
 42 27 l 1
 43 27 l 1
 43 26 l 1
 44 26 l 1
 44 25 l 1
46 25 m 1
 45 25 l 1
 45 26 l 1
 44 26 l 1
 44 27 l 1
 46 27 l 1
 46 25 l 1
49 25 m 1
 47 25 l 1
 47 27 l 1
 49 27 l 1
 49 25 l 1
49 29 m 1
 47 29 l 1
 47 31 l 1
 49 31 l 1
 49 29 l 1
43 33 m 1
 42 33 l 1
 42 35 l 1
 44 35 l 1
 44 34 l 1
 43 34 l 1
 43 33 l 1
46 33 m 1
 44 33 l 1
 44 34 l 1
 45 34 l 1
 45 35 l 1
 46 35 l 1
 46 33 l 1
49 33 m 1
 47 33 l 1
 47 35 l 1
 49 35 l 1
 49 33 l 1
49 37 m 1
 47 37 l 1
 47 39 l 1
 49 39 l 1
 49 37 l 1
63 25 m 1
 61 25 l 1
 61 27 l 1
 63 27 l 1
 63 25 l 1
63 29 m 1
 61 29 l 1
 61 31 l 1
 63 31 l 1
 63 29 l 1
63 33 m 1
 61 33 l 1
 61 35 l 1
 63 35 l 1
 63 33 l 1
63 37 m 1
 61 37 l 1
 61 39 l 1
 63 39 l 1
 63 37 l 1
12 41 m 1
 10 41 l 1
 10 43 l 1
 11 43 l 1
 11 42 l 1
 12 42 l 1
 12 41 l 1
14 41 m 1
 13 41 l 1
 13 42 l 1
 12 42 l 1
 12 43 l 1
 14 43 l 1
 14 41 l 1
17 41 m 1
 15 41 l 1
 15 43 l 1
 17 43 l 1
 17 41 l 1
23 41 m 1
 21 41 l 1
 21 43 l 1
 23 43 l 1
 23 41 l 1
26 41 m 1
 24 41 l 1
 24 43 l 1
 25 43 l 1
 25 42 l 1
 26 42 l 1
 26 41 l 1
28 41 m 1
 27 41 l 1
 27 42 l 1
 26 42 l 1
 26 43 l 1
 28 43 l 1
 28 41 l 1
31 41 m 1
 29 41 l 1
 29 43 l 1
 31 43 l 1
 31 41 l 1
41 41 m 1
 39 41 l 1
 39 43 l 1
 41 43 l 1
 41 41 l 1
44 41 m 1
 42 41 l 1
 42 43 l 1
 43 43 l 1
 43 42 l 1
 44 42 l 1
 44 41 l 1
46 41 m 1
 45 41 l 1
 45 42 l 1
 44 42 l 1
 44 43 l 1
 46 43 l 1
 46 41 l 1
49 41 m 1
 47 41 l 1
 47 43 l 1
 49 43 l 1
 49 41 l 1
63 41 m 1
 61 41 l 1
 61 43 l 1
 63 43 l 1
 63 41 l 1
EndSplineSet
Ligature2: "'liga' Standard Ligatures in Latin lookup 0-1" three one zero zero zero
LCarets2: 1 0
EndChar

StartChar: custom_3_1_0_0_1
Encoding: 9557 -1 9312
Width: 70
Flags: H
LayerCount: 2
Fore
SplineSet
9 25 m 1
 7 25 l 1
 7 27 l 1
 9 27 l 1
 9 25 l 1
9 29 m 1
 7 29 l 1
 7 31 l 1
 9 31 l 1
 9 29 l 1
9 33 m 1
 7 33 l 1
 7 35 l 1
 9 35 l 1
 9 33 l 1
9 37 m 1
 7 37 l 1
 7 39 l 1
 9 39 l 1
 9 37 l 1
9 41 m 1
 7 41 l 1
 7 43 l 1
 9 43 l 1
 9 41 l 1
12 25 m 1
 10 25 l 1
 10 27 l 1
 11 27 l 1
 11 26 l 1
 12 26 l 1
 12 25 l 1
14 25 m 1
 13 25 l 1
 13 26 l 1
 12 26 l 1
 12 27 l 1
 14 27 l 1
 14 25 l 1
17 25 m 1
 15 25 l 1
 15 27 l 1
 17 27 l 1
 17 25 l 1
17 29 m 1
 15 29 l 1
 15 31 l 1
 17 31 l 1
 17 29 l 1
23 25 m 1
 21 25 l 1
 21 27 l 1
 23 27 l 1
 23 25 l 1
26 25 m 1
 24 25 l 1
 24 27 l 1
 25 27 l 1
 25 26 l 1
 26 26 l 1
 26 25 l 1
23 29 m 1
 21 29 l 1
 21 31 l 1
 23 31 l 1
 23 29 l 1
17 33 m 1
 15 33 l 1
 15 35 l 1
 17 35 l 1
 17 33 l 1
17 37 m 1
 15 37 l 1
 15 39 l 1
 17 39 l 1
 17 37 l 1
23 33 m 1
 21 33 l 1
 21 35 l 1
 23 35 l 1
 23 33 l 1
23 37 m 1
 21 37 l 1
 21 39 l 1
 23 39 l 1
 23 37 l 1
28 25 m 1
 27 25 l 1
 27 26 l 1
 26 26 l 1
 26 27 l 1
 28 27 l 1
 28 25 l 1
31 25 m 1
 29 25 l 1
 29 27 l 1
 31 27 l 1
 31 25 l 1
31 29 m 1
 29 29 l 1
 29 31 l 1
 31 31 l 1
 31 29 l 1
41 25 m 1
 39 25 l 1
 39 27 l 1
 41 27 l 1
 41 25 l 1
36 31 m 1
 34 31 l 1
 34 33 l 1
 36 33 l 1
 36 31 l 1
31 33 m 1
 29 33 l 1
 29 35 l 1
 31 35 l 1
 31 33 l 1
31 37 m 1
 29 37 l 1
 29 39 l 1
 31 39 l 1
 31 37 l 1
36 35 m 1
 34 35 l 1
 34 37 l 1
 36 37 l 1
 36 35 l 1
41 33 m 1
 39 33 l 1
 39 35 l 1
 41 35 l 1
 41 33 l 1
44 25 m 1
 42 25 l 1
 42 27 l 1
 43 27 l 1
 43 26 l 1
 44 26 l 1
 44 25 l 1
46 25 m 1
 45 25 l 1
 45 26 l 1
 44 26 l 1
 44 27 l 1
 46 27 l 1
 46 25 l 1
49 25 m 1
 47 25 l 1
 47 27 l 1
 49 27 l 1
 49 25 l 1
49 29 m 1
 47 29 l 1
 47 31 l 1
 49 31 l 1
 49 29 l 1
43 33 m 1
 42 33 l 1
 42 35 l 1
 44 35 l 1
 44 34 l 1
 43 34 l 1
 43 33 l 1
46 33 m 1
 44 33 l 1
 44 34 l 1
 45 34 l 1
 45 35 l 1
 46 35 l 1
 46 33 l 1
49 33 m 1
 47 33 l 1
 47 35 l 1
 49 35 l 1
 49 33 l 1
49 37 m 1
 47 37 l 1
 47 39 l 1
 49 39 l 1
 49 37 l 1
63 25 m 1
 61 25 l 1
 61 27 l 1
 63 27 l 1
 63 25 l 1
63 29 m 1
 61 29 l 1
 61 31 l 1
 63 31 l 1
 63 29 l 1
63 33 m 1
 61 33 l 1
 61 35 l 1
 63 35 l 1
 63 33 l 1
63 37 m 1
 61 37 l 1
 61 39 l 1
 63 39 l 1
 63 37 l 1
12 41 m 1
 10 41 l 1
 10 43 l 1
 11 43 l 1
 11 42 l 1
 12 42 l 1
 12 41 l 1
14 41 m 1
 13 41 l 1
 13 42 l 1
 12 42 l 1
 12 43 l 1
 14 43 l 1
 14 41 l 1
17 41 m 1
 15 41 l 1
 15 43 l 1
 17 43 l 1
 17 41 l 1
23 41 m 1
 21 41 l 1
 21 43 l 1
 23 43 l 1
 23 41 l 1
26 41 m 1
 24 41 l 1
 24 43 l 1
 25 43 l 1
 25 42 l 1
 26 42 l 1
 26 41 l 1
28 41 m 1
 27 41 l 1
 27 42 l 1
 26 42 l 1
 26 43 l 1
 28 43 l 1
 28 41 l 1
31 41 m 1
 29 41 l 1
 29 43 l 1
 31 43 l 1
 31 41 l 1
41 41 m 1
 39 41 l 1
 39 43 l 1
 41 43 l 1
 41 41 l 1
44 41 m 1
 42 41 l 1
 42 43 l 1
 43 43 l 1
 43 42 l 1
 44 42 l 1
 44 41 l 1
46 41 m 1
 45 41 l 1
 45 42 l 1
 44 42 l 1
 44 43 l 1
 46 43 l 1
 46 41 l 1
49 41 m 1
 47 41 l 1
 47 43 l 1
 49 43 l 1
 49 41 l 1
63 41 m 1
 61 41 l 1
 61 43 l 1
 63 43 l 1
 63 41 l 1
EndSplineSet
Ligature2: "'liga' Standard Ligatures in Latin lookup 0-1" three one zero zero one
LCarets2: 1 0
EndChar

StartChar: custom_3_1_0_0_2
Encoding: 9558 -1 9313
Width: 70
Flags: H
LayerCount: 2
Fore
SplineSet
9 25 m 1
 7 25 l 1
 7 27 l 1
 9 27 l 1
 9 25 l 1
9 29 m 1
 7 29 l 1
 7 31 l 1
 9 31 l 1
 9 29 l 1
9 33 m 1
 7 33 l 1
 7 35 l 1
 9 35 l 1
 9 33 l 1
9 37 m 1
 7 37 l 1
 7 39 l 1
 9 39 l 1
 9 37 l 1
9 41 m 1
 7 41 l 1
 7 43 l 1
 9 43 l 1
 9 41 l 1
12 25 m 1
 10 25 l 1
 10 27 l 1
 11 27 l 1
 11 26 l 1
 12 26 l 1
 12 25 l 1
14 25 m 1
 13 25 l 1
 13 26 l 1
 12 26 l 1
 12 27 l 1
 14 27 l 1
 14 25 l 1
17 25 m 1
 15 25 l 1
 15 27 l 1
 17 27 l 1
 17 25 l 1
17 29 m 1
 15 29 l 1
 15 31 l 1
 17 31 l 1
 17 29 l 1
23 25 m 1
 21 25 l 1
 21 27 l 1
 23 27 l 1
 23 25 l 1
26 25 m 1
 24 25 l 1
 24 27 l 1
 25 27 l 1
 25 26 l 1
 26 26 l 1
 26 25 l 1
23 29 m 1
 21 29 l 1
 21 31 l 1
 23 31 l 1
 23 29 l 1
17 33 m 1
 15 33 l 1
 15 35 l 1
 17 35 l 1
 17 33 l 1
17 37 m 1
 15 37 l 1
 15 39 l 1
 17 39 l 1
 17 37 l 1
23 33 m 1
 21 33 l 1
 21 35 l 1
 23 35 l 1
 23 33 l 1
23 37 m 1
 21 37 l 1
 21 39 l 1
 23 39 l 1
 23 37 l 1
28 25 m 1
 27 25 l 1
 27 26 l 1
 26 26 l 1
 26 27 l 1
 28 27 l 1
 28 25 l 1
31 25 m 1
 29 25 l 1
 29 27 l 1
 31 27 l 1
 31 25 l 1
31 29 m 1
 29 29 l 1
 29 31 l 1
 31 31 l 1
 31 29 l 1
41 25 m 1
 39 25 l 1
 39 27 l 1
 41 27 l 1
 41 25 l 1
36 31 m 1
 34 31 l 1
 34 33 l 1
 36 33 l 1
 36 31 l 1
31 33 m 1
 29 33 l 1
 29 35 l 1
 31 35 l 1
 31 33 l 1
31 37 m 1
 29 37 l 1
 29 39 l 1
 31 39 l 1
 31 37 l 1
36 35 m 1
 34 35 l 1
 34 37 l 1
 36 37 l 1
 36 35 l 1
41 33 m 1
 39 33 l 1
 39 35 l 1
 41 35 l 1
 41 33 l 1
44 25 m 1
 42 25 l 1
 42 27 l 1
 43 27 l 1
 43 26 l 1
 44 26 l 1
 44 25 l 1
46 25 m 1
 45 25 l 1
 45 26 l 1
 44 26 l 1
 44 27 l 1
 46 27 l 1
 46 25 l 1
49 25 m 1
 47 25 l 1
 47 27 l 1
 49 27 l 1
 49 25 l 1
49 29 m 1
 47 29 l 1
 47 31 l 1
 49 31 l 1
 49 29 l 1
43 33 m 1
 42 33 l 1
 42 35 l 1
 44 35 l 1
 44 34 l 1
 43 34 l 1
 43 33 l 1
46 33 m 1
 44 33 l 1
 44 34 l 1
 45 34 l 1
 45 35 l 1
 46 35 l 1
 46 33 l 1
49 33 m 1
 47 33 l 1
 47 35 l 1
 49 35 l 1
 49 33 l 1
49 37 m 1
 47 37 l 1
 47 39 l 1
 49 39 l 1
 49 37 l 1
63 25 m 1
 61 25 l 1
 61 27 l 1
 63 27 l 1
 63 25 l 1
63 29 m 1
 61 29 l 1
 61 31 l 1
 63 31 l 1
 63 29 l 1
63 33 m 1
 61 33 l 1
 61 35 l 1
 63 35 l 1
 63 33 l 1
63 37 m 1
 61 37 l 1
 61 39 l 1
 63 39 l 1
 63 37 l 1
12 41 m 1
 10 41 l 1
 10 43 l 1
 11 43 l 1
 11 42 l 1
 12 42 l 1
 12 41 l 1
14 41 m 1
 13 41 l 1
 13 42 l 1
 12 42 l 1
 12 43 l 1
 14 43 l 1
 14 41 l 1
17 41 m 1
 15 41 l 1
 15 43 l 1
 17 43 l 1
 17 41 l 1
23 41 m 1
 21 41 l 1
 21 43 l 1
 23 43 l 1
 23 41 l 1
26 41 m 1
 24 41 l 1
 24 43 l 1
 25 43 l 1
 25 42 l 1
 26 42 l 1
 26 41 l 1
28 41 m 1
 27 41 l 1
 27 42 l 1
 26 42 l 1
 26 43 l 1
 28 43 l 1
 28 41 l 1
31 41 m 1
 29 41 l 1
 29 43 l 1
 31 43 l 1
 31 41 l 1
41 41 m 1
 39 41 l 1
 39 43 l 1
 41 43 l 1
 41 41 l 1
44 41 m 1
 42 41 l 1
 42 43 l 1
 43 43 l 1
 43 42 l 1
 44 42 l 1
 44 41 l 1
46 41 m 1
 45 41 l 1
 45 42 l 1
 44 42 l 1
 44 43 l 1
 46 43 l 1
 46 41 l 1
49 41 m 1
 47 41 l 1
 47 43 l 1
 49 43 l 1
 49 41 l 1
63 41 m 1
 61 41 l 1
 61 43 l 1
 63 43 l 1
 63 41 l 1
EndSplineSet
Ligature2: "'liga' Standard Ligatures in Latin lookup 0-1" three one zero zero two
LCarets2: 1 0
EndChar

StartChar: custom_3_1_0_0_3
Encoding: 9559 -1 9314
Width: 70
Flags: H
LayerCount: 2
Fore
SplineSet
9 25 m 1
 7 25 l 1
 7 27 l 1
 9 27 l 1
 9 25 l 1
9 29 m 1
 7 29 l 1
 7 31 l 1
 9 31 l 1
 9 29 l 1
9 33 m 1
 7 33 l 1
 7 35 l 1
 9 35 l 1
 9 33 l 1
9 37 m 1
 7 37 l 1
 7 39 l 1
 9 39 l 1
 9 37 l 1
9 41 m 1
 7 41 l 1
 7 43 l 1
 9 43 l 1
 9 41 l 1
12 25 m 1
 10 25 l 1
 10 27 l 1
 11 27 l 1
 11 26 l 1
 12 26 l 1
 12 25 l 1
14 25 m 1
 13 25 l 1
 13 26 l 1
 12 26 l 1
 12 27 l 1
 14 27 l 1
 14 25 l 1
17 25 m 1
 15 25 l 1
 15 27 l 1
 17 27 l 1
 17 25 l 1
17 29 m 1
 15 29 l 1
 15 31 l 1
 17 31 l 1
 17 29 l 1
23 25 m 1
 21 25 l 1
 21 27 l 1
 23 27 l 1
 23 25 l 1
26 25 m 1
 24 25 l 1
 24 27 l 1
 25 27 l 1
 25 26 l 1
 26 26 l 1
 26 25 l 1
23 29 m 1
 21 29 l 1
 21 31 l 1
 23 31 l 1
 23 29 l 1
17 33 m 1
 15 33 l 1
 15 35 l 1
 17 35 l 1
 17 33 l 1
17 37 m 1
 15 37 l 1
 15 39 l 1
 17 39 l 1
 17 37 l 1
23 33 m 1
 21 33 l 1
 21 35 l 1
 23 35 l 1
 23 33 l 1
23 37 m 1
 21 37 l 1
 21 39 l 1
 23 39 l 1
 23 37 l 1
28 25 m 1
 27 25 l 1
 27 26 l 1
 26 26 l 1
 26 27 l 1
 28 27 l 1
 28 25 l 1
31 25 m 1
 29 25 l 1
 29 27 l 1
 31 27 l 1
 31 25 l 1
31 29 m 1
 29 29 l 1
 29 31 l 1
 31 31 l 1
 31 29 l 1
41 25 m 1
 39 25 l 1
 39 27 l 1
 41 27 l 1
 41 25 l 1
36 31 m 1
 34 31 l 1
 34 33 l 1
 36 33 l 1
 36 31 l 1
31 33 m 1
 29 33 l 1
 29 35 l 1
 31 35 l 1
 31 33 l 1
31 37 m 1
 29 37 l 1
 29 39 l 1
 31 39 l 1
 31 37 l 1
36 35 m 1
 34 35 l 1
 34 37 l 1
 36 37 l 1
 36 35 l 1
41 33 m 1
 39 33 l 1
 39 35 l 1
 41 35 l 1
 41 33 l 1
44 25 m 1
 42 25 l 1
 42 27 l 1
 43 27 l 1
 43 26 l 1
 44 26 l 1
 44 25 l 1
46 25 m 1
 45 25 l 1
 45 26 l 1
 44 26 l 1
 44 27 l 1
 46 27 l 1
 46 25 l 1
49 25 m 1
 47 25 l 1
 47 27 l 1
 49 27 l 1
 49 25 l 1
49 29 m 1
 47 29 l 1
 47 31 l 1
 49 31 l 1
 49 29 l 1
43 33 m 1
 42 33 l 1
 42 35 l 1
 44 35 l 1
 44 34 l 1
 43 34 l 1
 43 33 l 1
46 33 m 1
 44 33 l 1
 44 34 l 1
 45 34 l 1
 45 35 l 1
 46 35 l 1
 46 33 l 1
49 33 m 1
 47 33 l 1
 47 35 l 1
 49 35 l 1
 49 33 l 1
49 37 m 1
 47 37 l 1
 47 39 l 1
 49 39 l 1
 49 37 l 1
63 25 m 1
 61 25 l 1
 61 27 l 1
 63 27 l 1
 63 25 l 1
63 29 m 1
 61 29 l 1
 61 31 l 1
 63 31 l 1
 63 29 l 1
63 33 m 1
 61 33 l 1
 61 35 l 1
 63 35 l 1
 63 33 l 1
63 37 m 1
 61 37 l 1
 61 39 l 1
 63 39 l 1
 63 37 l 1
12 41 m 1
 10 41 l 1
 10 43 l 1
 11 43 l 1
 11 42 l 1
 12 42 l 1
 12 41 l 1
14 41 m 1
 13 41 l 1
 13 42 l 1
 12 42 l 1
 12 43 l 1
 14 43 l 1
 14 41 l 1
17 41 m 1
 15 41 l 1
 15 43 l 1
 17 43 l 1
 17 41 l 1
23 41 m 1
 21 41 l 1
 21 43 l 1
 23 43 l 1
 23 41 l 1
26 41 m 1
 24 41 l 1
 24 43 l 1
 25 43 l 1
 25 42 l 1
 26 42 l 1
 26 41 l 1
28 41 m 1
 27 41 l 1
 27 42 l 1
 26 42 l 1
 26 43 l 1
 28 43 l 1
 28 41 l 1
31 41 m 1
 29 41 l 1
 29 43 l 1
 31 43 l 1
 31 41 l 1
41 41 m 1
 39 41 l 1
 39 43 l 1
 41 43 l 1
 41 41 l 1
44 41 m 1
 42 41 l 1
 42 43 l 1
 43 43 l 1
 43 42 l 1
 44 42 l 1
 44 41 l 1
46 41 m 1
 45 41 l 1
 45 42 l 1
 44 42 l 1
 44 43 l 1
 46 43 l 1
 46 41 l 1
49 41 m 1
 47 41 l 1
 47 43 l 1
 49 43 l 1
 49 41 l 1
63 41 m 1
 61 41 l 1
 61 43 l 1
 63 43 l 1
 63 41 l 1
EndSplineSet
Ligature2: "'liga' Standard Ligatures in Latin lookup 0-1" three one zero zero three
LCarets2: 1 0
EndChar

StartChar: custom_3_1_0_0_4
Encoding: 9560 -1 9315
Width: 70
Flags: H
LayerCount: 2
Fore
SplineSet
9 25 m 1
 7 25 l 1
 7 27 l 1
 9 27 l 1
 9 25 l 1
9 29 m 1
 7 29 l 1
 7 31 l 1
 9 31 l 1
 9 29 l 1
9 33 m 1
 7 33 l 1
 7 35 l 1
 9 35 l 1
 9 33 l 1
9 37 m 1
 7 37 l 1
 7 39 l 1
 9 39 l 1
 9 37 l 1
9 41 m 1
 7 41 l 1
 7 43 l 1
 9 43 l 1
 9 41 l 1
12 25 m 1
 10 25 l 1
 10 27 l 1
 11 27 l 1
 11 26 l 1
 12 26 l 1
 12 25 l 1
14 25 m 1
 13 25 l 1
 13 26 l 1
 12 26 l 1
 12 27 l 1
 14 27 l 1
 14 25 l 1
17 25 m 1
 15 25 l 1
 15 27 l 1
 17 27 l 1
 17 25 l 1
17 29 m 1
 15 29 l 1
 15 31 l 1
 17 31 l 1
 17 29 l 1
23 25 m 1
 21 25 l 1
 21 27 l 1
 23 27 l 1
 23 25 l 1
26 25 m 1
 24 25 l 1
 24 27 l 1
 25 27 l 1
 25 26 l 1
 26 26 l 1
 26 25 l 1
23 29 m 1
 21 29 l 1
 21 31 l 1
 23 31 l 1
 23 29 l 1
17 33 m 1
 15 33 l 1
 15 35 l 1
 17 35 l 1
 17 33 l 1
17 37 m 1
 15 37 l 1
 15 39 l 1
 17 39 l 1
 17 37 l 1
23 33 m 1
 21 33 l 1
 21 35 l 1
 23 35 l 1
 23 33 l 1
23 37 m 1
 21 37 l 1
 21 39 l 1
 23 39 l 1
 23 37 l 1
28 25 m 1
 27 25 l 1
 27 26 l 1
 26 26 l 1
 26 27 l 1
 28 27 l 1
 28 25 l 1
31 25 m 1
 29 25 l 1
 29 27 l 1
 31 27 l 1
 31 25 l 1
31 29 m 1
 29 29 l 1
 29 31 l 1
 31 31 l 1
 31 29 l 1
41 25 m 1
 39 25 l 1
 39 27 l 1
 41 27 l 1
 41 25 l 1
36 31 m 1
 34 31 l 1
 34 33 l 1
 36 33 l 1
 36 31 l 1
31 33 m 1
 29 33 l 1
 29 35 l 1
 31 35 l 1
 31 33 l 1
31 37 m 1
 29 37 l 1
 29 39 l 1
 31 39 l 1
 31 37 l 1
36 35 m 1
 34 35 l 1
 34 37 l 1
 36 37 l 1
 36 35 l 1
41 33 m 1
 39 33 l 1
 39 35 l 1
 41 35 l 1
 41 33 l 1
44 25 m 1
 42 25 l 1
 42 27 l 1
 43 27 l 1
 43 26 l 1
 44 26 l 1
 44 25 l 1
46 25 m 1
 45 25 l 1
 45 26 l 1
 44 26 l 1
 44 27 l 1
 46 27 l 1
 46 25 l 1
49 25 m 1
 47 25 l 1
 47 27 l 1
 49 27 l 1
 49 25 l 1
49 29 m 1
 47 29 l 1
 47 31 l 1
 49 31 l 1
 49 29 l 1
43 33 m 1
 42 33 l 1
 42 35 l 1
 44 35 l 1
 44 34 l 1
 43 34 l 1
 43 33 l 1
46 33 m 1
 44 33 l 1
 44 34 l 1
 45 34 l 1
 45 35 l 1
 46 35 l 1
 46 33 l 1
49 33 m 1
 47 33 l 1
 47 35 l 1
 49 35 l 1
 49 33 l 1
49 37 m 1
 47 37 l 1
 47 39 l 1
 49 39 l 1
 49 37 l 1
63 25 m 1
 61 25 l 1
 61 27 l 1
 63 27 l 1
 63 25 l 1
63 29 m 1
 61 29 l 1
 61 31 l 1
 63 31 l 1
 63 29 l 1
63 33 m 1
 61 33 l 1
 61 35 l 1
 63 35 l 1
 63 33 l 1
63 37 m 1
 61 37 l 1
 61 39 l 1
 63 39 l 1
 63 37 l 1
12 41 m 1
 10 41 l 1
 10 43 l 1
 11 43 l 1
 11 42 l 1
 12 42 l 1
 12 41 l 1
14 41 m 1
 13 41 l 1
 13 42 l 1
 12 42 l 1
 12 43 l 1
 14 43 l 1
 14 41 l 1
17 41 m 1
 15 41 l 1
 15 43 l 1
 17 43 l 1
 17 41 l 1
23 41 m 1
 21 41 l 1
 21 43 l 1
 23 43 l 1
 23 41 l 1
26 41 m 1
 24 41 l 1
 24 43 l 1
 25 43 l 1
 25 42 l 1
 26 42 l 1
 26 41 l 1
28 41 m 1
 27 41 l 1
 27 42 l 1
 26 42 l 1
 26 43 l 1
 28 43 l 1
 28 41 l 1
31 41 m 1
 29 41 l 1
 29 43 l 1
 31 43 l 1
 31 41 l 1
41 41 m 1
 39 41 l 1
 39 43 l 1
 41 43 l 1
 41 41 l 1
44 41 m 1
 42 41 l 1
 42 43 l 1
 43 43 l 1
 43 42 l 1
 44 42 l 1
 44 41 l 1
46 41 m 1
 45 41 l 1
 45 42 l 1
 44 42 l 1
 44 43 l 1
 46 43 l 1
 46 41 l 1
49 41 m 1
 47 41 l 1
 47 43 l 1
 49 43 l 1
 49 41 l 1
63 41 m 1
 61 41 l 1
 61 43 l 1
 63 43 l 1
 63 41 l 1
EndSplineSet
Ligature2: "'liga' Standard Ligatures in Latin lookup 0-1" three one zero zero four
LCarets2: 1 0
EndChar

StartChar: custom_3_1_0_0_5
Encoding: 9561 -1 9316
Width: 70
Flags: H
LayerCount: 2
Fore
SplineSet
9 25 m 1
 7 25 l 1
 7 27 l 1
 9 27 l 1
 9 25 l 1
9 29 m 1
 7 29 l 1
 7 31 l 1
 9 31 l 1
 9 29 l 1
9 33 m 1
 7 33 l 1
 7 35 l 1
 9 35 l 1
 9 33 l 1
9 37 m 1
 7 37 l 1
 7 39 l 1
 9 39 l 1
 9 37 l 1
9 41 m 1
 7 41 l 1
 7 43 l 1
 9 43 l 1
 9 41 l 1
12 25 m 1
 10 25 l 1
 10 27 l 1
 11 27 l 1
 11 26 l 1
 12 26 l 1
 12 25 l 1
14 25 m 1
 13 25 l 1
 13 26 l 1
 12 26 l 1
 12 27 l 1
 14 27 l 1
 14 25 l 1
17 25 m 1
 15 25 l 1
 15 27 l 1
 17 27 l 1
 17 25 l 1
17 29 m 1
 15 29 l 1
 15 31 l 1
 17 31 l 1
 17 29 l 1
23 25 m 1
 21 25 l 1
 21 27 l 1
 23 27 l 1
 23 25 l 1
26 25 m 1
 24 25 l 1
 24 27 l 1
 25 27 l 1
 25 26 l 1
 26 26 l 1
 26 25 l 1
23 29 m 1
 21 29 l 1
 21 31 l 1
 23 31 l 1
 23 29 l 1
17 33 m 1
 15 33 l 1
 15 35 l 1
 17 35 l 1
 17 33 l 1
17 37 m 1
 15 37 l 1
 15 39 l 1
 17 39 l 1
 17 37 l 1
23 33 m 1
 21 33 l 1
 21 35 l 1
 23 35 l 1
 23 33 l 1
23 37 m 1
 21 37 l 1
 21 39 l 1
 23 39 l 1
 23 37 l 1
28 25 m 1
 27 25 l 1
 27 26 l 1
 26 26 l 1
 26 27 l 1
 28 27 l 1
 28 25 l 1
31 25 m 1
 29 25 l 1
 29 27 l 1
 31 27 l 1
 31 25 l 1
31 29 m 1
 29 29 l 1
 29 31 l 1
 31 31 l 1
 31 29 l 1
41 25 m 1
 39 25 l 1
 39 27 l 1
 41 27 l 1
 41 25 l 1
36 31 m 1
 34 31 l 1
 34 33 l 1
 36 33 l 1
 36 31 l 1
31 33 m 1
 29 33 l 1
 29 35 l 1
 31 35 l 1
 31 33 l 1
31 37 m 1
 29 37 l 1
 29 39 l 1
 31 39 l 1
 31 37 l 1
36 35 m 1
 34 35 l 1
 34 37 l 1
 36 37 l 1
 36 35 l 1
41 33 m 1
 39 33 l 1
 39 35 l 1
 41 35 l 1
 41 33 l 1
44 25 m 1
 42 25 l 1
 42 27 l 1
 43 27 l 1
 43 26 l 1
 44 26 l 1
 44 25 l 1
46 25 m 1
 45 25 l 1
 45 26 l 1
 44 26 l 1
 44 27 l 1
 46 27 l 1
 46 25 l 1
49 25 m 1
 47 25 l 1
 47 27 l 1
 49 27 l 1
 49 25 l 1
49 29 m 1
 47 29 l 1
 47 31 l 1
 49 31 l 1
 49 29 l 1
43 33 m 1
 42 33 l 1
 42 35 l 1
 44 35 l 1
 44 34 l 1
 43 34 l 1
 43 33 l 1
46 33 m 1
 44 33 l 1
 44 34 l 1
 45 34 l 1
 45 35 l 1
 46 35 l 1
 46 33 l 1
49 33 m 1
 47 33 l 1
 47 35 l 1
 49 35 l 1
 49 33 l 1
49 37 m 1
 47 37 l 1
 47 39 l 1
 49 39 l 1
 49 37 l 1
63 25 m 1
 61 25 l 1
 61 27 l 1
 63 27 l 1
 63 25 l 1
63 29 m 1
 61 29 l 1
 61 31 l 1
 63 31 l 1
 63 29 l 1
63 33 m 1
 61 33 l 1
 61 35 l 1
 63 35 l 1
 63 33 l 1
63 37 m 1
 61 37 l 1
 61 39 l 1
 63 39 l 1
 63 37 l 1
12 41 m 1
 10 41 l 1
 10 43 l 1
 11 43 l 1
 11 42 l 1
 12 42 l 1
 12 41 l 1
14 41 m 1
 13 41 l 1
 13 42 l 1
 12 42 l 1
 12 43 l 1
 14 43 l 1
 14 41 l 1
17 41 m 1
 15 41 l 1
 15 43 l 1
 17 43 l 1
 17 41 l 1
23 41 m 1
 21 41 l 1
 21 43 l 1
 23 43 l 1
 23 41 l 1
26 41 m 1
 24 41 l 1
 24 43 l 1
 25 43 l 1
 25 42 l 1
 26 42 l 1
 26 41 l 1
28 41 m 1
 27 41 l 1
 27 42 l 1
 26 42 l 1
 26 43 l 1
 28 43 l 1
 28 41 l 1
31 41 m 1
 29 41 l 1
 29 43 l 1
 31 43 l 1
 31 41 l 1
41 41 m 1
 39 41 l 1
 39 43 l 1
 41 43 l 1
 41 41 l 1
44 41 m 1
 42 41 l 1
 42 43 l 1
 43 43 l 1
 43 42 l 1
 44 42 l 1
 44 41 l 1
46 41 m 1
 45 41 l 1
 45 42 l 1
 44 42 l 1
 44 43 l 1
 46 43 l 1
 46 41 l 1
49 41 m 1
 47 41 l 1
 47 43 l 1
 49 43 l 1
 49 41 l 1
63 41 m 1
 61 41 l 1
 61 43 l 1
 63 43 l 1
 63 41 l 1
EndSplineSet
Ligature2: "'liga' Standard Ligatures in Latin lookup 0-1" three one zero zero five
LCarets2: 1 0
EndChar

StartChar: custom_3_1_0_0_6
Encoding: 9562 -1 9317
Width: 70
Flags: H
LayerCount: 2
Fore
SplineSet
9 25 m 1
 7 25 l 1
 7 27 l 1
 9 27 l 1
 9 25 l 1
9 29 m 1
 7 29 l 1
 7 31 l 1
 9 31 l 1
 9 29 l 1
9 33 m 1
 7 33 l 1
 7 35 l 1
 9 35 l 1
 9 33 l 1
9 37 m 1
 7 37 l 1
 7 39 l 1
 9 39 l 1
 9 37 l 1
9 41 m 1
 7 41 l 1
 7 43 l 1
 9 43 l 1
 9 41 l 1
12 25 m 1
 10 25 l 1
 10 27 l 1
 11 27 l 1
 11 26 l 1
 12 26 l 1
 12 25 l 1
14 25 m 1
 13 25 l 1
 13 26 l 1
 12 26 l 1
 12 27 l 1
 14 27 l 1
 14 25 l 1
17 25 m 1
 15 25 l 1
 15 27 l 1
 17 27 l 1
 17 25 l 1
17 29 m 1
 15 29 l 1
 15 31 l 1
 17 31 l 1
 17 29 l 1
23 25 m 1
 21 25 l 1
 21 27 l 1
 23 27 l 1
 23 25 l 1
26 25 m 1
 24 25 l 1
 24 27 l 1
 25 27 l 1
 25 26 l 1
 26 26 l 1
 26 25 l 1
23 29 m 1
 21 29 l 1
 21 31 l 1
 23 31 l 1
 23 29 l 1
17 33 m 1
 15 33 l 1
 15 35 l 1
 17 35 l 1
 17 33 l 1
17 37 m 1
 15 37 l 1
 15 39 l 1
 17 39 l 1
 17 37 l 1
23 33 m 1
 21 33 l 1
 21 35 l 1
 23 35 l 1
 23 33 l 1
23 37 m 1
 21 37 l 1
 21 39 l 1
 23 39 l 1
 23 37 l 1
28 25 m 1
 27 25 l 1
 27 26 l 1
 26 26 l 1
 26 27 l 1
 28 27 l 1
 28 25 l 1
31 25 m 1
 29 25 l 1
 29 27 l 1
 31 27 l 1
 31 25 l 1
31 29 m 1
 29 29 l 1
 29 31 l 1
 31 31 l 1
 31 29 l 1
41 25 m 1
 39 25 l 1
 39 27 l 1
 41 27 l 1
 41 25 l 1
36 31 m 1
 34 31 l 1
 34 33 l 1
 36 33 l 1
 36 31 l 1
31 33 m 1
 29 33 l 1
 29 35 l 1
 31 35 l 1
 31 33 l 1
31 37 m 1
 29 37 l 1
 29 39 l 1
 31 39 l 1
 31 37 l 1
36 35 m 1
 34 35 l 1
 34 37 l 1
 36 37 l 1
 36 35 l 1
41 33 m 1
 39 33 l 1
 39 35 l 1
 41 35 l 1
 41 33 l 1
44 25 m 1
 42 25 l 1
 42 27 l 1
 43 27 l 1
 43 26 l 1
 44 26 l 1
 44 25 l 1
46 25 m 1
 45 25 l 1
 45 26 l 1
 44 26 l 1
 44 27 l 1
 46 27 l 1
 46 25 l 1
49 25 m 1
 47 25 l 1
 47 27 l 1
 49 27 l 1
 49 25 l 1
49 29 m 1
 47 29 l 1
 47 31 l 1
 49 31 l 1
 49 29 l 1
43 33 m 1
 42 33 l 1
 42 35 l 1
 44 35 l 1
 44 34 l 1
 43 34 l 1
 43 33 l 1
46 33 m 1
 44 33 l 1
 44 34 l 1
 45 34 l 1
 45 35 l 1
 46 35 l 1
 46 33 l 1
49 33 m 1
 47 33 l 1
 47 35 l 1
 49 35 l 1
 49 33 l 1
49 37 m 1
 47 37 l 1
 47 39 l 1
 49 39 l 1
 49 37 l 1
63 25 m 1
 61 25 l 1
 61 27 l 1
 63 27 l 1
 63 25 l 1
63 29 m 1
 61 29 l 1
 61 31 l 1
 63 31 l 1
 63 29 l 1
63 33 m 1
 61 33 l 1
 61 35 l 1
 63 35 l 1
 63 33 l 1
63 37 m 1
 61 37 l 1
 61 39 l 1
 63 39 l 1
 63 37 l 1
12 41 m 1
 10 41 l 1
 10 43 l 1
 11 43 l 1
 11 42 l 1
 12 42 l 1
 12 41 l 1
14 41 m 1
 13 41 l 1
 13 42 l 1
 12 42 l 1
 12 43 l 1
 14 43 l 1
 14 41 l 1
17 41 m 1
 15 41 l 1
 15 43 l 1
 17 43 l 1
 17 41 l 1
23 41 m 1
 21 41 l 1
 21 43 l 1
 23 43 l 1
 23 41 l 1
26 41 m 1
 24 41 l 1
 24 43 l 1
 25 43 l 1
 25 42 l 1
 26 42 l 1
 26 41 l 1
28 41 m 1
 27 41 l 1
 27 42 l 1
 26 42 l 1
 26 43 l 1
 28 43 l 1
 28 41 l 1
31 41 m 1
 29 41 l 1
 29 43 l 1
 31 43 l 1
 31 41 l 1
41 41 m 1
 39 41 l 1
 39 43 l 1
 41 43 l 1
 41 41 l 1
44 41 m 1
 42 41 l 1
 42 43 l 1
 43 43 l 1
 43 42 l 1
 44 42 l 1
 44 41 l 1
46 41 m 1
 45 41 l 1
 45 42 l 1
 44 42 l 1
 44 43 l 1
 46 43 l 1
 46 41 l 1
49 41 m 1
 47 41 l 1
 47 43 l 1
 49 43 l 1
 49 41 l 1
63 41 m 1
 61 41 l 1
 61 43 l 1
 63 43 l 1
 63 41 l 1
EndSplineSet
Ligature2: "'liga' Standard Ligatures in Latin lookup 0-1" three one zero zero six
LCarets2: 1 0
EndChar

StartChar: custom_3_1_0_0_7
Encoding: 9563 -1 9318
Width: 70
Flags: H
LayerCount: 2
Fore
SplineSet
9 25 m 1
 7 25 l 1
 7 27 l 1
 9 27 l 1
 9 25 l 1
9 29 m 1
 7 29 l 1
 7 31 l 1
 9 31 l 1
 9 29 l 1
9 33 m 1
 7 33 l 1
 7 35 l 1
 9 35 l 1
 9 33 l 1
9 37 m 1
 7 37 l 1
 7 39 l 1
 9 39 l 1
 9 37 l 1
9 41 m 1
 7 41 l 1
 7 43 l 1
 9 43 l 1
 9 41 l 1
12 25 m 1
 10 25 l 1
 10 27 l 1
 11 27 l 1
 11 26 l 1
 12 26 l 1
 12 25 l 1
14 25 m 1
 13 25 l 1
 13 26 l 1
 12 26 l 1
 12 27 l 1
 14 27 l 1
 14 25 l 1
17 25 m 1
 15 25 l 1
 15 27 l 1
 17 27 l 1
 17 25 l 1
17 29 m 1
 15 29 l 1
 15 31 l 1
 17 31 l 1
 17 29 l 1
23 25 m 1
 21 25 l 1
 21 27 l 1
 23 27 l 1
 23 25 l 1
26 25 m 1
 24 25 l 1
 24 27 l 1
 25 27 l 1
 25 26 l 1
 26 26 l 1
 26 25 l 1
23 29 m 1
 21 29 l 1
 21 31 l 1
 23 31 l 1
 23 29 l 1
17 33 m 1
 15 33 l 1
 15 35 l 1
 17 35 l 1
 17 33 l 1
17 37 m 1
 15 37 l 1
 15 39 l 1
 17 39 l 1
 17 37 l 1
23 33 m 1
 21 33 l 1
 21 35 l 1
 23 35 l 1
 23 33 l 1
23 37 m 1
 21 37 l 1
 21 39 l 1
 23 39 l 1
 23 37 l 1
28 25 m 1
 27 25 l 1
 27 26 l 1
 26 26 l 1
 26 27 l 1
 28 27 l 1
 28 25 l 1
31 25 m 1
 29 25 l 1
 29 27 l 1
 31 27 l 1
 31 25 l 1
31 29 m 1
 29 29 l 1
 29 31 l 1
 31 31 l 1
 31 29 l 1
41 25 m 1
 39 25 l 1
 39 27 l 1
 41 27 l 1
 41 25 l 1
36 31 m 1
 34 31 l 1
 34 33 l 1
 36 33 l 1
 36 31 l 1
31 33 m 1
 29 33 l 1
 29 35 l 1
 31 35 l 1
 31 33 l 1
31 37 m 1
 29 37 l 1
 29 39 l 1
 31 39 l 1
 31 37 l 1
36 35 m 1
 34 35 l 1
 34 37 l 1
 36 37 l 1
 36 35 l 1
41 33 m 1
 39 33 l 1
 39 35 l 1
 41 35 l 1
 41 33 l 1
44 25 m 1
 42 25 l 1
 42 27 l 1
 43 27 l 1
 43 26 l 1
 44 26 l 1
 44 25 l 1
46 25 m 1
 45 25 l 1
 45 26 l 1
 44 26 l 1
 44 27 l 1
 46 27 l 1
 46 25 l 1
49 25 m 1
 47 25 l 1
 47 27 l 1
 49 27 l 1
 49 25 l 1
49 29 m 1
 47 29 l 1
 47 31 l 1
 49 31 l 1
 49 29 l 1
43 33 m 1
 42 33 l 1
 42 35 l 1
 44 35 l 1
 44 34 l 1
 43 34 l 1
 43 33 l 1
46 33 m 1
 44 33 l 1
 44 34 l 1
 45 34 l 1
 45 35 l 1
 46 35 l 1
 46 33 l 1
49 33 m 1
 47 33 l 1
 47 35 l 1
 49 35 l 1
 49 33 l 1
49 37 m 1
 47 37 l 1
 47 39 l 1
 49 39 l 1
 49 37 l 1
63 25 m 1
 61 25 l 1
 61 27 l 1
 63 27 l 1
 63 25 l 1
63 29 m 1
 61 29 l 1
 61 31 l 1
 63 31 l 1
 63 29 l 1
63 33 m 1
 61 33 l 1
 61 35 l 1
 63 35 l 1
 63 33 l 1
63 37 m 1
 61 37 l 1
 61 39 l 1
 63 39 l 1
 63 37 l 1
12 41 m 1
 10 41 l 1
 10 43 l 1
 11 43 l 1
 11 42 l 1
 12 42 l 1
 12 41 l 1
14 41 m 1
 13 41 l 1
 13 42 l 1
 12 42 l 1
 12 43 l 1
 14 43 l 1
 14 41 l 1
17 41 m 1
 15 41 l 1
 15 43 l 1
 17 43 l 1
 17 41 l 1
23 41 m 1
 21 41 l 1
 21 43 l 1
 23 43 l 1
 23 41 l 1
26 41 m 1
 24 41 l 1
 24 43 l 1
 25 43 l 1
 25 42 l 1
 26 42 l 1
 26 41 l 1
28 41 m 1
 27 41 l 1
 27 42 l 1
 26 42 l 1
 26 43 l 1
 28 43 l 1
 28 41 l 1
31 41 m 1
 29 41 l 1
 29 43 l 1
 31 43 l 1
 31 41 l 1
41 41 m 1
 39 41 l 1
 39 43 l 1
 41 43 l 1
 41 41 l 1
44 41 m 1
 42 41 l 1
 42 43 l 1
 43 43 l 1
 43 42 l 1
 44 42 l 1
 44 41 l 1
46 41 m 1
 45 41 l 1
 45 42 l 1
 44 42 l 1
 44 43 l 1
 46 43 l 1
 46 41 l 1
49 41 m 1
 47 41 l 1
 47 43 l 1
 49 43 l 1
 49 41 l 1
63 41 m 1
 61 41 l 1
 61 43 l 1
 63 43 l 1
 63 41 l 1
EndSplineSet
Ligature2: "'liga' Standard Ligatures in Latin lookup 0-1" three one zero zero seven
LCarets2: 1 0
EndChar

StartChar: custom_3_1_0_0_8
Encoding: 9564 -1 9319
Width: 70
Flags: H
LayerCount: 2
Fore
SplineSet
9 25 m 1
 7 25 l 1
 7 27 l 1
 9 27 l 1
 9 25 l 1
9 29 m 1
 7 29 l 1
 7 31 l 1
 9 31 l 1
 9 29 l 1
9 33 m 1
 7 33 l 1
 7 35 l 1
 9 35 l 1
 9 33 l 1
9 37 m 1
 7 37 l 1
 7 39 l 1
 9 39 l 1
 9 37 l 1
9 41 m 1
 7 41 l 1
 7 43 l 1
 9 43 l 1
 9 41 l 1
12 25 m 1
 10 25 l 1
 10 27 l 1
 11 27 l 1
 11 26 l 1
 12 26 l 1
 12 25 l 1
14 25 m 1
 13 25 l 1
 13 26 l 1
 12 26 l 1
 12 27 l 1
 14 27 l 1
 14 25 l 1
17 25 m 1
 15 25 l 1
 15 27 l 1
 17 27 l 1
 17 25 l 1
17 29 m 1
 15 29 l 1
 15 31 l 1
 17 31 l 1
 17 29 l 1
23 25 m 1
 21 25 l 1
 21 27 l 1
 23 27 l 1
 23 25 l 1
26 25 m 1
 24 25 l 1
 24 27 l 1
 25 27 l 1
 25 26 l 1
 26 26 l 1
 26 25 l 1
23 29 m 1
 21 29 l 1
 21 31 l 1
 23 31 l 1
 23 29 l 1
17 33 m 1
 15 33 l 1
 15 35 l 1
 17 35 l 1
 17 33 l 1
17 37 m 1
 15 37 l 1
 15 39 l 1
 17 39 l 1
 17 37 l 1
23 33 m 1
 21 33 l 1
 21 35 l 1
 23 35 l 1
 23 33 l 1
23 37 m 1
 21 37 l 1
 21 39 l 1
 23 39 l 1
 23 37 l 1
28 25 m 1
 27 25 l 1
 27 26 l 1
 26 26 l 1
 26 27 l 1
 28 27 l 1
 28 25 l 1
31 25 m 1
 29 25 l 1
 29 27 l 1
 31 27 l 1
 31 25 l 1
31 29 m 1
 29 29 l 1
 29 31 l 1
 31 31 l 1
 31 29 l 1
41 25 m 1
 39 25 l 1
 39 27 l 1
 41 27 l 1
 41 25 l 1
36 31 m 1
 34 31 l 1
 34 33 l 1
 36 33 l 1
 36 31 l 1
31 33 m 1
 29 33 l 1
 29 35 l 1
 31 35 l 1
 31 33 l 1
31 37 m 1
 29 37 l 1
 29 39 l 1
 31 39 l 1
 31 37 l 1
36 35 m 1
 34 35 l 1
 34 37 l 1
 36 37 l 1
 36 35 l 1
41 33 m 1
 39 33 l 1
 39 35 l 1
 41 35 l 1
 41 33 l 1
44 25 m 1
 42 25 l 1
 42 27 l 1
 43 27 l 1
 43 26 l 1
 44 26 l 1
 44 25 l 1
46 25 m 1
 45 25 l 1
 45 26 l 1
 44 26 l 1
 44 27 l 1
 46 27 l 1
 46 25 l 1
49 25 m 1
 47 25 l 1
 47 27 l 1
 49 27 l 1
 49 25 l 1
49 29 m 1
 47 29 l 1
 47 31 l 1
 49 31 l 1
 49 29 l 1
43 33 m 1
 42 33 l 1
 42 35 l 1
 44 35 l 1
 44 34 l 1
 43 34 l 1
 43 33 l 1
46 33 m 1
 44 33 l 1
 44 34 l 1
 45 34 l 1
 45 35 l 1
 46 35 l 1
 46 33 l 1
49 33 m 1
 47 33 l 1
 47 35 l 1
 49 35 l 1
 49 33 l 1
49 37 m 1
 47 37 l 1
 47 39 l 1
 49 39 l 1
 49 37 l 1
63 25 m 1
 61 25 l 1
 61 27 l 1
 63 27 l 1
 63 25 l 1
63 29 m 1
 61 29 l 1
 61 31 l 1
 63 31 l 1
 63 29 l 1
63 33 m 1
 61 33 l 1
 61 35 l 1
 63 35 l 1
 63 33 l 1
63 37 m 1
 61 37 l 1
 61 39 l 1
 63 39 l 1
 63 37 l 1
12 41 m 1
 10 41 l 1
 10 43 l 1
 11 43 l 1
 11 42 l 1
 12 42 l 1
 12 41 l 1
14 41 m 1
 13 41 l 1
 13 42 l 1
 12 42 l 1
 12 43 l 1
 14 43 l 1
 14 41 l 1
17 41 m 1
 15 41 l 1
 15 43 l 1
 17 43 l 1
 17 41 l 1
23 41 m 1
 21 41 l 1
 21 43 l 1
 23 43 l 1
 23 41 l 1
26 41 m 1
 24 41 l 1
 24 43 l 1
 25 43 l 1
 25 42 l 1
 26 42 l 1
 26 41 l 1
28 41 m 1
 27 41 l 1
 27 42 l 1
 26 42 l 1
 26 43 l 1
 28 43 l 1
 28 41 l 1
31 41 m 1
 29 41 l 1
 29 43 l 1
 31 43 l 1
 31 41 l 1
41 41 m 1
 39 41 l 1
 39 43 l 1
 41 43 l 1
 41 41 l 1
44 41 m 1
 42 41 l 1
 42 43 l 1
 43 43 l 1
 43 42 l 1
 44 42 l 1
 44 41 l 1
46 41 m 1
 45 41 l 1
 45 42 l 1
 44 42 l 1
 44 43 l 1
 46 43 l 1
 46 41 l 1
49 41 m 1
 47 41 l 1
 47 43 l 1
 49 43 l 1
 49 41 l 1
63 41 m 1
 61 41 l 1
 61 43 l 1
 63 43 l 1
 63 41 l 1
EndSplineSet
Ligature2: "'liga' Standard Ligatures in Latin lookup 0-1" three one zero zero eight
LCarets2: 1 0
EndChar

StartChar: custom_3_1_0_0_9
Encoding: 9565 -1 9320
Width: 70
Flags: H
LayerCount: 2
Fore
SplineSet
9 25 m 1
 7 25 l 1
 7 27 l 1
 9 27 l 1
 9 25 l 1
9 29 m 1
 7 29 l 1
 7 31 l 1
 9 31 l 1
 9 29 l 1
9 33 m 1
 7 33 l 1
 7 35 l 1
 9 35 l 1
 9 33 l 1
9 37 m 1
 7 37 l 1
 7 39 l 1
 9 39 l 1
 9 37 l 1
9 41 m 1
 7 41 l 1
 7 43 l 1
 9 43 l 1
 9 41 l 1
12 25 m 1
 10 25 l 1
 10 27 l 1
 11 27 l 1
 11 26 l 1
 12 26 l 1
 12 25 l 1
14 25 m 1
 13 25 l 1
 13 26 l 1
 12 26 l 1
 12 27 l 1
 14 27 l 1
 14 25 l 1
17 25 m 1
 15 25 l 1
 15 27 l 1
 17 27 l 1
 17 25 l 1
17 29 m 1
 15 29 l 1
 15 31 l 1
 17 31 l 1
 17 29 l 1
23 25 m 1
 21 25 l 1
 21 27 l 1
 23 27 l 1
 23 25 l 1
26 25 m 1
 24 25 l 1
 24 27 l 1
 25 27 l 1
 25 26 l 1
 26 26 l 1
 26 25 l 1
23 29 m 1
 21 29 l 1
 21 31 l 1
 23 31 l 1
 23 29 l 1
17 33 m 1
 15 33 l 1
 15 35 l 1
 17 35 l 1
 17 33 l 1
17 37 m 1
 15 37 l 1
 15 39 l 1
 17 39 l 1
 17 37 l 1
23 33 m 1
 21 33 l 1
 21 35 l 1
 23 35 l 1
 23 33 l 1
23 37 m 1
 21 37 l 1
 21 39 l 1
 23 39 l 1
 23 37 l 1
28 25 m 1
 27 25 l 1
 27 26 l 1
 26 26 l 1
 26 27 l 1
 28 27 l 1
 28 25 l 1
31 25 m 1
 29 25 l 1
 29 27 l 1
 31 27 l 1
 31 25 l 1
31 29 m 1
 29 29 l 1
 29 31 l 1
 31 31 l 1
 31 29 l 1
41 25 m 1
 39 25 l 1
 39 27 l 1
 41 27 l 1
 41 25 l 1
36 31 m 1
 34 31 l 1
 34 33 l 1
 36 33 l 1
 36 31 l 1
31 33 m 1
 29 33 l 1
 29 35 l 1
 31 35 l 1
 31 33 l 1
31 37 m 1
 29 37 l 1
 29 39 l 1
 31 39 l 1
 31 37 l 1
36 35 m 1
 34 35 l 1
 34 37 l 1
 36 37 l 1
 36 35 l 1
41 33 m 1
 39 33 l 1
 39 35 l 1
 41 35 l 1
 41 33 l 1
44 25 m 1
 42 25 l 1
 42 27 l 1
 43 27 l 1
 43 26 l 1
 44 26 l 1
 44 25 l 1
46 25 m 1
 45 25 l 1
 45 26 l 1
 44 26 l 1
 44 27 l 1
 46 27 l 1
 46 25 l 1
49 25 m 1
 47 25 l 1
 47 27 l 1
 49 27 l 1
 49 25 l 1
49 29 m 1
 47 29 l 1
 47 31 l 1
 49 31 l 1
 49 29 l 1
43 33 m 1
 42 33 l 1
 42 35 l 1
 44 35 l 1
 44 34 l 1
 43 34 l 1
 43 33 l 1
46 33 m 1
 44 33 l 1
 44 34 l 1
 45 34 l 1
 45 35 l 1
 46 35 l 1
 46 33 l 1
49 33 m 1
 47 33 l 1
 47 35 l 1
 49 35 l 1
 49 33 l 1
49 37 m 1
 47 37 l 1
 47 39 l 1
 49 39 l 1
 49 37 l 1
63 25 m 1
 61 25 l 1
 61 27 l 1
 63 27 l 1
 63 25 l 1
63 29 m 1
 61 29 l 1
 61 31 l 1
 63 31 l 1
 63 29 l 1
63 33 m 1
 61 33 l 1
 61 35 l 1
 63 35 l 1
 63 33 l 1
63 37 m 1
 61 37 l 1
 61 39 l 1
 63 39 l 1
 63 37 l 1
12 41 m 1
 10 41 l 1
 10 43 l 1
 11 43 l 1
 11 42 l 1
 12 42 l 1
 12 41 l 1
14 41 m 1
 13 41 l 1
 13 42 l 1
 12 42 l 1
 12 43 l 1
 14 43 l 1
 14 41 l 1
17 41 m 1
 15 41 l 1
 15 43 l 1
 17 43 l 1
 17 41 l 1
23 41 m 1
 21 41 l 1
 21 43 l 1
 23 43 l 1
 23 41 l 1
26 41 m 1
 24 41 l 1
 24 43 l 1
 25 43 l 1
 25 42 l 1
 26 42 l 1
 26 41 l 1
28 41 m 1
 27 41 l 1
 27 42 l 1
 26 42 l 1
 26 43 l 1
 28 43 l 1
 28 41 l 1
31 41 m 1
 29 41 l 1
 29 43 l 1
 31 43 l 1
 31 41 l 1
41 41 m 1
 39 41 l 1
 39 43 l 1
 41 43 l 1
 41 41 l 1
44 41 m 1
 42 41 l 1
 42 43 l 1
 43 43 l 1
 43 42 l 1
 44 42 l 1
 44 41 l 1
46 41 m 1
 45 41 l 1
 45 42 l 1
 44 42 l 1
 44 43 l 1
 46 43 l 1
 46 41 l 1
49 41 m 1
 47 41 l 1
 47 43 l 1
 49 43 l 1
 49 41 l 1
63 41 m 1
 61 41 l 1
 61 43 l 1
 63 43 l 1
 63 41 l 1
EndSplineSet
Ligature2: "'liga' Standard Ligatures in Latin lookup 0-1" three one zero zero nine
LCarets2: 1 0
EndChar

StartChar: custom_3_1_0_1_0
Encoding: 9566 -1 9321
Width: 70
Flags: H
LayerCount: 2
Fore
SplineSet
9 25 m 1
 7 25 l 1
 7 27 l 1
 9 27 l 1
 9 25 l 1
9 29 m 1
 7 29 l 1
 7 31 l 1
 9 31 l 1
 9 29 l 1
9 33 m 1
 7 33 l 1
 7 35 l 1
 9 35 l 1
 9 33 l 1
9 37 m 1
 7 37 l 1
 7 39 l 1
 9 39 l 1
 9 37 l 1
9 41 m 1
 7 41 l 1
 7 43 l 1
 9 43 l 1
 9 41 l 1
12 25 m 1
 10 25 l 1
 10 27 l 1
 11 27 l 1
 11 26 l 1
 12 26 l 1
 12 25 l 1
14 25 m 1
 13 25 l 1
 13 26 l 1
 12 26 l 1
 12 27 l 1
 14 27 l 1
 14 25 l 1
17 25 m 1
 15 25 l 1
 15 27 l 1
 17 27 l 1
 17 25 l 1
17 29 m 1
 15 29 l 1
 15 31 l 1
 17 31 l 1
 17 29 l 1
23 25 m 1
 21 25 l 1
 21 27 l 1
 23 27 l 1
 23 25 l 1
26 25 m 1
 24 25 l 1
 24 27 l 1
 25 27 l 1
 25 26 l 1
 26 26 l 1
 26 25 l 1
23 29 m 1
 21 29 l 1
 21 31 l 1
 23 31 l 1
 23 29 l 1
17 33 m 1
 15 33 l 1
 15 35 l 1
 17 35 l 1
 17 33 l 1
17 37 m 1
 15 37 l 1
 15 39 l 1
 17 39 l 1
 17 37 l 1
23 33 m 1
 21 33 l 1
 21 35 l 1
 23 35 l 1
 23 33 l 1
23 37 m 1
 21 37 l 1
 21 39 l 1
 23 39 l 1
 23 37 l 1
28 25 m 1
 27 25 l 1
 27 26 l 1
 26 26 l 1
 26 27 l 1
 28 27 l 1
 28 25 l 1
31 25 m 1
 29 25 l 1
 29 27 l 1
 31 27 l 1
 31 25 l 1
31 29 m 1
 29 29 l 1
 29 31 l 1
 31 31 l 1
 31 29 l 1
41 25 m 1
 39 25 l 1
 39 27 l 1
 41 27 l 1
 41 25 l 1
36 31 m 1
 34 31 l 1
 34 33 l 1
 36 33 l 1
 36 31 l 1
31 33 m 1
 29 33 l 1
 29 35 l 1
 31 35 l 1
 31 33 l 1
31 37 m 1
 29 37 l 1
 29 39 l 1
 31 39 l 1
 31 37 l 1
36 35 m 1
 34 35 l 1
 34 37 l 1
 36 37 l 1
 36 35 l 1
41 33 m 1
 39 33 l 1
 39 35 l 1
 41 35 l 1
 41 33 l 1
44 25 m 1
 42 25 l 1
 42 27 l 1
 43 27 l 1
 43 26 l 1
 44 26 l 1
 44 25 l 1
46 25 m 1
 45 25 l 1
 45 26 l 1
 44 26 l 1
 44 27 l 1
 46 27 l 1
 46 25 l 1
49 25 m 1
 47 25 l 1
 47 27 l 1
 49 27 l 1
 49 25 l 1
49 29 m 1
 47 29 l 1
 47 31 l 1
 49 31 l 1
 49 29 l 1
43 33 m 1
 42 33 l 1
 42 35 l 1
 44 35 l 1
 44 34 l 1
 43 34 l 1
 43 33 l 1
46 33 m 1
 44 33 l 1
 44 34 l 1
 45 34 l 1
 45 35 l 1
 46 35 l 1
 46 33 l 1
49 33 m 1
 47 33 l 1
 47 35 l 1
 49 35 l 1
 49 33 l 1
49 37 m 1
 47 37 l 1
 47 39 l 1
 49 39 l 1
 49 37 l 1
63 25 m 1
 61 25 l 1
 61 27 l 1
 63 27 l 1
 63 25 l 1
63 29 m 1
 61 29 l 1
 61 31 l 1
 63 31 l 1
 63 29 l 1
63 33 m 1
 61 33 l 1
 61 35 l 1
 63 35 l 1
 63 33 l 1
63 37 m 1
 61 37 l 1
 61 39 l 1
 63 39 l 1
 63 37 l 1
12 41 m 1
 10 41 l 1
 10 43 l 1
 11 43 l 1
 11 42 l 1
 12 42 l 1
 12 41 l 1
14 41 m 1
 13 41 l 1
 13 42 l 1
 12 42 l 1
 12 43 l 1
 14 43 l 1
 14 41 l 1
17 41 m 1
 15 41 l 1
 15 43 l 1
 17 43 l 1
 17 41 l 1
23 41 m 1
 21 41 l 1
 21 43 l 1
 23 43 l 1
 23 41 l 1
26 41 m 1
 24 41 l 1
 24 43 l 1
 25 43 l 1
 25 42 l 1
 26 42 l 1
 26 41 l 1
28 41 m 1
 27 41 l 1
 27 42 l 1
 26 42 l 1
 26 43 l 1
 28 43 l 1
 28 41 l 1
31 41 m 1
 29 41 l 1
 29 43 l 1
 31 43 l 1
 31 41 l 1
41 41 m 1
 39 41 l 1
 39 43 l 1
 41 43 l 1
 41 41 l 1
44 41 m 1
 42 41 l 1
 42 43 l 1
 43 43 l 1
 43 42 l 1
 44 42 l 1
 44 41 l 1
46 41 m 1
 45 41 l 1
 45 42 l 1
 44 42 l 1
 44 43 l 1
 46 43 l 1
 46 41 l 1
49 41 m 1
 47 41 l 1
 47 43 l 1
 49 43 l 1
 49 41 l 1
63 41 m 1
 61 41 l 1
 61 43 l 1
 63 43 l 1
 63 41 l 1
EndSplineSet
Ligature2: "'liga' Standard Ligatures in Latin lookup 0-1" three one zero one zero
LCarets2: 1 0
EndChar

StartChar: custom_3_1_0_1_1
Encoding: 9567 -1 9322
Width: 70
Flags: H
LayerCount: 2
Fore
SplineSet
9 25 m 1
 7 25 l 1
 7 27 l 1
 9 27 l 1
 9 25 l 1
9 29 m 1
 7 29 l 1
 7 31 l 1
 9 31 l 1
 9 29 l 1
9 33 m 1
 7 33 l 1
 7 35 l 1
 9 35 l 1
 9 33 l 1
9 37 m 1
 7 37 l 1
 7 39 l 1
 9 39 l 1
 9 37 l 1
9 41 m 1
 7 41 l 1
 7 43 l 1
 9 43 l 1
 9 41 l 1
12 25 m 1
 10 25 l 1
 10 27 l 1
 11 27 l 1
 11 26 l 1
 12 26 l 1
 12 25 l 1
14 25 m 1
 13 25 l 1
 13 26 l 1
 12 26 l 1
 12 27 l 1
 14 27 l 1
 14 25 l 1
17 25 m 1
 15 25 l 1
 15 27 l 1
 17 27 l 1
 17 25 l 1
17 29 m 1
 15 29 l 1
 15 31 l 1
 17 31 l 1
 17 29 l 1
23 25 m 1
 21 25 l 1
 21 27 l 1
 23 27 l 1
 23 25 l 1
26 25 m 1
 24 25 l 1
 24 27 l 1
 25 27 l 1
 25 26 l 1
 26 26 l 1
 26 25 l 1
23 29 m 1
 21 29 l 1
 21 31 l 1
 23 31 l 1
 23 29 l 1
17 33 m 1
 15 33 l 1
 15 35 l 1
 17 35 l 1
 17 33 l 1
17 37 m 1
 15 37 l 1
 15 39 l 1
 17 39 l 1
 17 37 l 1
23 33 m 1
 21 33 l 1
 21 35 l 1
 23 35 l 1
 23 33 l 1
23 37 m 1
 21 37 l 1
 21 39 l 1
 23 39 l 1
 23 37 l 1
28 25 m 1
 27 25 l 1
 27 26 l 1
 26 26 l 1
 26 27 l 1
 28 27 l 1
 28 25 l 1
31 25 m 1
 29 25 l 1
 29 27 l 1
 31 27 l 1
 31 25 l 1
31 29 m 1
 29 29 l 1
 29 31 l 1
 31 31 l 1
 31 29 l 1
41 25 m 1
 39 25 l 1
 39 27 l 1
 41 27 l 1
 41 25 l 1
36 31 m 1
 34 31 l 1
 34 33 l 1
 36 33 l 1
 36 31 l 1
31 33 m 1
 29 33 l 1
 29 35 l 1
 31 35 l 1
 31 33 l 1
31 37 m 1
 29 37 l 1
 29 39 l 1
 31 39 l 1
 31 37 l 1
36 35 m 1
 34 35 l 1
 34 37 l 1
 36 37 l 1
 36 35 l 1
41 33 m 1
 39 33 l 1
 39 35 l 1
 41 35 l 1
 41 33 l 1
44 25 m 1
 42 25 l 1
 42 27 l 1
 43 27 l 1
 43 26 l 1
 44 26 l 1
 44 25 l 1
46 25 m 1
 45 25 l 1
 45 26 l 1
 44 26 l 1
 44 27 l 1
 46 27 l 1
 46 25 l 1
49 25 m 1
 47 25 l 1
 47 27 l 1
 49 27 l 1
 49 25 l 1
49 29 m 1
 47 29 l 1
 47 31 l 1
 49 31 l 1
 49 29 l 1
43 33 m 1
 42 33 l 1
 42 35 l 1
 44 35 l 1
 44 34 l 1
 43 34 l 1
 43 33 l 1
46 33 m 1
 44 33 l 1
 44 34 l 1
 45 34 l 1
 45 35 l 1
 46 35 l 1
 46 33 l 1
49 33 m 1
 47 33 l 1
 47 35 l 1
 49 35 l 1
 49 33 l 1
49 37 m 1
 47 37 l 1
 47 39 l 1
 49 39 l 1
 49 37 l 1
63 25 m 1
 61 25 l 1
 61 27 l 1
 63 27 l 1
 63 25 l 1
63 29 m 1
 61 29 l 1
 61 31 l 1
 63 31 l 1
 63 29 l 1
63 33 m 1
 61 33 l 1
 61 35 l 1
 63 35 l 1
 63 33 l 1
63 37 m 1
 61 37 l 1
 61 39 l 1
 63 39 l 1
 63 37 l 1
12 41 m 1
 10 41 l 1
 10 43 l 1
 11 43 l 1
 11 42 l 1
 12 42 l 1
 12 41 l 1
14 41 m 1
 13 41 l 1
 13 42 l 1
 12 42 l 1
 12 43 l 1
 14 43 l 1
 14 41 l 1
17 41 m 1
 15 41 l 1
 15 43 l 1
 17 43 l 1
 17 41 l 1
23 41 m 1
 21 41 l 1
 21 43 l 1
 23 43 l 1
 23 41 l 1
26 41 m 1
 24 41 l 1
 24 43 l 1
 25 43 l 1
 25 42 l 1
 26 42 l 1
 26 41 l 1
28 41 m 1
 27 41 l 1
 27 42 l 1
 26 42 l 1
 26 43 l 1
 28 43 l 1
 28 41 l 1
31 41 m 1
 29 41 l 1
 29 43 l 1
 31 43 l 1
 31 41 l 1
41 41 m 1
 39 41 l 1
 39 43 l 1
 41 43 l 1
 41 41 l 1
44 41 m 1
 42 41 l 1
 42 43 l 1
 43 43 l 1
 43 42 l 1
 44 42 l 1
 44 41 l 1
46 41 m 1
 45 41 l 1
 45 42 l 1
 44 42 l 1
 44 43 l 1
 46 43 l 1
 46 41 l 1
49 41 m 1
 47 41 l 1
 47 43 l 1
 49 43 l 1
 49 41 l 1
63 41 m 1
 61 41 l 1
 61 43 l 1
 63 43 l 1
 63 41 l 1
EndSplineSet
Ligature2: "'liga' Standard Ligatures in Latin lookup 0-1" three one zero one one
LCarets2: 1 0
EndChar

StartChar: custom_3_1_0_1_2
Encoding: 9568 -1 9323
Width: 70
Flags: H
LayerCount: 2
Fore
SplineSet
9 25 m 1
 7 25 l 1
 7 27 l 1
 9 27 l 1
 9 25 l 1
9 29 m 1
 7 29 l 1
 7 31 l 1
 9 31 l 1
 9 29 l 1
9 33 m 1
 7 33 l 1
 7 35 l 1
 9 35 l 1
 9 33 l 1
9 37 m 1
 7 37 l 1
 7 39 l 1
 9 39 l 1
 9 37 l 1
9 41 m 1
 7 41 l 1
 7 43 l 1
 9 43 l 1
 9 41 l 1
12 25 m 1
 10 25 l 1
 10 27 l 1
 11 27 l 1
 11 26 l 1
 12 26 l 1
 12 25 l 1
14 25 m 1
 13 25 l 1
 13 26 l 1
 12 26 l 1
 12 27 l 1
 14 27 l 1
 14 25 l 1
17 25 m 1
 15 25 l 1
 15 27 l 1
 17 27 l 1
 17 25 l 1
17 29 m 1
 15 29 l 1
 15 31 l 1
 17 31 l 1
 17 29 l 1
23 25 m 1
 21 25 l 1
 21 27 l 1
 23 27 l 1
 23 25 l 1
26 25 m 1
 24 25 l 1
 24 27 l 1
 25 27 l 1
 25 26 l 1
 26 26 l 1
 26 25 l 1
23 29 m 1
 21 29 l 1
 21 31 l 1
 23 31 l 1
 23 29 l 1
17 33 m 1
 15 33 l 1
 15 35 l 1
 17 35 l 1
 17 33 l 1
17 37 m 1
 15 37 l 1
 15 39 l 1
 17 39 l 1
 17 37 l 1
23 33 m 1
 21 33 l 1
 21 35 l 1
 23 35 l 1
 23 33 l 1
23 37 m 1
 21 37 l 1
 21 39 l 1
 23 39 l 1
 23 37 l 1
28 25 m 1
 27 25 l 1
 27 26 l 1
 26 26 l 1
 26 27 l 1
 28 27 l 1
 28 25 l 1
31 25 m 1
 29 25 l 1
 29 27 l 1
 31 27 l 1
 31 25 l 1
31 29 m 1
 29 29 l 1
 29 31 l 1
 31 31 l 1
 31 29 l 1
41 25 m 1
 39 25 l 1
 39 27 l 1
 41 27 l 1
 41 25 l 1
36 31 m 1
 34 31 l 1
 34 33 l 1
 36 33 l 1
 36 31 l 1
31 33 m 1
 29 33 l 1
 29 35 l 1
 31 35 l 1
 31 33 l 1
31 37 m 1
 29 37 l 1
 29 39 l 1
 31 39 l 1
 31 37 l 1
36 35 m 1
 34 35 l 1
 34 37 l 1
 36 37 l 1
 36 35 l 1
41 33 m 1
 39 33 l 1
 39 35 l 1
 41 35 l 1
 41 33 l 1
44 25 m 1
 42 25 l 1
 42 27 l 1
 43 27 l 1
 43 26 l 1
 44 26 l 1
 44 25 l 1
46 25 m 1
 45 25 l 1
 45 26 l 1
 44 26 l 1
 44 27 l 1
 46 27 l 1
 46 25 l 1
49 25 m 1
 47 25 l 1
 47 27 l 1
 49 27 l 1
 49 25 l 1
49 29 m 1
 47 29 l 1
 47 31 l 1
 49 31 l 1
 49 29 l 1
43 33 m 1
 42 33 l 1
 42 35 l 1
 44 35 l 1
 44 34 l 1
 43 34 l 1
 43 33 l 1
46 33 m 1
 44 33 l 1
 44 34 l 1
 45 34 l 1
 45 35 l 1
 46 35 l 1
 46 33 l 1
49 33 m 1
 47 33 l 1
 47 35 l 1
 49 35 l 1
 49 33 l 1
49 37 m 1
 47 37 l 1
 47 39 l 1
 49 39 l 1
 49 37 l 1
63 25 m 1
 61 25 l 1
 61 27 l 1
 63 27 l 1
 63 25 l 1
63 29 m 1
 61 29 l 1
 61 31 l 1
 63 31 l 1
 63 29 l 1
63 33 m 1
 61 33 l 1
 61 35 l 1
 63 35 l 1
 63 33 l 1
63 37 m 1
 61 37 l 1
 61 39 l 1
 63 39 l 1
 63 37 l 1
12 41 m 1
 10 41 l 1
 10 43 l 1
 11 43 l 1
 11 42 l 1
 12 42 l 1
 12 41 l 1
14 41 m 1
 13 41 l 1
 13 42 l 1
 12 42 l 1
 12 43 l 1
 14 43 l 1
 14 41 l 1
17 41 m 1
 15 41 l 1
 15 43 l 1
 17 43 l 1
 17 41 l 1
23 41 m 1
 21 41 l 1
 21 43 l 1
 23 43 l 1
 23 41 l 1
26 41 m 1
 24 41 l 1
 24 43 l 1
 25 43 l 1
 25 42 l 1
 26 42 l 1
 26 41 l 1
28 41 m 1
 27 41 l 1
 27 42 l 1
 26 42 l 1
 26 43 l 1
 28 43 l 1
 28 41 l 1
31 41 m 1
 29 41 l 1
 29 43 l 1
 31 43 l 1
 31 41 l 1
41 41 m 1
 39 41 l 1
 39 43 l 1
 41 43 l 1
 41 41 l 1
44 41 m 1
 42 41 l 1
 42 43 l 1
 43 43 l 1
 43 42 l 1
 44 42 l 1
 44 41 l 1
46 41 m 1
 45 41 l 1
 45 42 l 1
 44 42 l 1
 44 43 l 1
 46 43 l 1
 46 41 l 1
49 41 m 1
 47 41 l 1
 47 43 l 1
 49 43 l 1
 49 41 l 1
63 41 m 1
 61 41 l 1
 61 43 l 1
 63 43 l 1
 63 41 l 1
EndSplineSet
Ligature2: "'liga' Standard Ligatures in Latin lookup 0-1" three one zero one two
LCarets2: 1 0
EndChar

StartChar: custom_3_1_0_1_3
Encoding: 9569 -1 9324
Width: 70
Flags: H
LayerCount: 2
Fore
SplineSet
9 25 m 1
 7 25 l 1
 7 27 l 1
 9 27 l 1
 9 25 l 1
9 29 m 1
 7 29 l 1
 7 31 l 1
 9 31 l 1
 9 29 l 1
9 33 m 1
 7 33 l 1
 7 35 l 1
 9 35 l 1
 9 33 l 1
9 37 m 1
 7 37 l 1
 7 39 l 1
 9 39 l 1
 9 37 l 1
9 41 m 1
 7 41 l 1
 7 43 l 1
 9 43 l 1
 9 41 l 1
12 25 m 1
 10 25 l 1
 10 27 l 1
 11 27 l 1
 11 26 l 1
 12 26 l 1
 12 25 l 1
14 25 m 1
 13 25 l 1
 13 26 l 1
 12 26 l 1
 12 27 l 1
 14 27 l 1
 14 25 l 1
17 25 m 1
 15 25 l 1
 15 27 l 1
 17 27 l 1
 17 25 l 1
17 29 m 1
 15 29 l 1
 15 31 l 1
 17 31 l 1
 17 29 l 1
23 25 m 1
 21 25 l 1
 21 27 l 1
 23 27 l 1
 23 25 l 1
26 25 m 1
 24 25 l 1
 24 27 l 1
 25 27 l 1
 25 26 l 1
 26 26 l 1
 26 25 l 1
23 29 m 1
 21 29 l 1
 21 31 l 1
 23 31 l 1
 23 29 l 1
17 33 m 1
 15 33 l 1
 15 35 l 1
 17 35 l 1
 17 33 l 1
17 37 m 1
 15 37 l 1
 15 39 l 1
 17 39 l 1
 17 37 l 1
23 33 m 1
 21 33 l 1
 21 35 l 1
 23 35 l 1
 23 33 l 1
23 37 m 1
 21 37 l 1
 21 39 l 1
 23 39 l 1
 23 37 l 1
28 25 m 1
 27 25 l 1
 27 26 l 1
 26 26 l 1
 26 27 l 1
 28 27 l 1
 28 25 l 1
31 25 m 1
 29 25 l 1
 29 27 l 1
 31 27 l 1
 31 25 l 1
31 29 m 1
 29 29 l 1
 29 31 l 1
 31 31 l 1
 31 29 l 1
41 25 m 1
 39 25 l 1
 39 27 l 1
 41 27 l 1
 41 25 l 1
36 31 m 1
 34 31 l 1
 34 33 l 1
 36 33 l 1
 36 31 l 1
31 33 m 1
 29 33 l 1
 29 35 l 1
 31 35 l 1
 31 33 l 1
31 37 m 1
 29 37 l 1
 29 39 l 1
 31 39 l 1
 31 37 l 1
36 35 m 1
 34 35 l 1
 34 37 l 1
 36 37 l 1
 36 35 l 1
41 33 m 1
 39 33 l 1
 39 35 l 1
 41 35 l 1
 41 33 l 1
44 25 m 1
 42 25 l 1
 42 27 l 1
 43 27 l 1
 43 26 l 1
 44 26 l 1
 44 25 l 1
46 25 m 1
 45 25 l 1
 45 26 l 1
 44 26 l 1
 44 27 l 1
 46 27 l 1
 46 25 l 1
49 25 m 1
 47 25 l 1
 47 27 l 1
 49 27 l 1
 49 25 l 1
49 29 m 1
 47 29 l 1
 47 31 l 1
 49 31 l 1
 49 29 l 1
43 33 m 1
 42 33 l 1
 42 35 l 1
 44 35 l 1
 44 34 l 1
 43 34 l 1
 43 33 l 1
46 33 m 1
 44 33 l 1
 44 34 l 1
 45 34 l 1
 45 35 l 1
 46 35 l 1
 46 33 l 1
49 33 m 1
 47 33 l 1
 47 35 l 1
 49 35 l 1
 49 33 l 1
49 37 m 1
 47 37 l 1
 47 39 l 1
 49 39 l 1
 49 37 l 1
63 25 m 1
 61 25 l 1
 61 27 l 1
 63 27 l 1
 63 25 l 1
63 29 m 1
 61 29 l 1
 61 31 l 1
 63 31 l 1
 63 29 l 1
63 33 m 1
 61 33 l 1
 61 35 l 1
 63 35 l 1
 63 33 l 1
63 37 m 1
 61 37 l 1
 61 39 l 1
 63 39 l 1
 63 37 l 1
12 41 m 1
 10 41 l 1
 10 43 l 1
 11 43 l 1
 11 42 l 1
 12 42 l 1
 12 41 l 1
14 41 m 1
 13 41 l 1
 13 42 l 1
 12 42 l 1
 12 43 l 1
 14 43 l 1
 14 41 l 1
17 41 m 1
 15 41 l 1
 15 43 l 1
 17 43 l 1
 17 41 l 1
23 41 m 1
 21 41 l 1
 21 43 l 1
 23 43 l 1
 23 41 l 1
26 41 m 1
 24 41 l 1
 24 43 l 1
 25 43 l 1
 25 42 l 1
 26 42 l 1
 26 41 l 1
28 41 m 1
 27 41 l 1
 27 42 l 1
 26 42 l 1
 26 43 l 1
 28 43 l 1
 28 41 l 1
31 41 m 1
 29 41 l 1
 29 43 l 1
 31 43 l 1
 31 41 l 1
41 41 m 1
 39 41 l 1
 39 43 l 1
 41 43 l 1
 41 41 l 1
44 41 m 1
 42 41 l 1
 42 43 l 1
 43 43 l 1
 43 42 l 1
 44 42 l 1
 44 41 l 1
46 41 m 1
 45 41 l 1
 45 42 l 1
 44 42 l 1
 44 43 l 1
 46 43 l 1
 46 41 l 1
49 41 m 1
 47 41 l 1
 47 43 l 1
 49 43 l 1
 49 41 l 1
63 41 m 1
 61 41 l 1
 61 43 l 1
 63 43 l 1
 63 41 l 1
EndSplineSet
Ligature2: "'liga' Standard Ligatures in Latin lookup 0-1" three one zero one three
LCarets2: 1 0
EndChar

StartChar: custom_3_1_0_1_4
Encoding: 9570 -1 9325
Width: 70
Flags: H
LayerCount: 2
Fore
SplineSet
9 25 m 1
 7 25 l 1
 7 27 l 1
 9 27 l 1
 9 25 l 1
9 29 m 1
 7 29 l 1
 7 31 l 1
 9 31 l 1
 9 29 l 1
9 33 m 1
 7 33 l 1
 7 35 l 1
 9 35 l 1
 9 33 l 1
9 37 m 1
 7 37 l 1
 7 39 l 1
 9 39 l 1
 9 37 l 1
9 41 m 1
 7 41 l 1
 7 43 l 1
 9 43 l 1
 9 41 l 1
12 25 m 1
 10 25 l 1
 10 27 l 1
 11 27 l 1
 11 26 l 1
 12 26 l 1
 12 25 l 1
14 25 m 1
 13 25 l 1
 13 26 l 1
 12 26 l 1
 12 27 l 1
 14 27 l 1
 14 25 l 1
17 25 m 1
 15 25 l 1
 15 27 l 1
 17 27 l 1
 17 25 l 1
17 29 m 1
 15 29 l 1
 15 31 l 1
 17 31 l 1
 17 29 l 1
23 25 m 1
 21 25 l 1
 21 27 l 1
 23 27 l 1
 23 25 l 1
26 25 m 1
 24 25 l 1
 24 27 l 1
 25 27 l 1
 25 26 l 1
 26 26 l 1
 26 25 l 1
23 29 m 1
 21 29 l 1
 21 31 l 1
 23 31 l 1
 23 29 l 1
17 33 m 1
 15 33 l 1
 15 35 l 1
 17 35 l 1
 17 33 l 1
17 37 m 1
 15 37 l 1
 15 39 l 1
 17 39 l 1
 17 37 l 1
23 33 m 1
 21 33 l 1
 21 35 l 1
 23 35 l 1
 23 33 l 1
23 37 m 1
 21 37 l 1
 21 39 l 1
 23 39 l 1
 23 37 l 1
28 25 m 1
 27 25 l 1
 27 26 l 1
 26 26 l 1
 26 27 l 1
 28 27 l 1
 28 25 l 1
31 25 m 1
 29 25 l 1
 29 27 l 1
 31 27 l 1
 31 25 l 1
31 29 m 1
 29 29 l 1
 29 31 l 1
 31 31 l 1
 31 29 l 1
41 25 m 1
 39 25 l 1
 39 27 l 1
 41 27 l 1
 41 25 l 1
36 31 m 1
 34 31 l 1
 34 33 l 1
 36 33 l 1
 36 31 l 1
31 33 m 1
 29 33 l 1
 29 35 l 1
 31 35 l 1
 31 33 l 1
31 37 m 1
 29 37 l 1
 29 39 l 1
 31 39 l 1
 31 37 l 1
36 35 m 1
 34 35 l 1
 34 37 l 1
 36 37 l 1
 36 35 l 1
41 33 m 1
 39 33 l 1
 39 35 l 1
 41 35 l 1
 41 33 l 1
44 25 m 1
 42 25 l 1
 42 27 l 1
 43 27 l 1
 43 26 l 1
 44 26 l 1
 44 25 l 1
46 25 m 1
 45 25 l 1
 45 26 l 1
 44 26 l 1
 44 27 l 1
 46 27 l 1
 46 25 l 1
49 25 m 1
 47 25 l 1
 47 27 l 1
 49 27 l 1
 49 25 l 1
49 29 m 1
 47 29 l 1
 47 31 l 1
 49 31 l 1
 49 29 l 1
43 33 m 1
 42 33 l 1
 42 35 l 1
 44 35 l 1
 44 34 l 1
 43 34 l 1
 43 33 l 1
46 33 m 1
 44 33 l 1
 44 34 l 1
 45 34 l 1
 45 35 l 1
 46 35 l 1
 46 33 l 1
49 33 m 1
 47 33 l 1
 47 35 l 1
 49 35 l 1
 49 33 l 1
49 37 m 1
 47 37 l 1
 47 39 l 1
 49 39 l 1
 49 37 l 1
63 25 m 1
 61 25 l 1
 61 27 l 1
 63 27 l 1
 63 25 l 1
63 29 m 1
 61 29 l 1
 61 31 l 1
 63 31 l 1
 63 29 l 1
63 33 m 1
 61 33 l 1
 61 35 l 1
 63 35 l 1
 63 33 l 1
63 37 m 1
 61 37 l 1
 61 39 l 1
 63 39 l 1
 63 37 l 1
12 41 m 1
 10 41 l 1
 10 43 l 1
 11 43 l 1
 11 42 l 1
 12 42 l 1
 12 41 l 1
14 41 m 1
 13 41 l 1
 13 42 l 1
 12 42 l 1
 12 43 l 1
 14 43 l 1
 14 41 l 1
17 41 m 1
 15 41 l 1
 15 43 l 1
 17 43 l 1
 17 41 l 1
23 41 m 1
 21 41 l 1
 21 43 l 1
 23 43 l 1
 23 41 l 1
26 41 m 1
 24 41 l 1
 24 43 l 1
 25 43 l 1
 25 42 l 1
 26 42 l 1
 26 41 l 1
28 41 m 1
 27 41 l 1
 27 42 l 1
 26 42 l 1
 26 43 l 1
 28 43 l 1
 28 41 l 1
31 41 m 1
 29 41 l 1
 29 43 l 1
 31 43 l 1
 31 41 l 1
41 41 m 1
 39 41 l 1
 39 43 l 1
 41 43 l 1
 41 41 l 1
44 41 m 1
 42 41 l 1
 42 43 l 1
 43 43 l 1
 43 42 l 1
 44 42 l 1
 44 41 l 1
46 41 m 1
 45 41 l 1
 45 42 l 1
 44 42 l 1
 44 43 l 1
 46 43 l 1
 46 41 l 1
49 41 m 1
 47 41 l 1
 47 43 l 1
 49 43 l 1
 49 41 l 1
63 41 m 1
 61 41 l 1
 61 43 l 1
 63 43 l 1
 63 41 l 1
EndSplineSet
Ligature2: "'liga' Standard Ligatures in Latin lookup 0-1" three one zero one four
LCarets2: 1 0
EndChar

StartChar: custom_3_1_0_1_5
Encoding: 9571 -1 9326
Width: 70
Flags: H
LayerCount: 2
Fore
SplineSet
9 25 m 1
 7 25 l 1
 7 27 l 1
 9 27 l 1
 9 25 l 1
9 29 m 1
 7 29 l 1
 7 31 l 1
 9 31 l 1
 9 29 l 1
9 33 m 1
 7 33 l 1
 7 35 l 1
 9 35 l 1
 9 33 l 1
9 37 m 1
 7 37 l 1
 7 39 l 1
 9 39 l 1
 9 37 l 1
9 41 m 1
 7 41 l 1
 7 43 l 1
 9 43 l 1
 9 41 l 1
12 25 m 1
 10 25 l 1
 10 27 l 1
 11 27 l 1
 11 26 l 1
 12 26 l 1
 12 25 l 1
14 25 m 1
 13 25 l 1
 13 26 l 1
 12 26 l 1
 12 27 l 1
 14 27 l 1
 14 25 l 1
17 25 m 1
 15 25 l 1
 15 27 l 1
 17 27 l 1
 17 25 l 1
17 29 m 1
 15 29 l 1
 15 31 l 1
 17 31 l 1
 17 29 l 1
23 25 m 1
 21 25 l 1
 21 27 l 1
 23 27 l 1
 23 25 l 1
26 25 m 1
 24 25 l 1
 24 27 l 1
 25 27 l 1
 25 26 l 1
 26 26 l 1
 26 25 l 1
23 29 m 1
 21 29 l 1
 21 31 l 1
 23 31 l 1
 23 29 l 1
17 33 m 1
 15 33 l 1
 15 35 l 1
 17 35 l 1
 17 33 l 1
17 37 m 1
 15 37 l 1
 15 39 l 1
 17 39 l 1
 17 37 l 1
23 33 m 1
 21 33 l 1
 21 35 l 1
 23 35 l 1
 23 33 l 1
23 37 m 1
 21 37 l 1
 21 39 l 1
 23 39 l 1
 23 37 l 1
28 25 m 1
 27 25 l 1
 27 26 l 1
 26 26 l 1
 26 27 l 1
 28 27 l 1
 28 25 l 1
31 25 m 1
 29 25 l 1
 29 27 l 1
 31 27 l 1
 31 25 l 1
31 29 m 1
 29 29 l 1
 29 31 l 1
 31 31 l 1
 31 29 l 1
41 25 m 1
 39 25 l 1
 39 27 l 1
 41 27 l 1
 41 25 l 1
36 31 m 1
 34 31 l 1
 34 33 l 1
 36 33 l 1
 36 31 l 1
31 33 m 1
 29 33 l 1
 29 35 l 1
 31 35 l 1
 31 33 l 1
31 37 m 1
 29 37 l 1
 29 39 l 1
 31 39 l 1
 31 37 l 1
36 35 m 1
 34 35 l 1
 34 37 l 1
 36 37 l 1
 36 35 l 1
41 33 m 1
 39 33 l 1
 39 35 l 1
 41 35 l 1
 41 33 l 1
44 25 m 1
 42 25 l 1
 42 27 l 1
 43 27 l 1
 43 26 l 1
 44 26 l 1
 44 25 l 1
46 25 m 1
 45 25 l 1
 45 26 l 1
 44 26 l 1
 44 27 l 1
 46 27 l 1
 46 25 l 1
49 25 m 1
 47 25 l 1
 47 27 l 1
 49 27 l 1
 49 25 l 1
49 29 m 1
 47 29 l 1
 47 31 l 1
 49 31 l 1
 49 29 l 1
43 33 m 1
 42 33 l 1
 42 35 l 1
 44 35 l 1
 44 34 l 1
 43 34 l 1
 43 33 l 1
46 33 m 1
 44 33 l 1
 44 34 l 1
 45 34 l 1
 45 35 l 1
 46 35 l 1
 46 33 l 1
49 33 m 1
 47 33 l 1
 47 35 l 1
 49 35 l 1
 49 33 l 1
49 37 m 1
 47 37 l 1
 47 39 l 1
 49 39 l 1
 49 37 l 1
63 25 m 1
 61 25 l 1
 61 27 l 1
 63 27 l 1
 63 25 l 1
63 29 m 1
 61 29 l 1
 61 31 l 1
 63 31 l 1
 63 29 l 1
63 33 m 1
 61 33 l 1
 61 35 l 1
 63 35 l 1
 63 33 l 1
63 37 m 1
 61 37 l 1
 61 39 l 1
 63 39 l 1
 63 37 l 1
12 41 m 1
 10 41 l 1
 10 43 l 1
 11 43 l 1
 11 42 l 1
 12 42 l 1
 12 41 l 1
14 41 m 1
 13 41 l 1
 13 42 l 1
 12 42 l 1
 12 43 l 1
 14 43 l 1
 14 41 l 1
17 41 m 1
 15 41 l 1
 15 43 l 1
 17 43 l 1
 17 41 l 1
23 41 m 1
 21 41 l 1
 21 43 l 1
 23 43 l 1
 23 41 l 1
26 41 m 1
 24 41 l 1
 24 43 l 1
 25 43 l 1
 25 42 l 1
 26 42 l 1
 26 41 l 1
28 41 m 1
 27 41 l 1
 27 42 l 1
 26 42 l 1
 26 43 l 1
 28 43 l 1
 28 41 l 1
31 41 m 1
 29 41 l 1
 29 43 l 1
 31 43 l 1
 31 41 l 1
41 41 m 1
 39 41 l 1
 39 43 l 1
 41 43 l 1
 41 41 l 1
44 41 m 1
 42 41 l 1
 42 43 l 1
 43 43 l 1
 43 42 l 1
 44 42 l 1
 44 41 l 1
46 41 m 1
 45 41 l 1
 45 42 l 1
 44 42 l 1
 44 43 l 1
 46 43 l 1
 46 41 l 1
49 41 m 1
 47 41 l 1
 47 43 l 1
 49 43 l 1
 49 41 l 1
63 41 m 1
 61 41 l 1
 61 43 l 1
 63 43 l 1
 63 41 l 1
EndSplineSet
Ligature2: "'liga' Standard Ligatures in Latin lookup 0-1" three one zero one five
LCarets2: 1 0
EndChar

StartChar: custom_3_1_0_1_6
Encoding: 9572 -1 9327
Width: 70
Flags: H
LayerCount: 2
Fore
SplineSet
9 25 m 1
 7 25 l 1
 7 27 l 1
 9 27 l 1
 9 25 l 1
9 29 m 1
 7 29 l 1
 7 31 l 1
 9 31 l 1
 9 29 l 1
9 33 m 1
 7 33 l 1
 7 35 l 1
 9 35 l 1
 9 33 l 1
9 37 m 1
 7 37 l 1
 7 39 l 1
 9 39 l 1
 9 37 l 1
9 41 m 1
 7 41 l 1
 7 43 l 1
 9 43 l 1
 9 41 l 1
12 25 m 1
 10 25 l 1
 10 27 l 1
 11 27 l 1
 11 26 l 1
 12 26 l 1
 12 25 l 1
14 25 m 1
 13 25 l 1
 13 26 l 1
 12 26 l 1
 12 27 l 1
 14 27 l 1
 14 25 l 1
17 25 m 1
 15 25 l 1
 15 27 l 1
 17 27 l 1
 17 25 l 1
17 29 m 1
 15 29 l 1
 15 31 l 1
 17 31 l 1
 17 29 l 1
23 25 m 1
 21 25 l 1
 21 27 l 1
 23 27 l 1
 23 25 l 1
26 25 m 1
 24 25 l 1
 24 27 l 1
 25 27 l 1
 25 26 l 1
 26 26 l 1
 26 25 l 1
23 29 m 1
 21 29 l 1
 21 31 l 1
 23 31 l 1
 23 29 l 1
17 33 m 1
 15 33 l 1
 15 35 l 1
 17 35 l 1
 17 33 l 1
17 37 m 1
 15 37 l 1
 15 39 l 1
 17 39 l 1
 17 37 l 1
23 33 m 1
 21 33 l 1
 21 35 l 1
 23 35 l 1
 23 33 l 1
23 37 m 1
 21 37 l 1
 21 39 l 1
 23 39 l 1
 23 37 l 1
28 25 m 1
 27 25 l 1
 27 26 l 1
 26 26 l 1
 26 27 l 1
 28 27 l 1
 28 25 l 1
31 25 m 1
 29 25 l 1
 29 27 l 1
 31 27 l 1
 31 25 l 1
31 29 m 1
 29 29 l 1
 29 31 l 1
 31 31 l 1
 31 29 l 1
41 25 m 1
 39 25 l 1
 39 27 l 1
 41 27 l 1
 41 25 l 1
36 31 m 1
 34 31 l 1
 34 33 l 1
 36 33 l 1
 36 31 l 1
31 33 m 1
 29 33 l 1
 29 35 l 1
 31 35 l 1
 31 33 l 1
31 37 m 1
 29 37 l 1
 29 39 l 1
 31 39 l 1
 31 37 l 1
36 35 m 1
 34 35 l 1
 34 37 l 1
 36 37 l 1
 36 35 l 1
41 33 m 1
 39 33 l 1
 39 35 l 1
 41 35 l 1
 41 33 l 1
44 25 m 1
 42 25 l 1
 42 27 l 1
 43 27 l 1
 43 26 l 1
 44 26 l 1
 44 25 l 1
46 25 m 1
 45 25 l 1
 45 26 l 1
 44 26 l 1
 44 27 l 1
 46 27 l 1
 46 25 l 1
49 25 m 1
 47 25 l 1
 47 27 l 1
 49 27 l 1
 49 25 l 1
49 29 m 1
 47 29 l 1
 47 31 l 1
 49 31 l 1
 49 29 l 1
43 33 m 1
 42 33 l 1
 42 35 l 1
 44 35 l 1
 44 34 l 1
 43 34 l 1
 43 33 l 1
46 33 m 1
 44 33 l 1
 44 34 l 1
 45 34 l 1
 45 35 l 1
 46 35 l 1
 46 33 l 1
49 33 m 1
 47 33 l 1
 47 35 l 1
 49 35 l 1
 49 33 l 1
49 37 m 1
 47 37 l 1
 47 39 l 1
 49 39 l 1
 49 37 l 1
63 25 m 1
 61 25 l 1
 61 27 l 1
 63 27 l 1
 63 25 l 1
63 29 m 1
 61 29 l 1
 61 31 l 1
 63 31 l 1
 63 29 l 1
63 33 m 1
 61 33 l 1
 61 35 l 1
 63 35 l 1
 63 33 l 1
63 37 m 1
 61 37 l 1
 61 39 l 1
 63 39 l 1
 63 37 l 1
12 41 m 1
 10 41 l 1
 10 43 l 1
 11 43 l 1
 11 42 l 1
 12 42 l 1
 12 41 l 1
14 41 m 1
 13 41 l 1
 13 42 l 1
 12 42 l 1
 12 43 l 1
 14 43 l 1
 14 41 l 1
17 41 m 1
 15 41 l 1
 15 43 l 1
 17 43 l 1
 17 41 l 1
23 41 m 1
 21 41 l 1
 21 43 l 1
 23 43 l 1
 23 41 l 1
26 41 m 1
 24 41 l 1
 24 43 l 1
 25 43 l 1
 25 42 l 1
 26 42 l 1
 26 41 l 1
28 41 m 1
 27 41 l 1
 27 42 l 1
 26 42 l 1
 26 43 l 1
 28 43 l 1
 28 41 l 1
31 41 m 1
 29 41 l 1
 29 43 l 1
 31 43 l 1
 31 41 l 1
41 41 m 1
 39 41 l 1
 39 43 l 1
 41 43 l 1
 41 41 l 1
44 41 m 1
 42 41 l 1
 42 43 l 1
 43 43 l 1
 43 42 l 1
 44 42 l 1
 44 41 l 1
46 41 m 1
 45 41 l 1
 45 42 l 1
 44 42 l 1
 44 43 l 1
 46 43 l 1
 46 41 l 1
49 41 m 1
 47 41 l 1
 47 43 l 1
 49 43 l 1
 49 41 l 1
63 41 m 1
 61 41 l 1
 61 43 l 1
 63 43 l 1
 63 41 l 1
EndSplineSet
Ligature2: "'liga' Standard Ligatures in Latin lookup 0-1" three one zero one six
LCarets2: 1 0
EndChar

StartChar: custom_3_1_0_1_7
Encoding: 9573 -1 9328
Width: 70
Flags: H
LayerCount: 2
Fore
SplineSet
9 25 m 1
 7 25 l 1
 7 27 l 1
 9 27 l 1
 9 25 l 1
9 29 m 1
 7 29 l 1
 7 31 l 1
 9 31 l 1
 9 29 l 1
9 33 m 1
 7 33 l 1
 7 35 l 1
 9 35 l 1
 9 33 l 1
9 37 m 1
 7 37 l 1
 7 39 l 1
 9 39 l 1
 9 37 l 1
9 41 m 1
 7 41 l 1
 7 43 l 1
 9 43 l 1
 9 41 l 1
12 25 m 1
 10 25 l 1
 10 27 l 1
 11 27 l 1
 11 26 l 1
 12 26 l 1
 12 25 l 1
14 25 m 1
 13 25 l 1
 13 26 l 1
 12 26 l 1
 12 27 l 1
 14 27 l 1
 14 25 l 1
17 25 m 1
 15 25 l 1
 15 27 l 1
 17 27 l 1
 17 25 l 1
17 29 m 1
 15 29 l 1
 15 31 l 1
 17 31 l 1
 17 29 l 1
23 25 m 1
 21 25 l 1
 21 27 l 1
 23 27 l 1
 23 25 l 1
26 25 m 1
 24 25 l 1
 24 27 l 1
 25 27 l 1
 25 26 l 1
 26 26 l 1
 26 25 l 1
23 29 m 1
 21 29 l 1
 21 31 l 1
 23 31 l 1
 23 29 l 1
17 33 m 1
 15 33 l 1
 15 35 l 1
 17 35 l 1
 17 33 l 1
17 37 m 1
 15 37 l 1
 15 39 l 1
 17 39 l 1
 17 37 l 1
23 33 m 1
 21 33 l 1
 21 35 l 1
 23 35 l 1
 23 33 l 1
23 37 m 1
 21 37 l 1
 21 39 l 1
 23 39 l 1
 23 37 l 1
28 25 m 1
 27 25 l 1
 27 26 l 1
 26 26 l 1
 26 27 l 1
 28 27 l 1
 28 25 l 1
31 25 m 1
 29 25 l 1
 29 27 l 1
 31 27 l 1
 31 25 l 1
31 29 m 1
 29 29 l 1
 29 31 l 1
 31 31 l 1
 31 29 l 1
41 25 m 1
 39 25 l 1
 39 27 l 1
 41 27 l 1
 41 25 l 1
36 31 m 1
 34 31 l 1
 34 33 l 1
 36 33 l 1
 36 31 l 1
31 33 m 1
 29 33 l 1
 29 35 l 1
 31 35 l 1
 31 33 l 1
31 37 m 1
 29 37 l 1
 29 39 l 1
 31 39 l 1
 31 37 l 1
36 35 m 1
 34 35 l 1
 34 37 l 1
 36 37 l 1
 36 35 l 1
41 33 m 1
 39 33 l 1
 39 35 l 1
 41 35 l 1
 41 33 l 1
44 25 m 1
 42 25 l 1
 42 27 l 1
 43 27 l 1
 43 26 l 1
 44 26 l 1
 44 25 l 1
46 25 m 1
 45 25 l 1
 45 26 l 1
 44 26 l 1
 44 27 l 1
 46 27 l 1
 46 25 l 1
49 25 m 1
 47 25 l 1
 47 27 l 1
 49 27 l 1
 49 25 l 1
49 29 m 1
 47 29 l 1
 47 31 l 1
 49 31 l 1
 49 29 l 1
43 33 m 1
 42 33 l 1
 42 35 l 1
 44 35 l 1
 44 34 l 1
 43 34 l 1
 43 33 l 1
46 33 m 1
 44 33 l 1
 44 34 l 1
 45 34 l 1
 45 35 l 1
 46 35 l 1
 46 33 l 1
49 33 m 1
 47 33 l 1
 47 35 l 1
 49 35 l 1
 49 33 l 1
49 37 m 1
 47 37 l 1
 47 39 l 1
 49 39 l 1
 49 37 l 1
63 25 m 1
 61 25 l 1
 61 27 l 1
 63 27 l 1
 63 25 l 1
63 29 m 1
 61 29 l 1
 61 31 l 1
 63 31 l 1
 63 29 l 1
63 33 m 1
 61 33 l 1
 61 35 l 1
 63 35 l 1
 63 33 l 1
63 37 m 1
 61 37 l 1
 61 39 l 1
 63 39 l 1
 63 37 l 1
12 41 m 1
 10 41 l 1
 10 43 l 1
 11 43 l 1
 11 42 l 1
 12 42 l 1
 12 41 l 1
14 41 m 1
 13 41 l 1
 13 42 l 1
 12 42 l 1
 12 43 l 1
 14 43 l 1
 14 41 l 1
17 41 m 1
 15 41 l 1
 15 43 l 1
 17 43 l 1
 17 41 l 1
23 41 m 1
 21 41 l 1
 21 43 l 1
 23 43 l 1
 23 41 l 1
26 41 m 1
 24 41 l 1
 24 43 l 1
 25 43 l 1
 25 42 l 1
 26 42 l 1
 26 41 l 1
28 41 m 1
 27 41 l 1
 27 42 l 1
 26 42 l 1
 26 43 l 1
 28 43 l 1
 28 41 l 1
31 41 m 1
 29 41 l 1
 29 43 l 1
 31 43 l 1
 31 41 l 1
41 41 m 1
 39 41 l 1
 39 43 l 1
 41 43 l 1
 41 41 l 1
44 41 m 1
 42 41 l 1
 42 43 l 1
 43 43 l 1
 43 42 l 1
 44 42 l 1
 44 41 l 1
46 41 m 1
 45 41 l 1
 45 42 l 1
 44 42 l 1
 44 43 l 1
 46 43 l 1
 46 41 l 1
49 41 m 1
 47 41 l 1
 47 43 l 1
 49 43 l 1
 49 41 l 1
63 41 m 1
 61 41 l 1
 61 43 l 1
 63 43 l 1
 63 41 l 1
EndSplineSet
Ligature2: "'liga' Standard Ligatures in Latin lookup 0-1" three one zero one seven
LCarets2: 1 0
EndChar

StartChar: custom_3_1_0_1_8
Encoding: 9574 -1 9329
Width: 70
Flags: H
LayerCount: 2
Fore
SplineSet
9 25 m 1
 7 25 l 1
 7 27 l 1
 9 27 l 1
 9 25 l 1
9 29 m 1
 7 29 l 1
 7 31 l 1
 9 31 l 1
 9 29 l 1
9 33 m 1
 7 33 l 1
 7 35 l 1
 9 35 l 1
 9 33 l 1
9 37 m 1
 7 37 l 1
 7 39 l 1
 9 39 l 1
 9 37 l 1
9 41 m 1
 7 41 l 1
 7 43 l 1
 9 43 l 1
 9 41 l 1
12 25 m 1
 10 25 l 1
 10 27 l 1
 11 27 l 1
 11 26 l 1
 12 26 l 1
 12 25 l 1
14 25 m 1
 13 25 l 1
 13 26 l 1
 12 26 l 1
 12 27 l 1
 14 27 l 1
 14 25 l 1
17 25 m 1
 15 25 l 1
 15 27 l 1
 17 27 l 1
 17 25 l 1
17 29 m 1
 15 29 l 1
 15 31 l 1
 17 31 l 1
 17 29 l 1
23 25 m 1
 21 25 l 1
 21 27 l 1
 23 27 l 1
 23 25 l 1
26 25 m 1
 24 25 l 1
 24 27 l 1
 25 27 l 1
 25 26 l 1
 26 26 l 1
 26 25 l 1
23 29 m 1
 21 29 l 1
 21 31 l 1
 23 31 l 1
 23 29 l 1
17 33 m 1
 15 33 l 1
 15 35 l 1
 17 35 l 1
 17 33 l 1
17 37 m 1
 15 37 l 1
 15 39 l 1
 17 39 l 1
 17 37 l 1
23 33 m 1
 21 33 l 1
 21 35 l 1
 23 35 l 1
 23 33 l 1
23 37 m 1
 21 37 l 1
 21 39 l 1
 23 39 l 1
 23 37 l 1
28 25 m 1
 27 25 l 1
 27 26 l 1
 26 26 l 1
 26 27 l 1
 28 27 l 1
 28 25 l 1
31 25 m 1
 29 25 l 1
 29 27 l 1
 31 27 l 1
 31 25 l 1
31 29 m 1
 29 29 l 1
 29 31 l 1
 31 31 l 1
 31 29 l 1
41 25 m 1
 39 25 l 1
 39 27 l 1
 41 27 l 1
 41 25 l 1
36 31 m 1
 34 31 l 1
 34 33 l 1
 36 33 l 1
 36 31 l 1
31 33 m 1
 29 33 l 1
 29 35 l 1
 31 35 l 1
 31 33 l 1
31 37 m 1
 29 37 l 1
 29 39 l 1
 31 39 l 1
 31 37 l 1
36 35 m 1
 34 35 l 1
 34 37 l 1
 36 37 l 1
 36 35 l 1
41 33 m 1
 39 33 l 1
 39 35 l 1
 41 35 l 1
 41 33 l 1
44 25 m 1
 42 25 l 1
 42 27 l 1
 43 27 l 1
 43 26 l 1
 44 26 l 1
 44 25 l 1
46 25 m 1
 45 25 l 1
 45 26 l 1
 44 26 l 1
 44 27 l 1
 46 27 l 1
 46 25 l 1
49 25 m 1
 47 25 l 1
 47 27 l 1
 49 27 l 1
 49 25 l 1
49 29 m 1
 47 29 l 1
 47 31 l 1
 49 31 l 1
 49 29 l 1
43 33 m 1
 42 33 l 1
 42 35 l 1
 44 35 l 1
 44 34 l 1
 43 34 l 1
 43 33 l 1
46 33 m 1
 44 33 l 1
 44 34 l 1
 45 34 l 1
 45 35 l 1
 46 35 l 1
 46 33 l 1
49 33 m 1
 47 33 l 1
 47 35 l 1
 49 35 l 1
 49 33 l 1
49 37 m 1
 47 37 l 1
 47 39 l 1
 49 39 l 1
 49 37 l 1
63 25 m 1
 61 25 l 1
 61 27 l 1
 63 27 l 1
 63 25 l 1
63 29 m 1
 61 29 l 1
 61 31 l 1
 63 31 l 1
 63 29 l 1
63 33 m 1
 61 33 l 1
 61 35 l 1
 63 35 l 1
 63 33 l 1
63 37 m 1
 61 37 l 1
 61 39 l 1
 63 39 l 1
 63 37 l 1
12 41 m 1
 10 41 l 1
 10 43 l 1
 11 43 l 1
 11 42 l 1
 12 42 l 1
 12 41 l 1
14 41 m 1
 13 41 l 1
 13 42 l 1
 12 42 l 1
 12 43 l 1
 14 43 l 1
 14 41 l 1
17 41 m 1
 15 41 l 1
 15 43 l 1
 17 43 l 1
 17 41 l 1
23 41 m 1
 21 41 l 1
 21 43 l 1
 23 43 l 1
 23 41 l 1
26 41 m 1
 24 41 l 1
 24 43 l 1
 25 43 l 1
 25 42 l 1
 26 42 l 1
 26 41 l 1
28 41 m 1
 27 41 l 1
 27 42 l 1
 26 42 l 1
 26 43 l 1
 28 43 l 1
 28 41 l 1
31 41 m 1
 29 41 l 1
 29 43 l 1
 31 43 l 1
 31 41 l 1
41 41 m 1
 39 41 l 1
 39 43 l 1
 41 43 l 1
 41 41 l 1
44 41 m 1
 42 41 l 1
 42 43 l 1
 43 43 l 1
 43 42 l 1
 44 42 l 1
 44 41 l 1
46 41 m 1
 45 41 l 1
 45 42 l 1
 44 42 l 1
 44 43 l 1
 46 43 l 1
 46 41 l 1
49 41 m 1
 47 41 l 1
 47 43 l 1
 49 43 l 1
 49 41 l 1
63 41 m 1
 61 41 l 1
 61 43 l 1
 63 43 l 1
 63 41 l 1
EndSplineSet
Ligature2: "'liga' Standard Ligatures in Latin lookup 0-1" three one zero one eight
LCarets2: 1 0
EndChar

StartChar: custom_3_1_0_1_9
Encoding: 9575 -1 9330
Width: 70
Flags: H
LayerCount: 2
Fore
SplineSet
9 25 m 1
 7 25 l 1
 7 27 l 1
 9 27 l 1
 9 25 l 1
9 29 m 1
 7 29 l 1
 7 31 l 1
 9 31 l 1
 9 29 l 1
9 33 m 1
 7 33 l 1
 7 35 l 1
 9 35 l 1
 9 33 l 1
9 37 m 1
 7 37 l 1
 7 39 l 1
 9 39 l 1
 9 37 l 1
9 41 m 1
 7 41 l 1
 7 43 l 1
 9 43 l 1
 9 41 l 1
12 25 m 1
 10 25 l 1
 10 27 l 1
 11 27 l 1
 11 26 l 1
 12 26 l 1
 12 25 l 1
14 25 m 1
 13 25 l 1
 13 26 l 1
 12 26 l 1
 12 27 l 1
 14 27 l 1
 14 25 l 1
17 25 m 1
 15 25 l 1
 15 27 l 1
 17 27 l 1
 17 25 l 1
17 29 m 1
 15 29 l 1
 15 31 l 1
 17 31 l 1
 17 29 l 1
23 25 m 1
 21 25 l 1
 21 27 l 1
 23 27 l 1
 23 25 l 1
26 25 m 1
 24 25 l 1
 24 27 l 1
 25 27 l 1
 25 26 l 1
 26 26 l 1
 26 25 l 1
23 29 m 1
 21 29 l 1
 21 31 l 1
 23 31 l 1
 23 29 l 1
17 33 m 1
 15 33 l 1
 15 35 l 1
 17 35 l 1
 17 33 l 1
17 37 m 1
 15 37 l 1
 15 39 l 1
 17 39 l 1
 17 37 l 1
23 33 m 1
 21 33 l 1
 21 35 l 1
 23 35 l 1
 23 33 l 1
23 37 m 1
 21 37 l 1
 21 39 l 1
 23 39 l 1
 23 37 l 1
28 25 m 1
 27 25 l 1
 27 26 l 1
 26 26 l 1
 26 27 l 1
 28 27 l 1
 28 25 l 1
31 25 m 1
 29 25 l 1
 29 27 l 1
 31 27 l 1
 31 25 l 1
31 29 m 1
 29 29 l 1
 29 31 l 1
 31 31 l 1
 31 29 l 1
41 25 m 1
 39 25 l 1
 39 27 l 1
 41 27 l 1
 41 25 l 1
36 31 m 1
 34 31 l 1
 34 33 l 1
 36 33 l 1
 36 31 l 1
31 33 m 1
 29 33 l 1
 29 35 l 1
 31 35 l 1
 31 33 l 1
31 37 m 1
 29 37 l 1
 29 39 l 1
 31 39 l 1
 31 37 l 1
36 35 m 1
 34 35 l 1
 34 37 l 1
 36 37 l 1
 36 35 l 1
41 33 m 1
 39 33 l 1
 39 35 l 1
 41 35 l 1
 41 33 l 1
44 25 m 1
 42 25 l 1
 42 27 l 1
 43 27 l 1
 43 26 l 1
 44 26 l 1
 44 25 l 1
46 25 m 1
 45 25 l 1
 45 26 l 1
 44 26 l 1
 44 27 l 1
 46 27 l 1
 46 25 l 1
49 25 m 1
 47 25 l 1
 47 27 l 1
 49 27 l 1
 49 25 l 1
49 29 m 1
 47 29 l 1
 47 31 l 1
 49 31 l 1
 49 29 l 1
43 33 m 1
 42 33 l 1
 42 35 l 1
 44 35 l 1
 44 34 l 1
 43 34 l 1
 43 33 l 1
46 33 m 1
 44 33 l 1
 44 34 l 1
 45 34 l 1
 45 35 l 1
 46 35 l 1
 46 33 l 1
49 33 m 1
 47 33 l 1
 47 35 l 1
 49 35 l 1
 49 33 l 1
49 37 m 1
 47 37 l 1
 47 39 l 1
 49 39 l 1
 49 37 l 1
63 25 m 1
 61 25 l 1
 61 27 l 1
 63 27 l 1
 63 25 l 1
63 29 m 1
 61 29 l 1
 61 31 l 1
 63 31 l 1
 63 29 l 1
63 33 m 1
 61 33 l 1
 61 35 l 1
 63 35 l 1
 63 33 l 1
63 37 m 1
 61 37 l 1
 61 39 l 1
 63 39 l 1
 63 37 l 1
12 41 m 1
 10 41 l 1
 10 43 l 1
 11 43 l 1
 11 42 l 1
 12 42 l 1
 12 41 l 1
14 41 m 1
 13 41 l 1
 13 42 l 1
 12 42 l 1
 12 43 l 1
 14 43 l 1
 14 41 l 1
17 41 m 1
 15 41 l 1
 15 43 l 1
 17 43 l 1
 17 41 l 1
23 41 m 1
 21 41 l 1
 21 43 l 1
 23 43 l 1
 23 41 l 1
26 41 m 1
 24 41 l 1
 24 43 l 1
 25 43 l 1
 25 42 l 1
 26 42 l 1
 26 41 l 1
28 41 m 1
 27 41 l 1
 27 42 l 1
 26 42 l 1
 26 43 l 1
 28 43 l 1
 28 41 l 1
31 41 m 1
 29 41 l 1
 29 43 l 1
 31 43 l 1
 31 41 l 1
41 41 m 1
 39 41 l 1
 39 43 l 1
 41 43 l 1
 41 41 l 1
44 41 m 1
 42 41 l 1
 42 43 l 1
 43 43 l 1
 43 42 l 1
 44 42 l 1
 44 41 l 1
46 41 m 1
 45 41 l 1
 45 42 l 1
 44 42 l 1
 44 43 l 1
 46 43 l 1
 46 41 l 1
49 41 m 1
 47 41 l 1
 47 43 l 1
 49 43 l 1
 49 41 l 1
63 41 m 1
 61 41 l 1
 61 43 l 1
 63 43 l 1
 63 41 l 1
EndSplineSet
Ligature2: "'liga' Standard Ligatures in Latin lookup 0-1" three one zero one nine
LCarets2: 1 0
EndChar

StartChar: custom_3_1_0_2_0
Encoding: 9576 -1 9331
Width: 70
Flags: H
LayerCount: 2
Fore
SplineSet
9 25 m 1
 7 25 l 1
 7 27 l 1
 9 27 l 1
 9 25 l 1
9 29 m 1
 7 29 l 1
 7 31 l 1
 9 31 l 1
 9 29 l 1
9 33 m 1
 7 33 l 1
 7 35 l 1
 9 35 l 1
 9 33 l 1
9 37 m 1
 7 37 l 1
 7 39 l 1
 9 39 l 1
 9 37 l 1
9 41 m 1
 7 41 l 1
 7 43 l 1
 9 43 l 1
 9 41 l 1
12 25 m 1
 10 25 l 1
 10 27 l 1
 11 27 l 1
 11 26 l 1
 12 26 l 1
 12 25 l 1
14 25 m 1
 13 25 l 1
 13 26 l 1
 12 26 l 1
 12 27 l 1
 14 27 l 1
 14 25 l 1
17 25 m 1
 15 25 l 1
 15 27 l 1
 17 27 l 1
 17 25 l 1
17 29 m 1
 15 29 l 1
 15 31 l 1
 17 31 l 1
 17 29 l 1
23 25 m 1
 21 25 l 1
 21 27 l 1
 23 27 l 1
 23 25 l 1
26 25 m 1
 24 25 l 1
 24 27 l 1
 25 27 l 1
 25 26 l 1
 26 26 l 1
 26 25 l 1
23 29 m 1
 21 29 l 1
 21 31 l 1
 23 31 l 1
 23 29 l 1
17 33 m 1
 15 33 l 1
 15 35 l 1
 17 35 l 1
 17 33 l 1
17 37 m 1
 15 37 l 1
 15 39 l 1
 17 39 l 1
 17 37 l 1
23 33 m 1
 21 33 l 1
 21 35 l 1
 23 35 l 1
 23 33 l 1
23 37 m 1
 21 37 l 1
 21 39 l 1
 23 39 l 1
 23 37 l 1
28 25 m 1
 27 25 l 1
 27 26 l 1
 26 26 l 1
 26 27 l 1
 28 27 l 1
 28 25 l 1
31 25 m 1
 29 25 l 1
 29 27 l 1
 31 27 l 1
 31 25 l 1
31 29 m 1
 29 29 l 1
 29 31 l 1
 31 31 l 1
 31 29 l 1
41 25 m 1
 39 25 l 1
 39 27 l 1
 41 27 l 1
 41 25 l 1
36 31 m 1
 34 31 l 1
 34 33 l 1
 36 33 l 1
 36 31 l 1
31 33 m 1
 29 33 l 1
 29 35 l 1
 31 35 l 1
 31 33 l 1
31 37 m 1
 29 37 l 1
 29 39 l 1
 31 39 l 1
 31 37 l 1
36 35 m 1
 34 35 l 1
 34 37 l 1
 36 37 l 1
 36 35 l 1
41 33 m 1
 39 33 l 1
 39 35 l 1
 41 35 l 1
 41 33 l 1
44 25 m 1
 42 25 l 1
 42 27 l 1
 43 27 l 1
 43 26 l 1
 44 26 l 1
 44 25 l 1
46 25 m 1
 45 25 l 1
 45 26 l 1
 44 26 l 1
 44 27 l 1
 46 27 l 1
 46 25 l 1
49 25 m 1
 47 25 l 1
 47 27 l 1
 49 27 l 1
 49 25 l 1
49 29 m 1
 47 29 l 1
 47 31 l 1
 49 31 l 1
 49 29 l 1
43 33 m 1
 42 33 l 1
 42 35 l 1
 44 35 l 1
 44 34 l 1
 43 34 l 1
 43 33 l 1
46 33 m 1
 44 33 l 1
 44 34 l 1
 45 34 l 1
 45 35 l 1
 46 35 l 1
 46 33 l 1
49 33 m 1
 47 33 l 1
 47 35 l 1
 49 35 l 1
 49 33 l 1
49 37 m 1
 47 37 l 1
 47 39 l 1
 49 39 l 1
 49 37 l 1
63 25 m 1
 61 25 l 1
 61 27 l 1
 63 27 l 1
 63 25 l 1
63 29 m 1
 61 29 l 1
 61 31 l 1
 63 31 l 1
 63 29 l 1
63 33 m 1
 61 33 l 1
 61 35 l 1
 63 35 l 1
 63 33 l 1
63 37 m 1
 61 37 l 1
 61 39 l 1
 63 39 l 1
 63 37 l 1
12 41 m 1
 10 41 l 1
 10 43 l 1
 11 43 l 1
 11 42 l 1
 12 42 l 1
 12 41 l 1
14 41 m 1
 13 41 l 1
 13 42 l 1
 12 42 l 1
 12 43 l 1
 14 43 l 1
 14 41 l 1
17 41 m 1
 15 41 l 1
 15 43 l 1
 17 43 l 1
 17 41 l 1
23 41 m 1
 21 41 l 1
 21 43 l 1
 23 43 l 1
 23 41 l 1
26 41 m 1
 24 41 l 1
 24 43 l 1
 25 43 l 1
 25 42 l 1
 26 42 l 1
 26 41 l 1
28 41 m 1
 27 41 l 1
 27 42 l 1
 26 42 l 1
 26 43 l 1
 28 43 l 1
 28 41 l 1
31 41 m 1
 29 41 l 1
 29 43 l 1
 31 43 l 1
 31 41 l 1
41 41 m 1
 39 41 l 1
 39 43 l 1
 41 43 l 1
 41 41 l 1
44 41 m 1
 42 41 l 1
 42 43 l 1
 43 43 l 1
 43 42 l 1
 44 42 l 1
 44 41 l 1
46 41 m 1
 45 41 l 1
 45 42 l 1
 44 42 l 1
 44 43 l 1
 46 43 l 1
 46 41 l 1
49 41 m 1
 47 41 l 1
 47 43 l 1
 49 43 l 1
 49 41 l 1
63 41 m 1
 61 41 l 1
 61 43 l 1
 63 43 l 1
 63 41 l 1
EndSplineSet
Ligature2: "'liga' Standard Ligatures in Latin lookup 0-1" three one zero two zero
LCarets2: 1 0
EndChar

StartChar: custom_3_1_0_2_1
Encoding: 9577 -1 9332
Width: 70
Flags: H
LayerCount: 2
Fore
SplineSet
9 25 m 1
 7 25 l 1
 7 27 l 1
 9 27 l 1
 9 25 l 1
9 29 m 1
 7 29 l 1
 7 31 l 1
 9 31 l 1
 9 29 l 1
9 33 m 1
 7 33 l 1
 7 35 l 1
 9 35 l 1
 9 33 l 1
9 37 m 1
 7 37 l 1
 7 39 l 1
 9 39 l 1
 9 37 l 1
9 41 m 1
 7 41 l 1
 7 43 l 1
 9 43 l 1
 9 41 l 1
12 25 m 1
 10 25 l 1
 10 27 l 1
 11 27 l 1
 11 26 l 1
 12 26 l 1
 12 25 l 1
14 25 m 1
 13 25 l 1
 13 26 l 1
 12 26 l 1
 12 27 l 1
 14 27 l 1
 14 25 l 1
17 25 m 1
 15 25 l 1
 15 27 l 1
 17 27 l 1
 17 25 l 1
17 29 m 1
 15 29 l 1
 15 31 l 1
 17 31 l 1
 17 29 l 1
23 25 m 1
 21 25 l 1
 21 27 l 1
 23 27 l 1
 23 25 l 1
26 25 m 1
 24 25 l 1
 24 27 l 1
 25 27 l 1
 25 26 l 1
 26 26 l 1
 26 25 l 1
23 29 m 1
 21 29 l 1
 21 31 l 1
 23 31 l 1
 23 29 l 1
17 33 m 1
 15 33 l 1
 15 35 l 1
 17 35 l 1
 17 33 l 1
17 37 m 1
 15 37 l 1
 15 39 l 1
 17 39 l 1
 17 37 l 1
23 33 m 1
 21 33 l 1
 21 35 l 1
 23 35 l 1
 23 33 l 1
23 37 m 1
 21 37 l 1
 21 39 l 1
 23 39 l 1
 23 37 l 1
28 25 m 1
 27 25 l 1
 27 26 l 1
 26 26 l 1
 26 27 l 1
 28 27 l 1
 28 25 l 1
31 25 m 1
 29 25 l 1
 29 27 l 1
 31 27 l 1
 31 25 l 1
31 29 m 1
 29 29 l 1
 29 31 l 1
 31 31 l 1
 31 29 l 1
41 25 m 1
 39 25 l 1
 39 27 l 1
 41 27 l 1
 41 25 l 1
36 31 m 1
 34 31 l 1
 34 33 l 1
 36 33 l 1
 36 31 l 1
31 33 m 1
 29 33 l 1
 29 35 l 1
 31 35 l 1
 31 33 l 1
31 37 m 1
 29 37 l 1
 29 39 l 1
 31 39 l 1
 31 37 l 1
36 35 m 1
 34 35 l 1
 34 37 l 1
 36 37 l 1
 36 35 l 1
41 33 m 1
 39 33 l 1
 39 35 l 1
 41 35 l 1
 41 33 l 1
44 25 m 1
 42 25 l 1
 42 27 l 1
 43 27 l 1
 43 26 l 1
 44 26 l 1
 44 25 l 1
46 25 m 1
 45 25 l 1
 45 26 l 1
 44 26 l 1
 44 27 l 1
 46 27 l 1
 46 25 l 1
49 25 m 1
 47 25 l 1
 47 27 l 1
 49 27 l 1
 49 25 l 1
49 29 m 1
 47 29 l 1
 47 31 l 1
 49 31 l 1
 49 29 l 1
43 33 m 1
 42 33 l 1
 42 35 l 1
 44 35 l 1
 44 34 l 1
 43 34 l 1
 43 33 l 1
46 33 m 1
 44 33 l 1
 44 34 l 1
 45 34 l 1
 45 35 l 1
 46 35 l 1
 46 33 l 1
49 33 m 1
 47 33 l 1
 47 35 l 1
 49 35 l 1
 49 33 l 1
49 37 m 1
 47 37 l 1
 47 39 l 1
 49 39 l 1
 49 37 l 1
63 25 m 1
 61 25 l 1
 61 27 l 1
 63 27 l 1
 63 25 l 1
63 29 m 1
 61 29 l 1
 61 31 l 1
 63 31 l 1
 63 29 l 1
63 33 m 1
 61 33 l 1
 61 35 l 1
 63 35 l 1
 63 33 l 1
63 37 m 1
 61 37 l 1
 61 39 l 1
 63 39 l 1
 63 37 l 1
12 41 m 1
 10 41 l 1
 10 43 l 1
 11 43 l 1
 11 42 l 1
 12 42 l 1
 12 41 l 1
14 41 m 1
 13 41 l 1
 13 42 l 1
 12 42 l 1
 12 43 l 1
 14 43 l 1
 14 41 l 1
17 41 m 1
 15 41 l 1
 15 43 l 1
 17 43 l 1
 17 41 l 1
23 41 m 1
 21 41 l 1
 21 43 l 1
 23 43 l 1
 23 41 l 1
26 41 m 1
 24 41 l 1
 24 43 l 1
 25 43 l 1
 25 42 l 1
 26 42 l 1
 26 41 l 1
28 41 m 1
 27 41 l 1
 27 42 l 1
 26 42 l 1
 26 43 l 1
 28 43 l 1
 28 41 l 1
31 41 m 1
 29 41 l 1
 29 43 l 1
 31 43 l 1
 31 41 l 1
41 41 m 1
 39 41 l 1
 39 43 l 1
 41 43 l 1
 41 41 l 1
44 41 m 1
 42 41 l 1
 42 43 l 1
 43 43 l 1
 43 42 l 1
 44 42 l 1
 44 41 l 1
46 41 m 1
 45 41 l 1
 45 42 l 1
 44 42 l 1
 44 43 l 1
 46 43 l 1
 46 41 l 1
49 41 m 1
 47 41 l 1
 47 43 l 1
 49 43 l 1
 49 41 l 1
63 41 m 1
 61 41 l 1
 61 43 l 1
 63 43 l 1
 63 41 l 1
EndSplineSet
Ligature2: "'liga' Standard Ligatures in Latin lookup 0-1" three one zero two one
LCarets2: 1 0
EndChar

StartChar: custom_3_1_0_2_2
Encoding: 9578 -1 9333
Width: 70
Flags: H
LayerCount: 2
Fore
SplineSet
9 25 m 1
 7 25 l 1
 7 27 l 1
 9 27 l 1
 9 25 l 1
9 29 m 1
 7 29 l 1
 7 31 l 1
 9 31 l 1
 9 29 l 1
9 33 m 1
 7 33 l 1
 7 35 l 1
 9 35 l 1
 9 33 l 1
9 37 m 1
 7 37 l 1
 7 39 l 1
 9 39 l 1
 9 37 l 1
9 41 m 1
 7 41 l 1
 7 43 l 1
 9 43 l 1
 9 41 l 1
12 25 m 1
 10 25 l 1
 10 27 l 1
 11 27 l 1
 11 26 l 1
 12 26 l 1
 12 25 l 1
14 25 m 1
 13 25 l 1
 13 26 l 1
 12 26 l 1
 12 27 l 1
 14 27 l 1
 14 25 l 1
17 25 m 1
 15 25 l 1
 15 27 l 1
 17 27 l 1
 17 25 l 1
17 29 m 1
 15 29 l 1
 15 31 l 1
 17 31 l 1
 17 29 l 1
23 25 m 1
 21 25 l 1
 21 27 l 1
 23 27 l 1
 23 25 l 1
26 25 m 1
 24 25 l 1
 24 27 l 1
 25 27 l 1
 25 26 l 1
 26 26 l 1
 26 25 l 1
23 29 m 1
 21 29 l 1
 21 31 l 1
 23 31 l 1
 23 29 l 1
17 33 m 1
 15 33 l 1
 15 35 l 1
 17 35 l 1
 17 33 l 1
17 37 m 1
 15 37 l 1
 15 39 l 1
 17 39 l 1
 17 37 l 1
23 33 m 1
 21 33 l 1
 21 35 l 1
 23 35 l 1
 23 33 l 1
23 37 m 1
 21 37 l 1
 21 39 l 1
 23 39 l 1
 23 37 l 1
28 25 m 1
 27 25 l 1
 27 26 l 1
 26 26 l 1
 26 27 l 1
 28 27 l 1
 28 25 l 1
31 25 m 1
 29 25 l 1
 29 27 l 1
 31 27 l 1
 31 25 l 1
31 29 m 1
 29 29 l 1
 29 31 l 1
 31 31 l 1
 31 29 l 1
41 25 m 1
 39 25 l 1
 39 27 l 1
 41 27 l 1
 41 25 l 1
36 31 m 1
 34 31 l 1
 34 33 l 1
 36 33 l 1
 36 31 l 1
31 33 m 1
 29 33 l 1
 29 35 l 1
 31 35 l 1
 31 33 l 1
31 37 m 1
 29 37 l 1
 29 39 l 1
 31 39 l 1
 31 37 l 1
36 35 m 1
 34 35 l 1
 34 37 l 1
 36 37 l 1
 36 35 l 1
41 33 m 1
 39 33 l 1
 39 35 l 1
 41 35 l 1
 41 33 l 1
44 25 m 1
 42 25 l 1
 42 27 l 1
 43 27 l 1
 43 26 l 1
 44 26 l 1
 44 25 l 1
46 25 m 1
 45 25 l 1
 45 26 l 1
 44 26 l 1
 44 27 l 1
 46 27 l 1
 46 25 l 1
49 25 m 1
 47 25 l 1
 47 27 l 1
 49 27 l 1
 49 25 l 1
49 29 m 1
 47 29 l 1
 47 31 l 1
 49 31 l 1
 49 29 l 1
43 33 m 1
 42 33 l 1
 42 35 l 1
 44 35 l 1
 44 34 l 1
 43 34 l 1
 43 33 l 1
46 33 m 1
 44 33 l 1
 44 34 l 1
 45 34 l 1
 45 35 l 1
 46 35 l 1
 46 33 l 1
49 33 m 1
 47 33 l 1
 47 35 l 1
 49 35 l 1
 49 33 l 1
49 37 m 1
 47 37 l 1
 47 39 l 1
 49 39 l 1
 49 37 l 1
63 25 m 1
 61 25 l 1
 61 27 l 1
 63 27 l 1
 63 25 l 1
63 29 m 1
 61 29 l 1
 61 31 l 1
 63 31 l 1
 63 29 l 1
63 33 m 1
 61 33 l 1
 61 35 l 1
 63 35 l 1
 63 33 l 1
63 37 m 1
 61 37 l 1
 61 39 l 1
 63 39 l 1
 63 37 l 1
12 41 m 1
 10 41 l 1
 10 43 l 1
 11 43 l 1
 11 42 l 1
 12 42 l 1
 12 41 l 1
14 41 m 1
 13 41 l 1
 13 42 l 1
 12 42 l 1
 12 43 l 1
 14 43 l 1
 14 41 l 1
17 41 m 1
 15 41 l 1
 15 43 l 1
 17 43 l 1
 17 41 l 1
23 41 m 1
 21 41 l 1
 21 43 l 1
 23 43 l 1
 23 41 l 1
26 41 m 1
 24 41 l 1
 24 43 l 1
 25 43 l 1
 25 42 l 1
 26 42 l 1
 26 41 l 1
28 41 m 1
 27 41 l 1
 27 42 l 1
 26 42 l 1
 26 43 l 1
 28 43 l 1
 28 41 l 1
31 41 m 1
 29 41 l 1
 29 43 l 1
 31 43 l 1
 31 41 l 1
41 41 m 1
 39 41 l 1
 39 43 l 1
 41 43 l 1
 41 41 l 1
44 41 m 1
 42 41 l 1
 42 43 l 1
 43 43 l 1
 43 42 l 1
 44 42 l 1
 44 41 l 1
46 41 m 1
 45 41 l 1
 45 42 l 1
 44 42 l 1
 44 43 l 1
 46 43 l 1
 46 41 l 1
49 41 m 1
 47 41 l 1
 47 43 l 1
 49 43 l 1
 49 41 l 1
63 41 m 1
 61 41 l 1
 61 43 l 1
 63 43 l 1
 63 41 l 1
EndSplineSet
Ligature2: "'liga' Standard Ligatures in Latin lookup 0-1" three one zero two two
LCarets2: 1 0
EndChar

StartChar: custom_3_1_0_2_3
Encoding: 9579 -1 9334
Width: 70
Flags: H
LayerCount: 2
Fore
SplineSet
9 25 m 1
 7 25 l 1
 7 27 l 1
 9 27 l 1
 9 25 l 1
9 29 m 1
 7 29 l 1
 7 31 l 1
 9 31 l 1
 9 29 l 1
9 33 m 1
 7 33 l 1
 7 35 l 1
 9 35 l 1
 9 33 l 1
9 37 m 1
 7 37 l 1
 7 39 l 1
 9 39 l 1
 9 37 l 1
9 41 m 1
 7 41 l 1
 7 43 l 1
 9 43 l 1
 9 41 l 1
12 25 m 1
 10 25 l 1
 10 27 l 1
 11 27 l 1
 11 26 l 1
 12 26 l 1
 12 25 l 1
14 25 m 1
 13 25 l 1
 13 26 l 1
 12 26 l 1
 12 27 l 1
 14 27 l 1
 14 25 l 1
17 25 m 1
 15 25 l 1
 15 27 l 1
 17 27 l 1
 17 25 l 1
17 29 m 1
 15 29 l 1
 15 31 l 1
 17 31 l 1
 17 29 l 1
23 25 m 1
 21 25 l 1
 21 27 l 1
 23 27 l 1
 23 25 l 1
26 25 m 1
 24 25 l 1
 24 27 l 1
 25 27 l 1
 25 26 l 1
 26 26 l 1
 26 25 l 1
23 29 m 1
 21 29 l 1
 21 31 l 1
 23 31 l 1
 23 29 l 1
17 33 m 1
 15 33 l 1
 15 35 l 1
 17 35 l 1
 17 33 l 1
17 37 m 1
 15 37 l 1
 15 39 l 1
 17 39 l 1
 17 37 l 1
23 33 m 1
 21 33 l 1
 21 35 l 1
 23 35 l 1
 23 33 l 1
23 37 m 1
 21 37 l 1
 21 39 l 1
 23 39 l 1
 23 37 l 1
28 25 m 1
 27 25 l 1
 27 26 l 1
 26 26 l 1
 26 27 l 1
 28 27 l 1
 28 25 l 1
31 25 m 1
 29 25 l 1
 29 27 l 1
 31 27 l 1
 31 25 l 1
31 29 m 1
 29 29 l 1
 29 31 l 1
 31 31 l 1
 31 29 l 1
41 25 m 1
 39 25 l 1
 39 27 l 1
 41 27 l 1
 41 25 l 1
36 31 m 1
 34 31 l 1
 34 33 l 1
 36 33 l 1
 36 31 l 1
31 33 m 1
 29 33 l 1
 29 35 l 1
 31 35 l 1
 31 33 l 1
31 37 m 1
 29 37 l 1
 29 39 l 1
 31 39 l 1
 31 37 l 1
36 35 m 1
 34 35 l 1
 34 37 l 1
 36 37 l 1
 36 35 l 1
41 33 m 1
 39 33 l 1
 39 35 l 1
 41 35 l 1
 41 33 l 1
44 25 m 1
 42 25 l 1
 42 27 l 1
 43 27 l 1
 43 26 l 1
 44 26 l 1
 44 25 l 1
46 25 m 1
 45 25 l 1
 45 26 l 1
 44 26 l 1
 44 27 l 1
 46 27 l 1
 46 25 l 1
49 25 m 1
 47 25 l 1
 47 27 l 1
 49 27 l 1
 49 25 l 1
49 29 m 1
 47 29 l 1
 47 31 l 1
 49 31 l 1
 49 29 l 1
43 33 m 1
 42 33 l 1
 42 35 l 1
 44 35 l 1
 44 34 l 1
 43 34 l 1
 43 33 l 1
46 33 m 1
 44 33 l 1
 44 34 l 1
 45 34 l 1
 45 35 l 1
 46 35 l 1
 46 33 l 1
49 33 m 1
 47 33 l 1
 47 35 l 1
 49 35 l 1
 49 33 l 1
49 37 m 1
 47 37 l 1
 47 39 l 1
 49 39 l 1
 49 37 l 1
63 25 m 1
 61 25 l 1
 61 27 l 1
 63 27 l 1
 63 25 l 1
63 29 m 1
 61 29 l 1
 61 31 l 1
 63 31 l 1
 63 29 l 1
63 33 m 1
 61 33 l 1
 61 35 l 1
 63 35 l 1
 63 33 l 1
63 37 m 1
 61 37 l 1
 61 39 l 1
 63 39 l 1
 63 37 l 1
12 41 m 1
 10 41 l 1
 10 43 l 1
 11 43 l 1
 11 42 l 1
 12 42 l 1
 12 41 l 1
14 41 m 1
 13 41 l 1
 13 42 l 1
 12 42 l 1
 12 43 l 1
 14 43 l 1
 14 41 l 1
17 41 m 1
 15 41 l 1
 15 43 l 1
 17 43 l 1
 17 41 l 1
23 41 m 1
 21 41 l 1
 21 43 l 1
 23 43 l 1
 23 41 l 1
26 41 m 1
 24 41 l 1
 24 43 l 1
 25 43 l 1
 25 42 l 1
 26 42 l 1
 26 41 l 1
28 41 m 1
 27 41 l 1
 27 42 l 1
 26 42 l 1
 26 43 l 1
 28 43 l 1
 28 41 l 1
31 41 m 1
 29 41 l 1
 29 43 l 1
 31 43 l 1
 31 41 l 1
41 41 m 1
 39 41 l 1
 39 43 l 1
 41 43 l 1
 41 41 l 1
44 41 m 1
 42 41 l 1
 42 43 l 1
 43 43 l 1
 43 42 l 1
 44 42 l 1
 44 41 l 1
46 41 m 1
 45 41 l 1
 45 42 l 1
 44 42 l 1
 44 43 l 1
 46 43 l 1
 46 41 l 1
49 41 m 1
 47 41 l 1
 47 43 l 1
 49 43 l 1
 49 41 l 1
63 41 m 1
 61 41 l 1
 61 43 l 1
 63 43 l 1
 63 41 l 1
EndSplineSet
Ligature2: "'liga' Standard Ligatures in Latin lookup 0-1" three one zero two three
LCarets2: 1 0
EndChar

StartChar: custom_3_1_0_2_4
Encoding: 9580 -1 9335
Width: 70
Flags: H
LayerCount: 2
Fore
SplineSet
9 25 m 1
 7 25 l 1
 7 27 l 1
 9 27 l 1
 9 25 l 1
9 29 m 1
 7 29 l 1
 7 31 l 1
 9 31 l 1
 9 29 l 1
9 33 m 1
 7 33 l 1
 7 35 l 1
 9 35 l 1
 9 33 l 1
9 37 m 1
 7 37 l 1
 7 39 l 1
 9 39 l 1
 9 37 l 1
9 41 m 1
 7 41 l 1
 7 43 l 1
 9 43 l 1
 9 41 l 1
12 25 m 1
 10 25 l 1
 10 27 l 1
 11 27 l 1
 11 26 l 1
 12 26 l 1
 12 25 l 1
14 25 m 1
 13 25 l 1
 13 26 l 1
 12 26 l 1
 12 27 l 1
 14 27 l 1
 14 25 l 1
17 25 m 1
 15 25 l 1
 15 27 l 1
 17 27 l 1
 17 25 l 1
17 29 m 1
 15 29 l 1
 15 31 l 1
 17 31 l 1
 17 29 l 1
23 25 m 1
 21 25 l 1
 21 27 l 1
 23 27 l 1
 23 25 l 1
26 25 m 1
 24 25 l 1
 24 27 l 1
 25 27 l 1
 25 26 l 1
 26 26 l 1
 26 25 l 1
23 29 m 1
 21 29 l 1
 21 31 l 1
 23 31 l 1
 23 29 l 1
17 33 m 1
 15 33 l 1
 15 35 l 1
 17 35 l 1
 17 33 l 1
17 37 m 1
 15 37 l 1
 15 39 l 1
 17 39 l 1
 17 37 l 1
23 33 m 1
 21 33 l 1
 21 35 l 1
 23 35 l 1
 23 33 l 1
23 37 m 1
 21 37 l 1
 21 39 l 1
 23 39 l 1
 23 37 l 1
28 25 m 1
 27 25 l 1
 27 26 l 1
 26 26 l 1
 26 27 l 1
 28 27 l 1
 28 25 l 1
31 25 m 1
 29 25 l 1
 29 27 l 1
 31 27 l 1
 31 25 l 1
31 29 m 1
 29 29 l 1
 29 31 l 1
 31 31 l 1
 31 29 l 1
41 25 m 1
 39 25 l 1
 39 27 l 1
 41 27 l 1
 41 25 l 1
36 31 m 1
 34 31 l 1
 34 33 l 1
 36 33 l 1
 36 31 l 1
31 33 m 1
 29 33 l 1
 29 35 l 1
 31 35 l 1
 31 33 l 1
31 37 m 1
 29 37 l 1
 29 39 l 1
 31 39 l 1
 31 37 l 1
36 35 m 1
 34 35 l 1
 34 37 l 1
 36 37 l 1
 36 35 l 1
41 33 m 1
 39 33 l 1
 39 35 l 1
 41 35 l 1
 41 33 l 1
44 25 m 1
 42 25 l 1
 42 27 l 1
 43 27 l 1
 43 26 l 1
 44 26 l 1
 44 25 l 1
46 25 m 1
 45 25 l 1
 45 26 l 1
 44 26 l 1
 44 27 l 1
 46 27 l 1
 46 25 l 1
49 25 m 1
 47 25 l 1
 47 27 l 1
 49 27 l 1
 49 25 l 1
49 29 m 1
 47 29 l 1
 47 31 l 1
 49 31 l 1
 49 29 l 1
43 33 m 1
 42 33 l 1
 42 35 l 1
 44 35 l 1
 44 34 l 1
 43 34 l 1
 43 33 l 1
46 33 m 1
 44 33 l 1
 44 34 l 1
 45 34 l 1
 45 35 l 1
 46 35 l 1
 46 33 l 1
49 33 m 1
 47 33 l 1
 47 35 l 1
 49 35 l 1
 49 33 l 1
49 37 m 1
 47 37 l 1
 47 39 l 1
 49 39 l 1
 49 37 l 1
63 25 m 1
 61 25 l 1
 61 27 l 1
 63 27 l 1
 63 25 l 1
63 29 m 1
 61 29 l 1
 61 31 l 1
 63 31 l 1
 63 29 l 1
63 33 m 1
 61 33 l 1
 61 35 l 1
 63 35 l 1
 63 33 l 1
63 37 m 1
 61 37 l 1
 61 39 l 1
 63 39 l 1
 63 37 l 1
12 41 m 1
 10 41 l 1
 10 43 l 1
 11 43 l 1
 11 42 l 1
 12 42 l 1
 12 41 l 1
14 41 m 1
 13 41 l 1
 13 42 l 1
 12 42 l 1
 12 43 l 1
 14 43 l 1
 14 41 l 1
17 41 m 1
 15 41 l 1
 15 43 l 1
 17 43 l 1
 17 41 l 1
23 41 m 1
 21 41 l 1
 21 43 l 1
 23 43 l 1
 23 41 l 1
26 41 m 1
 24 41 l 1
 24 43 l 1
 25 43 l 1
 25 42 l 1
 26 42 l 1
 26 41 l 1
28 41 m 1
 27 41 l 1
 27 42 l 1
 26 42 l 1
 26 43 l 1
 28 43 l 1
 28 41 l 1
31 41 m 1
 29 41 l 1
 29 43 l 1
 31 43 l 1
 31 41 l 1
41 41 m 1
 39 41 l 1
 39 43 l 1
 41 43 l 1
 41 41 l 1
44 41 m 1
 42 41 l 1
 42 43 l 1
 43 43 l 1
 43 42 l 1
 44 42 l 1
 44 41 l 1
46 41 m 1
 45 41 l 1
 45 42 l 1
 44 42 l 1
 44 43 l 1
 46 43 l 1
 46 41 l 1
49 41 m 1
 47 41 l 1
 47 43 l 1
 49 43 l 1
 49 41 l 1
63 41 m 1
 61 41 l 1
 61 43 l 1
 63 43 l 1
 63 41 l 1
EndSplineSet
Ligature2: "'liga' Standard Ligatures in Latin lookup 0-1" three one zero two four
LCarets2: 1 0
EndChar

StartChar: custom_3_1_0_2_5
Encoding: 9581 -1 9336
Width: 70
Flags: H
LayerCount: 2
Fore
SplineSet
9 25 m 1
 7 25 l 1
 7 27 l 1
 9 27 l 1
 9 25 l 1
9 29 m 1
 7 29 l 1
 7 31 l 1
 9 31 l 1
 9 29 l 1
9 33 m 1
 7 33 l 1
 7 35 l 1
 9 35 l 1
 9 33 l 1
9 37 m 1
 7 37 l 1
 7 39 l 1
 9 39 l 1
 9 37 l 1
9 41 m 1
 7 41 l 1
 7 43 l 1
 9 43 l 1
 9 41 l 1
12 25 m 1
 10 25 l 1
 10 27 l 1
 11 27 l 1
 11 26 l 1
 12 26 l 1
 12 25 l 1
14 25 m 1
 13 25 l 1
 13 26 l 1
 12 26 l 1
 12 27 l 1
 14 27 l 1
 14 25 l 1
17 25 m 1
 15 25 l 1
 15 27 l 1
 17 27 l 1
 17 25 l 1
17 29 m 1
 15 29 l 1
 15 31 l 1
 17 31 l 1
 17 29 l 1
23 25 m 1
 21 25 l 1
 21 27 l 1
 23 27 l 1
 23 25 l 1
26 25 m 1
 24 25 l 1
 24 27 l 1
 25 27 l 1
 25 26 l 1
 26 26 l 1
 26 25 l 1
23 29 m 1
 21 29 l 1
 21 31 l 1
 23 31 l 1
 23 29 l 1
17 33 m 1
 15 33 l 1
 15 35 l 1
 17 35 l 1
 17 33 l 1
17 37 m 1
 15 37 l 1
 15 39 l 1
 17 39 l 1
 17 37 l 1
23 33 m 1
 21 33 l 1
 21 35 l 1
 23 35 l 1
 23 33 l 1
23 37 m 1
 21 37 l 1
 21 39 l 1
 23 39 l 1
 23 37 l 1
28 25 m 1
 27 25 l 1
 27 26 l 1
 26 26 l 1
 26 27 l 1
 28 27 l 1
 28 25 l 1
31 25 m 1
 29 25 l 1
 29 27 l 1
 31 27 l 1
 31 25 l 1
31 29 m 1
 29 29 l 1
 29 31 l 1
 31 31 l 1
 31 29 l 1
41 25 m 1
 39 25 l 1
 39 27 l 1
 41 27 l 1
 41 25 l 1
36 31 m 1
 34 31 l 1
 34 33 l 1
 36 33 l 1
 36 31 l 1
31 33 m 1
 29 33 l 1
 29 35 l 1
 31 35 l 1
 31 33 l 1
31 37 m 1
 29 37 l 1
 29 39 l 1
 31 39 l 1
 31 37 l 1
36 35 m 1
 34 35 l 1
 34 37 l 1
 36 37 l 1
 36 35 l 1
41 33 m 1
 39 33 l 1
 39 35 l 1
 41 35 l 1
 41 33 l 1
44 25 m 1
 42 25 l 1
 42 27 l 1
 43 27 l 1
 43 26 l 1
 44 26 l 1
 44 25 l 1
46 25 m 1
 45 25 l 1
 45 26 l 1
 44 26 l 1
 44 27 l 1
 46 27 l 1
 46 25 l 1
49 25 m 1
 47 25 l 1
 47 27 l 1
 49 27 l 1
 49 25 l 1
49 29 m 1
 47 29 l 1
 47 31 l 1
 49 31 l 1
 49 29 l 1
43 33 m 1
 42 33 l 1
 42 35 l 1
 44 35 l 1
 44 34 l 1
 43 34 l 1
 43 33 l 1
46 33 m 1
 44 33 l 1
 44 34 l 1
 45 34 l 1
 45 35 l 1
 46 35 l 1
 46 33 l 1
49 33 m 1
 47 33 l 1
 47 35 l 1
 49 35 l 1
 49 33 l 1
49 37 m 1
 47 37 l 1
 47 39 l 1
 49 39 l 1
 49 37 l 1
63 25 m 1
 61 25 l 1
 61 27 l 1
 63 27 l 1
 63 25 l 1
63 29 m 1
 61 29 l 1
 61 31 l 1
 63 31 l 1
 63 29 l 1
63 33 m 1
 61 33 l 1
 61 35 l 1
 63 35 l 1
 63 33 l 1
63 37 m 1
 61 37 l 1
 61 39 l 1
 63 39 l 1
 63 37 l 1
12 41 m 1
 10 41 l 1
 10 43 l 1
 11 43 l 1
 11 42 l 1
 12 42 l 1
 12 41 l 1
14 41 m 1
 13 41 l 1
 13 42 l 1
 12 42 l 1
 12 43 l 1
 14 43 l 1
 14 41 l 1
17 41 m 1
 15 41 l 1
 15 43 l 1
 17 43 l 1
 17 41 l 1
23 41 m 1
 21 41 l 1
 21 43 l 1
 23 43 l 1
 23 41 l 1
26 41 m 1
 24 41 l 1
 24 43 l 1
 25 43 l 1
 25 42 l 1
 26 42 l 1
 26 41 l 1
28 41 m 1
 27 41 l 1
 27 42 l 1
 26 42 l 1
 26 43 l 1
 28 43 l 1
 28 41 l 1
31 41 m 1
 29 41 l 1
 29 43 l 1
 31 43 l 1
 31 41 l 1
41 41 m 1
 39 41 l 1
 39 43 l 1
 41 43 l 1
 41 41 l 1
44 41 m 1
 42 41 l 1
 42 43 l 1
 43 43 l 1
 43 42 l 1
 44 42 l 1
 44 41 l 1
46 41 m 1
 45 41 l 1
 45 42 l 1
 44 42 l 1
 44 43 l 1
 46 43 l 1
 46 41 l 1
49 41 m 1
 47 41 l 1
 47 43 l 1
 49 43 l 1
 49 41 l 1
63 41 m 1
 61 41 l 1
 61 43 l 1
 63 43 l 1
 63 41 l 1
EndSplineSet
Ligature2: "'liga' Standard Ligatures in Latin lookup 0-1" three one zero two five
LCarets2: 1 0
EndChar

StartChar: custom_3_1_0_2_6
Encoding: 9582 -1 9337
Width: 70
Flags: H
LayerCount: 2
Fore
SplineSet
9 25 m 1
 7 25 l 1
 7 27 l 1
 9 27 l 1
 9 25 l 1
9 29 m 1
 7 29 l 1
 7 31 l 1
 9 31 l 1
 9 29 l 1
9 33 m 1
 7 33 l 1
 7 35 l 1
 9 35 l 1
 9 33 l 1
9 37 m 1
 7 37 l 1
 7 39 l 1
 9 39 l 1
 9 37 l 1
9 41 m 1
 7 41 l 1
 7 43 l 1
 9 43 l 1
 9 41 l 1
12 25 m 1
 10 25 l 1
 10 27 l 1
 11 27 l 1
 11 26 l 1
 12 26 l 1
 12 25 l 1
14 25 m 1
 13 25 l 1
 13 26 l 1
 12 26 l 1
 12 27 l 1
 14 27 l 1
 14 25 l 1
17 25 m 1
 15 25 l 1
 15 27 l 1
 17 27 l 1
 17 25 l 1
17 29 m 1
 15 29 l 1
 15 31 l 1
 17 31 l 1
 17 29 l 1
23 25 m 1
 21 25 l 1
 21 27 l 1
 23 27 l 1
 23 25 l 1
26 25 m 1
 24 25 l 1
 24 27 l 1
 25 27 l 1
 25 26 l 1
 26 26 l 1
 26 25 l 1
23 29 m 1
 21 29 l 1
 21 31 l 1
 23 31 l 1
 23 29 l 1
17 33 m 1
 15 33 l 1
 15 35 l 1
 17 35 l 1
 17 33 l 1
17 37 m 1
 15 37 l 1
 15 39 l 1
 17 39 l 1
 17 37 l 1
23 33 m 1
 21 33 l 1
 21 35 l 1
 23 35 l 1
 23 33 l 1
23 37 m 1
 21 37 l 1
 21 39 l 1
 23 39 l 1
 23 37 l 1
28 25 m 1
 27 25 l 1
 27 26 l 1
 26 26 l 1
 26 27 l 1
 28 27 l 1
 28 25 l 1
31 25 m 1
 29 25 l 1
 29 27 l 1
 31 27 l 1
 31 25 l 1
31 29 m 1
 29 29 l 1
 29 31 l 1
 31 31 l 1
 31 29 l 1
41 25 m 1
 39 25 l 1
 39 27 l 1
 41 27 l 1
 41 25 l 1
36 31 m 1
 34 31 l 1
 34 33 l 1
 36 33 l 1
 36 31 l 1
31 33 m 1
 29 33 l 1
 29 35 l 1
 31 35 l 1
 31 33 l 1
31 37 m 1
 29 37 l 1
 29 39 l 1
 31 39 l 1
 31 37 l 1
36 35 m 1
 34 35 l 1
 34 37 l 1
 36 37 l 1
 36 35 l 1
41 33 m 1
 39 33 l 1
 39 35 l 1
 41 35 l 1
 41 33 l 1
44 25 m 1
 42 25 l 1
 42 27 l 1
 43 27 l 1
 43 26 l 1
 44 26 l 1
 44 25 l 1
46 25 m 1
 45 25 l 1
 45 26 l 1
 44 26 l 1
 44 27 l 1
 46 27 l 1
 46 25 l 1
49 25 m 1
 47 25 l 1
 47 27 l 1
 49 27 l 1
 49 25 l 1
49 29 m 1
 47 29 l 1
 47 31 l 1
 49 31 l 1
 49 29 l 1
43 33 m 1
 42 33 l 1
 42 35 l 1
 44 35 l 1
 44 34 l 1
 43 34 l 1
 43 33 l 1
46 33 m 1
 44 33 l 1
 44 34 l 1
 45 34 l 1
 45 35 l 1
 46 35 l 1
 46 33 l 1
49 33 m 1
 47 33 l 1
 47 35 l 1
 49 35 l 1
 49 33 l 1
49 37 m 1
 47 37 l 1
 47 39 l 1
 49 39 l 1
 49 37 l 1
63 25 m 1
 61 25 l 1
 61 27 l 1
 63 27 l 1
 63 25 l 1
63 29 m 1
 61 29 l 1
 61 31 l 1
 63 31 l 1
 63 29 l 1
63 33 m 1
 61 33 l 1
 61 35 l 1
 63 35 l 1
 63 33 l 1
63 37 m 1
 61 37 l 1
 61 39 l 1
 63 39 l 1
 63 37 l 1
12 41 m 1
 10 41 l 1
 10 43 l 1
 11 43 l 1
 11 42 l 1
 12 42 l 1
 12 41 l 1
14 41 m 1
 13 41 l 1
 13 42 l 1
 12 42 l 1
 12 43 l 1
 14 43 l 1
 14 41 l 1
17 41 m 1
 15 41 l 1
 15 43 l 1
 17 43 l 1
 17 41 l 1
23 41 m 1
 21 41 l 1
 21 43 l 1
 23 43 l 1
 23 41 l 1
26 41 m 1
 24 41 l 1
 24 43 l 1
 25 43 l 1
 25 42 l 1
 26 42 l 1
 26 41 l 1
28 41 m 1
 27 41 l 1
 27 42 l 1
 26 42 l 1
 26 43 l 1
 28 43 l 1
 28 41 l 1
31 41 m 1
 29 41 l 1
 29 43 l 1
 31 43 l 1
 31 41 l 1
41 41 m 1
 39 41 l 1
 39 43 l 1
 41 43 l 1
 41 41 l 1
44 41 m 1
 42 41 l 1
 42 43 l 1
 43 43 l 1
 43 42 l 1
 44 42 l 1
 44 41 l 1
46 41 m 1
 45 41 l 1
 45 42 l 1
 44 42 l 1
 44 43 l 1
 46 43 l 1
 46 41 l 1
49 41 m 1
 47 41 l 1
 47 43 l 1
 49 43 l 1
 49 41 l 1
63 41 m 1
 61 41 l 1
 61 43 l 1
 63 43 l 1
 63 41 l 1
EndSplineSet
Ligature2: "'liga' Standard Ligatures in Latin lookup 0-1" three one zero two six
LCarets2: 1 0
EndChar

StartChar: custom_3_1_0_2_7
Encoding: 9583 -1 9338
Width: 70
Flags: H
LayerCount: 2
Fore
SplineSet
9 25 m 1
 7 25 l 1
 7 27 l 1
 9 27 l 1
 9 25 l 1
9 29 m 1
 7 29 l 1
 7 31 l 1
 9 31 l 1
 9 29 l 1
9 33 m 1
 7 33 l 1
 7 35 l 1
 9 35 l 1
 9 33 l 1
9 37 m 1
 7 37 l 1
 7 39 l 1
 9 39 l 1
 9 37 l 1
9 41 m 1
 7 41 l 1
 7 43 l 1
 9 43 l 1
 9 41 l 1
12 25 m 1
 10 25 l 1
 10 27 l 1
 11 27 l 1
 11 26 l 1
 12 26 l 1
 12 25 l 1
14 25 m 1
 13 25 l 1
 13 26 l 1
 12 26 l 1
 12 27 l 1
 14 27 l 1
 14 25 l 1
17 25 m 1
 15 25 l 1
 15 27 l 1
 17 27 l 1
 17 25 l 1
17 29 m 1
 15 29 l 1
 15 31 l 1
 17 31 l 1
 17 29 l 1
23 25 m 1
 21 25 l 1
 21 27 l 1
 23 27 l 1
 23 25 l 1
26 25 m 1
 24 25 l 1
 24 27 l 1
 25 27 l 1
 25 26 l 1
 26 26 l 1
 26 25 l 1
23 29 m 1
 21 29 l 1
 21 31 l 1
 23 31 l 1
 23 29 l 1
17 33 m 1
 15 33 l 1
 15 35 l 1
 17 35 l 1
 17 33 l 1
17 37 m 1
 15 37 l 1
 15 39 l 1
 17 39 l 1
 17 37 l 1
23 33 m 1
 21 33 l 1
 21 35 l 1
 23 35 l 1
 23 33 l 1
23 37 m 1
 21 37 l 1
 21 39 l 1
 23 39 l 1
 23 37 l 1
28 25 m 1
 27 25 l 1
 27 26 l 1
 26 26 l 1
 26 27 l 1
 28 27 l 1
 28 25 l 1
31 25 m 1
 29 25 l 1
 29 27 l 1
 31 27 l 1
 31 25 l 1
31 29 m 1
 29 29 l 1
 29 31 l 1
 31 31 l 1
 31 29 l 1
41 25 m 1
 39 25 l 1
 39 27 l 1
 41 27 l 1
 41 25 l 1
36 31 m 1
 34 31 l 1
 34 33 l 1
 36 33 l 1
 36 31 l 1
31 33 m 1
 29 33 l 1
 29 35 l 1
 31 35 l 1
 31 33 l 1
31 37 m 1
 29 37 l 1
 29 39 l 1
 31 39 l 1
 31 37 l 1
36 35 m 1
 34 35 l 1
 34 37 l 1
 36 37 l 1
 36 35 l 1
41 33 m 1
 39 33 l 1
 39 35 l 1
 41 35 l 1
 41 33 l 1
44 25 m 1
 42 25 l 1
 42 27 l 1
 43 27 l 1
 43 26 l 1
 44 26 l 1
 44 25 l 1
46 25 m 1
 45 25 l 1
 45 26 l 1
 44 26 l 1
 44 27 l 1
 46 27 l 1
 46 25 l 1
49 25 m 1
 47 25 l 1
 47 27 l 1
 49 27 l 1
 49 25 l 1
49 29 m 1
 47 29 l 1
 47 31 l 1
 49 31 l 1
 49 29 l 1
43 33 m 1
 42 33 l 1
 42 35 l 1
 44 35 l 1
 44 34 l 1
 43 34 l 1
 43 33 l 1
46 33 m 1
 44 33 l 1
 44 34 l 1
 45 34 l 1
 45 35 l 1
 46 35 l 1
 46 33 l 1
49 33 m 1
 47 33 l 1
 47 35 l 1
 49 35 l 1
 49 33 l 1
49 37 m 1
 47 37 l 1
 47 39 l 1
 49 39 l 1
 49 37 l 1
63 25 m 1
 61 25 l 1
 61 27 l 1
 63 27 l 1
 63 25 l 1
63 29 m 1
 61 29 l 1
 61 31 l 1
 63 31 l 1
 63 29 l 1
63 33 m 1
 61 33 l 1
 61 35 l 1
 63 35 l 1
 63 33 l 1
63 37 m 1
 61 37 l 1
 61 39 l 1
 63 39 l 1
 63 37 l 1
12 41 m 1
 10 41 l 1
 10 43 l 1
 11 43 l 1
 11 42 l 1
 12 42 l 1
 12 41 l 1
14 41 m 1
 13 41 l 1
 13 42 l 1
 12 42 l 1
 12 43 l 1
 14 43 l 1
 14 41 l 1
17 41 m 1
 15 41 l 1
 15 43 l 1
 17 43 l 1
 17 41 l 1
23 41 m 1
 21 41 l 1
 21 43 l 1
 23 43 l 1
 23 41 l 1
26 41 m 1
 24 41 l 1
 24 43 l 1
 25 43 l 1
 25 42 l 1
 26 42 l 1
 26 41 l 1
28 41 m 1
 27 41 l 1
 27 42 l 1
 26 42 l 1
 26 43 l 1
 28 43 l 1
 28 41 l 1
31 41 m 1
 29 41 l 1
 29 43 l 1
 31 43 l 1
 31 41 l 1
41 41 m 1
 39 41 l 1
 39 43 l 1
 41 43 l 1
 41 41 l 1
44 41 m 1
 42 41 l 1
 42 43 l 1
 43 43 l 1
 43 42 l 1
 44 42 l 1
 44 41 l 1
46 41 m 1
 45 41 l 1
 45 42 l 1
 44 42 l 1
 44 43 l 1
 46 43 l 1
 46 41 l 1
49 41 m 1
 47 41 l 1
 47 43 l 1
 49 43 l 1
 49 41 l 1
63 41 m 1
 61 41 l 1
 61 43 l 1
 63 43 l 1
 63 41 l 1
EndSplineSet
Ligature2: "'liga' Standard Ligatures in Latin lookup 0-1" three one zero two seven
LCarets2: 1 0
EndChar

StartChar: custom_3_1_0_2_8
Encoding: 9584 -1 9339
Width: 70
Flags: H
LayerCount: 2
Fore
SplineSet
9 25 m 1
 7 25 l 1
 7 27 l 1
 9 27 l 1
 9 25 l 1
9 29 m 1
 7 29 l 1
 7 31 l 1
 9 31 l 1
 9 29 l 1
9 33 m 1
 7 33 l 1
 7 35 l 1
 9 35 l 1
 9 33 l 1
9 37 m 1
 7 37 l 1
 7 39 l 1
 9 39 l 1
 9 37 l 1
9 41 m 1
 7 41 l 1
 7 43 l 1
 9 43 l 1
 9 41 l 1
12 25 m 1
 10 25 l 1
 10 27 l 1
 11 27 l 1
 11 26 l 1
 12 26 l 1
 12 25 l 1
14 25 m 1
 13 25 l 1
 13 26 l 1
 12 26 l 1
 12 27 l 1
 14 27 l 1
 14 25 l 1
17 25 m 1
 15 25 l 1
 15 27 l 1
 17 27 l 1
 17 25 l 1
17 29 m 1
 15 29 l 1
 15 31 l 1
 17 31 l 1
 17 29 l 1
23 25 m 1
 21 25 l 1
 21 27 l 1
 23 27 l 1
 23 25 l 1
26 25 m 1
 24 25 l 1
 24 27 l 1
 25 27 l 1
 25 26 l 1
 26 26 l 1
 26 25 l 1
23 29 m 1
 21 29 l 1
 21 31 l 1
 23 31 l 1
 23 29 l 1
17 33 m 1
 15 33 l 1
 15 35 l 1
 17 35 l 1
 17 33 l 1
17 37 m 1
 15 37 l 1
 15 39 l 1
 17 39 l 1
 17 37 l 1
23 33 m 1
 21 33 l 1
 21 35 l 1
 23 35 l 1
 23 33 l 1
23 37 m 1
 21 37 l 1
 21 39 l 1
 23 39 l 1
 23 37 l 1
28 25 m 1
 27 25 l 1
 27 26 l 1
 26 26 l 1
 26 27 l 1
 28 27 l 1
 28 25 l 1
31 25 m 1
 29 25 l 1
 29 27 l 1
 31 27 l 1
 31 25 l 1
31 29 m 1
 29 29 l 1
 29 31 l 1
 31 31 l 1
 31 29 l 1
41 25 m 1
 39 25 l 1
 39 27 l 1
 41 27 l 1
 41 25 l 1
36 31 m 1
 34 31 l 1
 34 33 l 1
 36 33 l 1
 36 31 l 1
31 33 m 1
 29 33 l 1
 29 35 l 1
 31 35 l 1
 31 33 l 1
31 37 m 1
 29 37 l 1
 29 39 l 1
 31 39 l 1
 31 37 l 1
36 35 m 1
 34 35 l 1
 34 37 l 1
 36 37 l 1
 36 35 l 1
41 33 m 1
 39 33 l 1
 39 35 l 1
 41 35 l 1
 41 33 l 1
44 25 m 1
 42 25 l 1
 42 27 l 1
 43 27 l 1
 43 26 l 1
 44 26 l 1
 44 25 l 1
46 25 m 1
 45 25 l 1
 45 26 l 1
 44 26 l 1
 44 27 l 1
 46 27 l 1
 46 25 l 1
49 25 m 1
 47 25 l 1
 47 27 l 1
 49 27 l 1
 49 25 l 1
49 29 m 1
 47 29 l 1
 47 31 l 1
 49 31 l 1
 49 29 l 1
43 33 m 1
 42 33 l 1
 42 35 l 1
 44 35 l 1
 44 34 l 1
 43 34 l 1
 43 33 l 1
46 33 m 1
 44 33 l 1
 44 34 l 1
 45 34 l 1
 45 35 l 1
 46 35 l 1
 46 33 l 1
49 33 m 1
 47 33 l 1
 47 35 l 1
 49 35 l 1
 49 33 l 1
49 37 m 1
 47 37 l 1
 47 39 l 1
 49 39 l 1
 49 37 l 1
63 25 m 1
 61 25 l 1
 61 27 l 1
 63 27 l 1
 63 25 l 1
63 29 m 1
 61 29 l 1
 61 31 l 1
 63 31 l 1
 63 29 l 1
63 33 m 1
 61 33 l 1
 61 35 l 1
 63 35 l 1
 63 33 l 1
63 37 m 1
 61 37 l 1
 61 39 l 1
 63 39 l 1
 63 37 l 1
12 41 m 1
 10 41 l 1
 10 43 l 1
 11 43 l 1
 11 42 l 1
 12 42 l 1
 12 41 l 1
14 41 m 1
 13 41 l 1
 13 42 l 1
 12 42 l 1
 12 43 l 1
 14 43 l 1
 14 41 l 1
17 41 m 1
 15 41 l 1
 15 43 l 1
 17 43 l 1
 17 41 l 1
23 41 m 1
 21 41 l 1
 21 43 l 1
 23 43 l 1
 23 41 l 1
26 41 m 1
 24 41 l 1
 24 43 l 1
 25 43 l 1
 25 42 l 1
 26 42 l 1
 26 41 l 1
28 41 m 1
 27 41 l 1
 27 42 l 1
 26 42 l 1
 26 43 l 1
 28 43 l 1
 28 41 l 1
31 41 m 1
 29 41 l 1
 29 43 l 1
 31 43 l 1
 31 41 l 1
41 41 m 1
 39 41 l 1
 39 43 l 1
 41 43 l 1
 41 41 l 1
44 41 m 1
 42 41 l 1
 42 43 l 1
 43 43 l 1
 43 42 l 1
 44 42 l 1
 44 41 l 1
46 41 m 1
 45 41 l 1
 45 42 l 1
 44 42 l 1
 44 43 l 1
 46 43 l 1
 46 41 l 1
49 41 m 1
 47 41 l 1
 47 43 l 1
 49 43 l 1
 49 41 l 1
63 41 m 1
 61 41 l 1
 61 43 l 1
 63 43 l 1
 63 41 l 1
EndSplineSet
Ligature2: "'liga' Standard Ligatures in Latin lookup 0-1" three one zero two eight
LCarets2: 1 0
EndChar

StartChar: custom_3_1_0_2_9
Encoding: 9585 -1 9340
Width: 70
Flags: H
LayerCount: 2
Fore
SplineSet
9 25 m 1
 7 25 l 1
 7 27 l 1
 9 27 l 1
 9 25 l 1
9 29 m 1
 7 29 l 1
 7 31 l 1
 9 31 l 1
 9 29 l 1
9 33 m 1
 7 33 l 1
 7 35 l 1
 9 35 l 1
 9 33 l 1
9 37 m 1
 7 37 l 1
 7 39 l 1
 9 39 l 1
 9 37 l 1
9 41 m 1
 7 41 l 1
 7 43 l 1
 9 43 l 1
 9 41 l 1
12 25 m 1
 10 25 l 1
 10 27 l 1
 11 27 l 1
 11 26 l 1
 12 26 l 1
 12 25 l 1
14 25 m 1
 13 25 l 1
 13 26 l 1
 12 26 l 1
 12 27 l 1
 14 27 l 1
 14 25 l 1
17 25 m 1
 15 25 l 1
 15 27 l 1
 17 27 l 1
 17 25 l 1
17 29 m 1
 15 29 l 1
 15 31 l 1
 17 31 l 1
 17 29 l 1
23 25 m 1
 21 25 l 1
 21 27 l 1
 23 27 l 1
 23 25 l 1
26 25 m 1
 24 25 l 1
 24 27 l 1
 25 27 l 1
 25 26 l 1
 26 26 l 1
 26 25 l 1
23 29 m 1
 21 29 l 1
 21 31 l 1
 23 31 l 1
 23 29 l 1
17 33 m 1
 15 33 l 1
 15 35 l 1
 17 35 l 1
 17 33 l 1
17 37 m 1
 15 37 l 1
 15 39 l 1
 17 39 l 1
 17 37 l 1
23 33 m 1
 21 33 l 1
 21 35 l 1
 23 35 l 1
 23 33 l 1
23 37 m 1
 21 37 l 1
 21 39 l 1
 23 39 l 1
 23 37 l 1
28 25 m 1
 27 25 l 1
 27 26 l 1
 26 26 l 1
 26 27 l 1
 28 27 l 1
 28 25 l 1
31 25 m 1
 29 25 l 1
 29 27 l 1
 31 27 l 1
 31 25 l 1
31 29 m 1
 29 29 l 1
 29 31 l 1
 31 31 l 1
 31 29 l 1
41 25 m 1
 39 25 l 1
 39 27 l 1
 41 27 l 1
 41 25 l 1
36 31 m 1
 34 31 l 1
 34 33 l 1
 36 33 l 1
 36 31 l 1
31 33 m 1
 29 33 l 1
 29 35 l 1
 31 35 l 1
 31 33 l 1
31 37 m 1
 29 37 l 1
 29 39 l 1
 31 39 l 1
 31 37 l 1
36 35 m 1
 34 35 l 1
 34 37 l 1
 36 37 l 1
 36 35 l 1
41 33 m 1
 39 33 l 1
 39 35 l 1
 41 35 l 1
 41 33 l 1
44 25 m 1
 42 25 l 1
 42 27 l 1
 43 27 l 1
 43 26 l 1
 44 26 l 1
 44 25 l 1
46 25 m 1
 45 25 l 1
 45 26 l 1
 44 26 l 1
 44 27 l 1
 46 27 l 1
 46 25 l 1
49 25 m 1
 47 25 l 1
 47 27 l 1
 49 27 l 1
 49 25 l 1
49 29 m 1
 47 29 l 1
 47 31 l 1
 49 31 l 1
 49 29 l 1
43 33 m 1
 42 33 l 1
 42 35 l 1
 44 35 l 1
 44 34 l 1
 43 34 l 1
 43 33 l 1
46 33 m 1
 44 33 l 1
 44 34 l 1
 45 34 l 1
 45 35 l 1
 46 35 l 1
 46 33 l 1
49 33 m 1
 47 33 l 1
 47 35 l 1
 49 35 l 1
 49 33 l 1
49 37 m 1
 47 37 l 1
 47 39 l 1
 49 39 l 1
 49 37 l 1
63 25 m 1
 61 25 l 1
 61 27 l 1
 63 27 l 1
 63 25 l 1
63 29 m 1
 61 29 l 1
 61 31 l 1
 63 31 l 1
 63 29 l 1
63 33 m 1
 61 33 l 1
 61 35 l 1
 63 35 l 1
 63 33 l 1
63 37 m 1
 61 37 l 1
 61 39 l 1
 63 39 l 1
 63 37 l 1
12 41 m 1
 10 41 l 1
 10 43 l 1
 11 43 l 1
 11 42 l 1
 12 42 l 1
 12 41 l 1
14 41 m 1
 13 41 l 1
 13 42 l 1
 12 42 l 1
 12 43 l 1
 14 43 l 1
 14 41 l 1
17 41 m 1
 15 41 l 1
 15 43 l 1
 17 43 l 1
 17 41 l 1
23 41 m 1
 21 41 l 1
 21 43 l 1
 23 43 l 1
 23 41 l 1
26 41 m 1
 24 41 l 1
 24 43 l 1
 25 43 l 1
 25 42 l 1
 26 42 l 1
 26 41 l 1
28 41 m 1
 27 41 l 1
 27 42 l 1
 26 42 l 1
 26 43 l 1
 28 43 l 1
 28 41 l 1
31 41 m 1
 29 41 l 1
 29 43 l 1
 31 43 l 1
 31 41 l 1
41 41 m 1
 39 41 l 1
 39 43 l 1
 41 43 l 1
 41 41 l 1
44 41 m 1
 42 41 l 1
 42 43 l 1
 43 43 l 1
 43 42 l 1
 44 42 l 1
 44 41 l 1
46 41 m 1
 45 41 l 1
 45 42 l 1
 44 42 l 1
 44 43 l 1
 46 43 l 1
 46 41 l 1
49 41 m 1
 47 41 l 1
 47 43 l 1
 49 43 l 1
 49 41 l 1
63 41 m 1
 61 41 l 1
 61 43 l 1
 63 43 l 1
 63 41 l 1
EndSplineSet
Ligature2: "'liga' Standard Ligatures in Latin lookup 0-1" three one zero two nine
LCarets2: 1 0
EndChar

StartChar: custom_3_1_0_3_0
Encoding: 9586 -1 9341
Width: 70
Flags: H
LayerCount: 2
Fore
SplineSet
9 25 m 1
 7 25 l 1
 7 27 l 1
 9 27 l 1
 9 25 l 1
9 29 m 1
 7 29 l 1
 7 31 l 1
 9 31 l 1
 9 29 l 1
9 33 m 1
 7 33 l 1
 7 35 l 1
 9 35 l 1
 9 33 l 1
9 37 m 1
 7 37 l 1
 7 39 l 1
 9 39 l 1
 9 37 l 1
9 41 m 1
 7 41 l 1
 7 43 l 1
 9 43 l 1
 9 41 l 1
12 25 m 1
 10 25 l 1
 10 27 l 1
 11 27 l 1
 11 26 l 1
 12 26 l 1
 12 25 l 1
14 25 m 1
 13 25 l 1
 13 26 l 1
 12 26 l 1
 12 27 l 1
 14 27 l 1
 14 25 l 1
17 25 m 1
 15 25 l 1
 15 27 l 1
 17 27 l 1
 17 25 l 1
17 29 m 1
 15 29 l 1
 15 31 l 1
 17 31 l 1
 17 29 l 1
23 25 m 1
 21 25 l 1
 21 27 l 1
 23 27 l 1
 23 25 l 1
26 25 m 1
 24 25 l 1
 24 27 l 1
 25 27 l 1
 25 26 l 1
 26 26 l 1
 26 25 l 1
23 29 m 1
 21 29 l 1
 21 31 l 1
 23 31 l 1
 23 29 l 1
17 33 m 1
 15 33 l 1
 15 35 l 1
 17 35 l 1
 17 33 l 1
17 37 m 1
 15 37 l 1
 15 39 l 1
 17 39 l 1
 17 37 l 1
23 33 m 1
 21 33 l 1
 21 35 l 1
 23 35 l 1
 23 33 l 1
23 37 m 1
 21 37 l 1
 21 39 l 1
 23 39 l 1
 23 37 l 1
28 25 m 1
 27 25 l 1
 27 26 l 1
 26 26 l 1
 26 27 l 1
 28 27 l 1
 28 25 l 1
31 25 m 1
 29 25 l 1
 29 27 l 1
 31 27 l 1
 31 25 l 1
31 29 m 1
 29 29 l 1
 29 31 l 1
 31 31 l 1
 31 29 l 1
41 25 m 1
 39 25 l 1
 39 27 l 1
 41 27 l 1
 41 25 l 1
36 31 m 1
 34 31 l 1
 34 33 l 1
 36 33 l 1
 36 31 l 1
31 33 m 1
 29 33 l 1
 29 35 l 1
 31 35 l 1
 31 33 l 1
31 37 m 1
 29 37 l 1
 29 39 l 1
 31 39 l 1
 31 37 l 1
36 35 m 1
 34 35 l 1
 34 37 l 1
 36 37 l 1
 36 35 l 1
41 33 m 1
 39 33 l 1
 39 35 l 1
 41 35 l 1
 41 33 l 1
44 25 m 1
 42 25 l 1
 42 27 l 1
 43 27 l 1
 43 26 l 1
 44 26 l 1
 44 25 l 1
46 25 m 1
 45 25 l 1
 45 26 l 1
 44 26 l 1
 44 27 l 1
 46 27 l 1
 46 25 l 1
49 25 m 1
 47 25 l 1
 47 27 l 1
 49 27 l 1
 49 25 l 1
49 29 m 1
 47 29 l 1
 47 31 l 1
 49 31 l 1
 49 29 l 1
43 33 m 1
 42 33 l 1
 42 35 l 1
 44 35 l 1
 44 34 l 1
 43 34 l 1
 43 33 l 1
46 33 m 1
 44 33 l 1
 44 34 l 1
 45 34 l 1
 45 35 l 1
 46 35 l 1
 46 33 l 1
49 33 m 1
 47 33 l 1
 47 35 l 1
 49 35 l 1
 49 33 l 1
49 37 m 1
 47 37 l 1
 47 39 l 1
 49 39 l 1
 49 37 l 1
63 25 m 1
 61 25 l 1
 61 27 l 1
 63 27 l 1
 63 25 l 1
63 29 m 1
 61 29 l 1
 61 31 l 1
 63 31 l 1
 63 29 l 1
63 33 m 1
 61 33 l 1
 61 35 l 1
 63 35 l 1
 63 33 l 1
63 37 m 1
 61 37 l 1
 61 39 l 1
 63 39 l 1
 63 37 l 1
12 41 m 1
 10 41 l 1
 10 43 l 1
 11 43 l 1
 11 42 l 1
 12 42 l 1
 12 41 l 1
14 41 m 1
 13 41 l 1
 13 42 l 1
 12 42 l 1
 12 43 l 1
 14 43 l 1
 14 41 l 1
17 41 m 1
 15 41 l 1
 15 43 l 1
 17 43 l 1
 17 41 l 1
23 41 m 1
 21 41 l 1
 21 43 l 1
 23 43 l 1
 23 41 l 1
26 41 m 1
 24 41 l 1
 24 43 l 1
 25 43 l 1
 25 42 l 1
 26 42 l 1
 26 41 l 1
28 41 m 1
 27 41 l 1
 27 42 l 1
 26 42 l 1
 26 43 l 1
 28 43 l 1
 28 41 l 1
31 41 m 1
 29 41 l 1
 29 43 l 1
 31 43 l 1
 31 41 l 1
41 41 m 1
 39 41 l 1
 39 43 l 1
 41 43 l 1
 41 41 l 1
44 41 m 1
 42 41 l 1
 42 43 l 1
 43 43 l 1
 43 42 l 1
 44 42 l 1
 44 41 l 1
46 41 m 1
 45 41 l 1
 45 42 l 1
 44 42 l 1
 44 43 l 1
 46 43 l 1
 46 41 l 1
49 41 m 1
 47 41 l 1
 47 43 l 1
 49 43 l 1
 49 41 l 1
63 41 m 1
 61 41 l 1
 61 43 l 1
 63 43 l 1
 63 41 l 1
EndSplineSet
Ligature2: "'liga' Standard Ligatures in Latin lookup 0-1" three one zero three zero
LCarets2: 1 0
EndChar

StartChar: custom_3_1_0_3_1
Encoding: 9587 -1 9342
Width: 70
Flags: H
LayerCount: 2
Fore
SplineSet
9 25 m 1
 7 25 l 1
 7 27 l 1
 9 27 l 1
 9 25 l 1
9 29 m 1
 7 29 l 1
 7 31 l 1
 9 31 l 1
 9 29 l 1
9 33 m 1
 7 33 l 1
 7 35 l 1
 9 35 l 1
 9 33 l 1
9 37 m 1
 7 37 l 1
 7 39 l 1
 9 39 l 1
 9 37 l 1
9 41 m 1
 7 41 l 1
 7 43 l 1
 9 43 l 1
 9 41 l 1
12 25 m 1
 10 25 l 1
 10 27 l 1
 11 27 l 1
 11 26 l 1
 12 26 l 1
 12 25 l 1
14 25 m 1
 13 25 l 1
 13 26 l 1
 12 26 l 1
 12 27 l 1
 14 27 l 1
 14 25 l 1
17 25 m 1
 15 25 l 1
 15 27 l 1
 17 27 l 1
 17 25 l 1
17 29 m 1
 15 29 l 1
 15 31 l 1
 17 31 l 1
 17 29 l 1
23 25 m 1
 21 25 l 1
 21 27 l 1
 23 27 l 1
 23 25 l 1
26 25 m 1
 24 25 l 1
 24 27 l 1
 25 27 l 1
 25 26 l 1
 26 26 l 1
 26 25 l 1
23 29 m 1
 21 29 l 1
 21 31 l 1
 23 31 l 1
 23 29 l 1
17 33 m 1
 15 33 l 1
 15 35 l 1
 17 35 l 1
 17 33 l 1
17 37 m 1
 15 37 l 1
 15 39 l 1
 17 39 l 1
 17 37 l 1
23 33 m 1
 21 33 l 1
 21 35 l 1
 23 35 l 1
 23 33 l 1
23 37 m 1
 21 37 l 1
 21 39 l 1
 23 39 l 1
 23 37 l 1
28 25 m 1
 27 25 l 1
 27 26 l 1
 26 26 l 1
 26 27 l 1
 28 27 l 1
 28 25 l 1
31 25 m 1
 29 25 l 1
 29 27 l 1
 31 27 l 1
 31 25 l 1
31 29 m 1
 29 29 l 1
 29 31 l 1
 31 31 l 1
 31 29 l 1
41 25 m 1
 39 25 l 1
 39 27 l 1
 41 27 l 1
 41 25 l 1
36 31 m 1
 34 31 l 1
 34 33 l 1
 36 33 l 1
 36 31 l 1
31 33 m 1
 29 33 l 1
 29 35 l 1
 31 35 l 1
 31 33 l 1
31 37 m 1
 29 37 l 1
 29 39 l 1
 31 39 l 1
 31 37 l 1
36 35 m 1
 34 35 l 1
 34 37 l 1
 36 37 l 1
 36 35 l 1
41 33 m 1
 39 33 l 1
 39 35 l 1
 41 35 l 1
 41 33 l 1
44 25 m 1
 42 25 l 1
 42 27 l 1
 43 27 l 1
 43 26 l 1
 44 26 l 1
 44 25 l 1
46 25 m 1
 45 25 l 1
 45 26 l 1
 44 26 l 1
 44 27 l 1
 46 27 l 1
 46 25 l 1
49 25 m 1
 47 25 l 1
 47 27 l 1
 49 27 l 1
 49 25 l 1
49 29 m 1
 47 29 l 1
 47 31 l 1
 49 31 l 1
 49 29 l 1
43 33 m 1
 42 33 l 1
 42 35 l 1
 44 35 l 1
 44 34 l 1
 43 34 l 1
 43 33 l 1
46 33 m 1
 44 33 l 1
 44 34 l 1
 45 34 l 1
 45 35 l 1
 46 35 l 1
 46 33 l 1
49 33 m 1
 47 33 l 1
 47 35 l 1
 49 35 l 1
 49 33 l 1
49 37 m 1
 47 37 l 1
 47 39 l 1
 49 39 l 1
 49 37 l 1
63 25 m 1
 61 25 l 1
 61 27 l 1
 63 27 l 1
 63 25 l 1
63 29 m 1
 61 29 l 1
 61 31 l 1
 63 31 l 1
 63 29 l 1
63 33 m 1
 61 33 l 1
 61 35 l 1
 63 35 l 1
 63 33 l 1
63 37 m 1
 61 37 l 1
 61 39 l 1
 63 39 l 1
 63 37 l 1
12 41 m 1
 10 41 l 1
 10 43 l 1
 11 43 l 1
 11 42 l 1
 12 42 l 1
 12 41 l 1
14 41 m 1
 13 41 l 1
 13 42 l 1
 12 42 l 1
 12 43 l 1
 14 43 l 1
 14 41 l 1
17 41 m 1
 15 41 l 1
 15 43 l 1
 17 43 l 1
 17 41 l 1
23 41 m 1
 21 41 l 1
 21 43 l 1
 23 43 l 1
 23 41 l 1
26 41 m 1
 24 41 l 1
 24 43 l 1
 25 43 l 1
 25 42 l 1
 26 42 l 1
 26 41 l 1
28 41 m 1
 27 41 l 1
 27 42 l 1
 26 42 l 1
 26 43 l 1
 28 43 l 1
 28 41 l 1
31 41 m 1
 29 41 l 1
 29 43 l 1
 31 43 l 1
 31 41 l 1
41 41 m 1
 39 41 l 1
 39 43 l 1
 41 43 l 1
 41 41 l 1
44 41 m 1
 42 41 l 1
 42 43 l 1
 43 43 l 1
 43 42 l 1
 44 42 l 1
 44 41 l 1
46 41 m 1
 45 41 l 1
 45 42 l 1
 44 42 l 1
 44 43 l 1
 46 43 l 1
 46 41 l 1
49 41 m 1
 47 41 l 1
 47 43 l 1
 49 43 l 1
 49 41 l 1
63 41 m 1
 61 41 l 1
 61 43 l 1
 63 43 l 1
 63 41 l 1
EndSplineSet
Ligature2: "'liga' Standard Ligatures in Latin lookup 0-1" three one zero three one
LCarets2: 1 0
EndChar

StartChar: custom_3_1_0_3_2
Encoding: 9588 -1 9343
Width: 70
Flags: H
LayerCount: 2
Fore
SplineSet
9 25 m 1
 7 25 l 1
 7 27 l 1
 9 27 l 1
 9 25 l 1
9 29 m 1
 7 29 l 1
 7 31 l 1
 9 31 l 1
 9 29 l 1
9 33 m 1
 7 33 l 1
 7 35 l 1
 9 35 l 1
 9 33 l 1
9 37 m 1
 7 37 l 1
 7 39 l 1
 9 39 l 1
 9 37 l 1
9 41 m 1
 7 41 l 1
 7 43 l 1
 9 43 l 1
 9 41 l 1
12 25 m 1
 10 25 l 1
 10 27 l 1
 11 27 l 1
 11 26 l 1
 12 26 l 1
 12 25 l 1
14 25 m 1
 13 25 l 1
 13 26 l 1
 12 26 l 1
 12 27 l 1
 14 27 l 1
 14 25 l 1
17 25 m 1
 15 25 l 1
 15 27 l 1
 17 27 l 1
 17 25 l 1
17 29 m 1
 15 29 l 1
 15 31 l 1
 17 31 l 1
 17 29 l 1
23 25 m 1
 21 25 l 1
 21 27 l 1
 23 27 l 1
 23 25 l 1
26 25 m 1
 24 25 l 1
 24 27 l 1
 25 27 l 1
 25 26 l 1
 26 26 l 1
 26 25 l 1
23 29 m 1
 21 29 l 1
 21 31 l 1
 23 31 l 1
 23 29 l 1
17 33 m 1
 15 33 l 1
 15 35 l 1
 17 35 l 1
 17 33 l 1
17 37 m 1
 15 37 l 1
 15 39 l 1
 17 39 l 1
 17 37 l 1
23 33 m 1
 21 33 l 1
 21 35 l 1
 23 35 l 1
 23 33 l 1
23 37 m 1
 21 37 l 1
 21 39 l 1
 23 39 l 1
 23 37 l 1
28 25 m 1
 27 25 l 1
 27 26 l 1
 26 26 l 1
 26 27 l 1
 28 27 l 1
 28 25 l 1
31 25 m 1
 29 25 l 1
 29 27 l 1
 31 27 l 1
 31 25 l 1
31 29 m 1
 29 29 l 1
 29 31 l 1
 31 31 l 1
 31 29 l 1
41 25 m 1
 39 25 l 1
 39 27 l 1
 41 27 l 1
 41 25 l 1
36 31 m 1
 34 31 l 1
 34 33 l 1
 36 33 l 1
 36 31 l 1
31 33 m 1
 29 33 l 1
 29 35 l 1
 31 35 l 1
 31 33 l 1
31 37 m 1
 29 37 l 1
 29 39 l 1
 31 39 l 1
 31 37 l 1
36 35 m 1
 34 35 l 1
 34 37 l 1
 36 37 l 1
 36 35 l 1
41 33 m 1
 39 33 l 1
 39 35 l 1
 41 35 l 1
 41 33 l 1
44 25 m 1
 42 25 l 1
 42 27 l 1
 43 27 l 1
 43 26 l 1
 44 26 l 1
 44 25 l 1
46 25 m 1
 45 25 l 1
 45 26 l 1
 44 26 l 1
 44 27 l 1
 46 27 l 1
 46 25 l 1
49 25 m 1
 47 25 l 1
 47 27 l 1
 49 27 l 1
 49 25 l 1
49 29 m 1
 47 29 l 1
 47 31 l 1
 49 31 l 1
 49 29 l 1
43 33 m 1
 42 33 l 1
 42 35 l 1
 44 35 l 1
 44 34 l 1
 43 34 l 1
 43 33 l 1
46 33 m 1
 44 33 l 1
 44 34 l 1
 45 34 l 1
 45 35 l 1
 46 35 l 1
 46 33 l 1
49 33 m 1
 47 33 l 1
 47 35 l 1
 49 35 l 1
 49 33 l 1
49 37 m 1
 47 37 l 1
 47 39 l 1
 49 39 l 1
 49 37 l 1
63 25 m 1
 61 25 l 1
 61 27 l 1
 63 27 l 1
 63 25 l 1
63 29 m 1
 61 29 l 1
 61 31 l 1
 63 31 l 1
 63 29 l 1
63 33 m 1
 61 33 l 1
 61 35 l 1
 63 35 l 1
 63 33 l 1
63 37 m 1
 61 37 l 1
 61 39 l 1
 63 39 l 1
 63 37 l 1
12 41 m 1
 10 41 l 1
 10 43 l 1
 11 43 l 1
 11 42 l 1
 12 42 l 1
 12 41 l 1
14 41 m 1
 13 41 l 1
 13 42 l 1
 12 42 l 1
 12 43 l 1
 14 43 l 1
 14 41 l 1
17 41 m 1
 15 41 l 1
 15 43 l 1
 17 43 l 1
 17 41 l 1
23 41 m 1
 21 41 l 1
 21 43 l 1
 23 43 l 1
 23 41 l 1
26 41 m 1
 24 41 l 1
 24 43 l 1
 25 43 l 1
 25 42 l 1
 26 42 l 1
 26 41 l 1
28 41 m 1
 27 41 l 1
 27 42 l 1
 26 42 l 1
 26 43 l 1
 28 43 l 1
 28 41 l 1
31 41 m 1
 29 41 l 1
 29 43 l 1
 31 43 l 1
 31 41 l 1
41 41 m 1
 39 41 l 1
 39 43 l 1
 41 43 l 1
 41 41 l 1
44 41 m 1
 42 41 l 1
 42 43 l 1
 43 43 l 1
 43 42 l 1
 44 42 l 1
 44 41 l 1
46 41 m 1
 45 41 l 1
 45 42 l 1
 44 42 l 1
 44 43 l 1
 46 43 l 1
 46 41 l 1
49 41 m 1
 47 41 l 1
 47 43 l 1
 49 43 l 1
 49 41 l 1
63 41 m 1
 61 41 l 1
 61 43 l 1
 63 43 l 1
 63 41 l 1
EndSplineSet
Ligature2: "'liga' Standard Ligatures in Latin lookup 0-1" three one zero three two
LCarets2: 1 0
EndChar

StartChar: custom_3_1_0_3_3
Encoding: 9589 -1 9344
Width: 70
Flags: H
LayerCount: 2
Fore
SplineSet
9 25 m 1
 7 25 l 1
 7 27 l 1
 9 27 l 1
 9 25 l 1
9 29 m 1
 7 29 l 1
 7 31 l 1
 9 31 l 1
 9 29 l 1
9 33 m 1
 7 33 l 1
 7 35 l 1
 9 35 l 1
 9 33 l 1
9 37 m 1
 7 37 l 1
 7 39 l 1
 9 39 l 1
 9 37 l 1
9 41 m 1
 7 41 l 1
 7 43 l 1
 9 43 l 1
 9 41 l 1
12 25 m 1
 10 25 l 1
 10 27 l 1
 11 27 l 1
 11 26 l 1
 12 26 l 1
 12 25 l 1
14 25 m 1
 13 25 l 1
 13 26 l 1
 12 26 l 1
 12 27 l 1
 14 27 l 1
 14 25 l 1
17 25 m 1
 15 25 l 1
 15 27 l 1
 17 27 l 1
 17 25 l 1
17 29 m 1
 15 29 l 1
 15 31 l 1
 17 31 l 1
 17 29 l 1
23 25 m 1
 21 25 l 1
 21 27 l 1
 23 27 l 1
 23 25 l 1
26 25 m 1
 24 25 l 1
 24 27 l 1
 25 27 l 1
 25 26 l 1
 26 26 l 1
 26 25 l 1
23 29 m 1
 21 29 l 1
 21 31 l 1
 23 31 l 1
 23 29 l 1
17 33 m 1
 15 33 l 1
 15 35 l 1
 17 35 l 1
 17 33 l 1
17 37 m 1
 15 37 l 1
 15 39 l 1
 17 39 l 1
 17 37 l 1
23 33 m 1
 21 33 l 1
 21 35 l 1
 23 35 l 1
 23 33 l 1
23 37 m 1
 21 37 l 1
 21 39 l 1
 23 39 l 1
 23 37 l 1
28 25 m 1
 27 25 l 1
 27 26 l 1
 26 26 l 1
 26 27 l 1
 28 27 l 1
 28 25 l 1
31 25 m 1
 29 25 l 1
 29 27 l 1
 31 27 l 1
 31 25 l 1
31 29 m 1
 29 29 l 1
 29 31 l 1
 31 31 l 1
 31 29 l 1
41 25 m 1
 39 25 l 1
 39 27 l 1
 41 27 l 1
 41 25 l 1
36 31 m 1
 34 31 l 1
 34 33 l 1
 36 33 l 1
 36 31 l 1
31 33 m 1
 29 33 l 1
 29 35 l 1
 31 35 l 1
 31 33 l 1
31 37 m 1
 29 37 l 1
 29 39 l 1
 31 39 l 1
 31 37 l 1
36 35 m 1
 34 35 l 1
 34 37 l 1
 36 37 l 1
 36 35 l 1
41 33 m 1
 39 33 l 1
 39 35 l 1
 41 35 l 1
 41 33 l 1
44 25 m 1
 42 25 l 1
 42 27 l 1
 43 27 l 1
 43 26 l 1
 44 26 l 1
 44 25 l 1
46 25 m 1
 45 25 l 1
 45 26 l 1
 44 26 l 1
 44 27 l 1
 46 27 l 1
 46 25 l 1
49 25 m 1
 47 25 l 1
 47 27 l 1
 49 27 l 1
 49 25 l 1
49 29 m 1
 47 29 l 1
 47 31 l 1
 49 31 l 1
 49 29 l 1
43 33 m 1
 42 33 l 1
 42 35 l 1
 44 35 l 1
 44 34 l 1
 43 34 l 1
 43 33 l 1
46 33 m 1
 44 33 l 1
 44 34 l 1
 45 34 l 1
 45 35 l 1
 46 35 l 1
 46 33 l 1
49 33 m 1
 47 33 l 1
 47 35 l 1
 49 35 l 1
 49 33 l 1
49 37 m 1
 47 37 l 1
 47 39 l 1
 49 39 l 1
 49 37 l 1
63 25 m 1
 61 25 l 1
 61 27 l 1
 63 27 l 1
 63 25 l 1
63 29 m 1
 61 29 l 1
 61 31 l 1
 63 31 l 1
 63 29 l 1
63 33 m 1
 61 33 l 1
 61 35 l 1
 63 35 l 1
 63 33 l 1
63 37 m 1
 61 37 l 1
 61 39 l 1
 63 39 l 1
 63 37 l 1
12 41 m 1
 10 41 l 1
 10 43 l 1
 11 43 l 1
 11 42 l 1
 12 42 l 1
 12 41 l 1
14 41 m 1
 13 41 l 1
 13 42 l 1
 12 42 l 1
 12 43 l 1
 14 43 l 1
 14 41 l 1
17 41 m 1
 15 41 l 1
 15 43 l 1
 17 43 l 1
 17 41 l 1
23 41 m 1
 21 41 l 1
 21 43 l 1
 23 43 l 1
 23 41 l 1
26 41 m 1
 24 41 l 1
 24 43 l 1
 25 43 l 1
 25 42 l 1
 26 42 l 1
 26 41 l 1
28 41 m 1
 27 41 l 1
 27 42 l 1
 26 42 l 1
 26 43 l 1
 28 43 l 1
 28 41 l 1
31 41 m 1
 29 41 l 1
 29 43 l 1
 31 43 l 1
 31 41 l 1
41 41 m 1
 39 41 l 1
 39 43 l 1
 41 43 l 1
 41 41 l 1
44 41 m 1
 42 41 l 1
 42 43 l 1
 43 43 l 1
 43 42 l 1
 44 42 l 1
 44 41 l 1
46 41 m 1
 45 41 l 1
 45 42 l 1
 44 42 l 1
 44 43 l 1
 46 43 l 1
 46 41 l 1
49 41 m 1
 47 41 l 1
 47 43 l 1
 49 43 l 1
 49 41 l 1
63 41 m 1
 61 41 l 1
 61 43 l 1
 63 43 l 1
 63 41 l 1
EndSplineSet
Ligature2: "'liga' Standard Ligatures in Latin lookup 0-1" three one zero three three
LCarets2: 1 0
EndChar

StartChar: custom_3_1_0_3_4
Encoding: 9590 -1 9345
Width: 70
Flags: H
LayerCount: 2
Fore
SplineSet
9 25 m 1
 7 25 l 1
 7 27 l 1
 9 27 l 1
 9 25 l 1
9 29 m 1
 7 29 l 1
 7 31 l 1
 9 31 l 1
 9 29 l 1
9 33 m 1
 7 33 l 1
 7 35 l 1
 9 35 l 1
 9 33 l 1
9 37 m 1
 7 37 l 1
 7 39 l 1
 9 39 l 1
 9 37 l 1
9 41 m 1
 7 41 l 1
 7 43 l 1
 9 43 l 1
 9 41 l 1
12 25 m 1
 10 25 l 1
 10 27 l 1
 11 27 l 1
 11 26 l 1
 12 26 l 1
 12 25 l 1
14 25 m 1
 13 25 l 1
 13 26 l 1
 12 26 l 1
 12 27 l 1
 14 27 l 1
 14 25 l 1
17 25 m 1
 15 25 l 1
 15 27 l 1
 17 27 l 1
 17 25 l 1
17 29 m 1
 15 29 l 1
 15 31 l 1
 17 31 l 1
 17 29 l 1
23 25 m 1
 21 25 l 1
 21 27 l 1
 23 27 l 1
 23 25 l 1
26 25 m 1
 24 25 l 1
 24 27 l 1
 25 27 l 1
 25 26 l 1
 26 26 l 1
 26 25 l 1
23 29 m 1
 21 29 l 1
 21 31 l 1
 23 31 l 1
 23 29 l 1
17 33 m 1
 15 33 l 1
 15 35 l 1
 17 35 l 1
 17 33 l 1
17 37 m 1
 15 37 l 1
 15 39 l 1
 17 39 l 1
 17 37 l 1
23 33 m 1
 21 33 l 1
 21 35 l 1
 23 35 l 1
 23 33 l 1
23 37 m 1
 21 37 l 1
 21 39 l 1
 23 39 l 1
 23 37 l 1
28 25 m 1
 27 25 l 1
 27 26 l 1
 26 26 l 1
 26 27 l 1
 28 27 l 1
 28 25 l 1
31 25 m 1
 29 25 l 1
 29 27 l 1
 31 27 l 1
 31 25 l 1
31 29 m 1
 29 29 l 1
 29 31 l 1
 31 31 l 1
 31 29 l 1
41 25 m 1
 39 25 l 1
 39 27 l 1
 41 27 l 1
 41 25 l 1
36 31 m 1
 34 31 l 1
 34 33 l 1
 36 33 l 1
 36 31 l 1
31 33 m 1
 29 33 l 1
 29 35 l 1
 31 35 l 1
 31 33 l 1
31 37 m 1
 29 37 l 1
 29 39 l 1
 31 39 l 1
 31 37 l 1
36 35 m 1
 34 35 l 1
 34 37 l 1
 36 37 l 1
 36 35 l 1
41 33 m 1
 39 33 l 1
 39 35 l 1
 41 35 l 1
 41 33 l 1
44 25 m 1
 42 25 l 1
 42 27 l 1
 43 27 l 1
 43 26 l 1
 44 26 l 1
 44 25 l 1
46 25 m 1
 45 25 l 1
 45 26 l 1
 44 26 l 1
 44 27 l 1
 46 27 l 1
 46 25 l 1
49 25 m 1
 47 25 l 1
 47 27 l 1
 49 27 l 1
 49 25 l 1
49 29 m 1
 47 29 l 1
 47 31 l 1
 49 31 l 1
 49 29 l 1
43 33 m 1
 42 33 l 1
 42 35 l 1
 44 35 l 1
 44 34 l 1
 43 34 l 1
 43 33 l 1
46 33 m 1
 44 33 l 1
 44 34 l 1
 45 34 l 1
 45 35 l 1
 46 35 l 1
 46 33 l 1
49 33 m 1
 47 33 l 1
 47 35 l 1
 49 35 l 1
 49 33 l 1
49 37 m 1
 47 37 l 1
 47 39 l 1
 49 39 l 1
 49 37 l 1
63 25 m 1
 61 25 l 1
 61 27 l 1
 63 27 l 1
 63 25 l 1
63 29 m 1
 61 29 l 1
 61 31 l 1
 63 31 l 1
 63 29 l 1
63 33 m 1
 61 33 l 1
 61 35 l 1
 63 35 l 1
 63 33 l 1
63 37 m 1
 61 37 l 1
 61 39 l 1
 63 39 l 1
 63 37 l 1
12 41 m 1
 10 41 l 1
 10 43 l 1
 11 43 l 1
 11 42 l 1
 12 42 l 1
 12 41 l 1
14 41 m 1
 13 41 l 1
 13 42 l 1
 12 42 l 1
 12 43 l 1
 14 43 l 1
 14 41 l 1
17 41 m 1
 15 41 l 1
 15 43 l 1
 17 43 l 1
 17 41 l 1
23 41 m 1
 21 41 l 1
 21 43 l 1
 23 43 l 1
 23 41 l 1
26 41 m 1
 24 41 l 1
 24 43 l 1
 25 43 l 1
 25 42 l 1
 26 42 l 1
 26 41 l 1
28 41 m 1
 27 41 l 1
 27 42 l 1
 26 42 l 1
 26 43 l 1
 28 43 l 1
 28 41 l 1
31 41 m 1
 29 41 l 1
 29 43 l 1
 31 43 l 1
 31 41 l 1
41 41 m 1
 39 41 l 1
 39 43 l 1
 41 43 l 1
 41 41 l 1
44 41 m 1
 42 41 l 1
 42 43 l 1
 43 43 l 1
 43 42 l 1
 44 42 l 1
 44 41 l 1
46 41 m 1
 45 41 l 1
 45 42 l 1
 44 42 l 1
 44 43 l 1
 46 43 l 1
 46 41 l 1
49 41 m 1
 47 41 l 1
 47 43 l 1
 49 43 l 1
 49 41 l 1
63 41 m 1
 61 41 l 1
 61 43 l 1
 63 43 l 1
 63 41 l 1
EndSplineSet
Ligature2: "'liga' Standard Ligatures in Latin lookup 0-1" three one zero three four
LCarets2: 1 0
EndChar

StartChar: custom_3_1_0_3_5
Encoding: 9591 -1 9346
Width: 70
Flags: H
LayerCount: 2
Fore
SplineSet
9 25 m 1
 7 25 l 1
 7 27 l 1
 9 27 l 1
 9 25 l 1
9 29 m 1
 7 29 l 1
 7 31 l 1
 9 31 l 1
 9 29 l 1
9 33 m 1
 7 33 l 1
 7 35 l 1
 9 35 l 1
 9 33 l 1
9 37 m 1
 7 37 l 1
 7 39 l 1
 9 39 l 1
 9 37 l 1
9 41 m 1
 7 41 l 1
 7 43 l 1
 9 43 l 1
 9 41 l 1
12 25 m 1
 10 25 l 1
 10 27 l 1
 11 27 l 1
 11 26 l 1
 12 26 l 1
 12 25 l 1
14 25 m 1
 13 25 l 1
 13 26 l 1
 12 26 l 1
 12 27 l 1
 14 27 l 1
 14 25 l 1
17 25 m 1
 15 25 l 1
 15 27 l 1
 17 27 l 1
 17 25 l 1
17 29 m 1
 15 29 l 1
 15 31 l 1
 17 31 l 1
 17 29 l 1
23 25 m 1
 21 25 l 1
 21 27 l 1
 23 27 l 1
 23 25 l 1
26 25 m 1
 24 25 l 1
 24 27 l 1
 25 27 l 1
 25 26 l 1
 26 26 l 1
 26 25 l 1
23 29 m 1
 21 29 l 1
 21 31 l 1
 23 31 l 1
 23 29 l 1
17 33 m 1
 15 33 l 1
 15 35 l 1
 17 35 l 1
 17 33 l 1
17 37 m 1
 15 37 l 1
 15 39 l 1
 17 39 l 1
 17 37 l 1
23 33 m 1
 21 33 l 1
 21 35 l 1
 23 35 l 1
 23 33 l 1
23 37 m 1
 21 37 l 1
 21 39 l 1
 23 39 l 1
 23 37 l 1
28 25 m 1
 27 25 l 1
 27 26 l 1
 26 26 l 1
 26 27 l 1
 28 27 l 1
 28 25 l 1
31 25 m 1
 29 25 l 1
 29 27 l 1
 31 27 l 1
 31 25 l 1
31 29 m 1
 29 29 l 1
 29 31 l 1
 31 31 l 1
 31 29 l 1
41 25 m 1
 39 25 l 1
 39 27 l 1
 41 27 l 1
 41 25 l 1
36 31 m 1
 34 31 l 1
 34 33 l 1
 36 33 l 1
 36 31 l 1
31 33 m 1
 29 33 l 1
 29 35 l 1
 31 35 l 1
 31 33 l 1
31 37 m 1
 29 37 l 1
 29 39 l 1
 31 39 l 1
 31 37 l 1
36 35 m 1
 34 35 l 1
 34 37 l 1
 36 37 l 1
 36 35 l 1
41 33 m 1
 39 33 l 1
 39 35 l 1
 41 35 l 1
 41 33 l 1
44 25 m 1
 42 25 l 1
 42 27 l 1
 43 27 l 1
 43 26 l 1
 44 26 l 1
 44 25 l 1
46 25 m 1
 45 25 l 1
 45 26 l 1
 44 26 l 1
 44 27 l 1
 46 27 l 1
 46 25 l 1
49 25 m 1
 47 25 l 1
 47 27 l 1
 49 27 l 1
 49 25 l 1
49 29 m 1
 47 29 l 1
 47 31 l 1
 49 31 l 1
 49 29 l 1
43 33 m 1
 42 33 l 1
 42 35 l 1
 44 35 l 1
 44 34 l 1
 43 34 l 1
 43 33 l 1
46 33 m 1
 44 33 l 1
 44 34 l 1
 45 34 l 1
 45 35 l 1
 46 35 l 1
 46 33 l 1
49 33 m 1
 47 33 l 1
 47 35 l 1
 49 35 l 1
 49 33 l 1
49 37 m 1
 47 37 l 1
 47 39 l 1
 49 39 l 1
 49 37 l 1
63 25 m 1
 61 25 l 1
 61 27 l 1
 63 27 l 1
 63 25 l 1
63 29 m 1
 61 29 l 1
 61 31 l 1
 63 31 l 1
 63 29 l 1
63 33 m 1
 61 33 l 1
 61 35 l 1
 63 35 l 1
 63 33 l 1
63 37 m 1
 61 37 l 1
 61 39 l 1
 63 39 l 1
 63 37 l 1
12 41 m 1
 10 41 l 1
 10 43 l 1
 11 43 l 1
 11 42 l 1
 12 42 l 1
 12 41 l 1
14 41 m 1
 13 41 l 1
 13 42 l 1
 12 42 l 1
 12 43 l 1
 14 43 l 1
 14 41 l 1
17 41 m 1
 15 41 l 1
 15 43 l 1
 17 43 l 1
 17 41 l 1
23 41 m 1
 21 41 l 1
 21 43 l 1
 23 43 l 1
 23 41 l 1
26 41 m 1
 24 41 l 1
 24 43 l 1
 25 43 l 1
 25 42 l 1
 26 42 l 1
 26 41 l 1
28 41 m 1
 27 41 l 1
 27 42 l 1
 26 42 l 1
 26 43 l 1
 28 43 l 1
 28 41 l 1
31 41 m 1
 29 41 l 1
 29 43 l 1
 31 43 l 1
 31 41 l 1
41 41 m 1
 39 41 l 1
 39 43 l 1
 41 43 l 1
 41 41 l 1
44 41 m 1
 42 41 l 1
 42 43 l 1
 43 43 l 1
 43 42 l 1
 44 42 l 1
 44 41 l 1
46 41 m 1
 45 41 l 1
 45 42 l 1
 44 42 l 1
 44 43 l 1
 46 43 l 1
 46 41 l 1
49 41 m 1
 47 41 l 1
 47 43 l 1
 49 43 l 1
 49 41 l 1
63 41 m 1
 61 41 l 1
 61 43 l 1
 63 43 l 1
 63 41 l 1
EndSplineSet
Ligature2: "'liga' Standard Ligatures in Latin lookup 0-1" three one zero three five
LCarets2: 1 0
EndChar

StartChar: custom_3_1_0_3_6
Encoding: 9592 -1 9347
Width: 70
Flags: H
LayerCount: 2
Fore
SplineSet
9 25 m 1
 7 25 l 1
 7 27 l 1
 9 27 l 1
 9 25 l 1
9 29 m 1
 7 29 l 1
 7 31 l 1
 9 31 l 1
 9 29 l 1
9 33 m 1
 7 33 l 1
 7 35 l 1
 9 35 l 1
 9 33 l 1
9 37 m 1
 7 37 l 1
 7 39 l 1
 9 39 l 1
 9 37 l 1
9 41 m 1
 7 41 l 1
 7 43 l 1
 9 43 l 1
 9 41 l 1
12 25 m 1
 10 25 l 1
 10 27 l 1
 11 27 l 1
 11 26 l 1
 12 26 l 1
 12 25 l 1
14 25 m 1
 13 25 l 1
 13 26 l 1
 12 26 l 1
 12 27 l 1
 14 27 l 1
 14 25 l 1
17 25 m 1
 15 25 l 1
 15 27 l 1
 17 27 l 1
 17 25 l 1
17 29 m 1
 15 29 l 1
 15 31 l 1
 17 31 l 1
 17 29 l 1
23 25 m 1
 21 25 l 1
 21 27 l 1
 23 27 l 1
 23 25 l 1
26 25 m 1
 24 25 l 1
 24 27 l 1
 25 27 l 1
 25 26 l 1
 26 26 l 1
 26 25 l 1
23 29 m 1
 21 29 l 1
 21 31 l 1
 23 31 l 1
 23 29 l 1
17 33 m 1
 15 33 l 1
 15 35 l 1
 17 35 l 1
 17 33 l 1
17 37 m 1
 15 37 l 1
 15 39 l 1
 17 39 l 1
 17 37 l 1
23 33 m 1
 21 33 l 1
 21 35 l 1
 23 35 l 1
 23 33 l 1
23 37 m 1
 21 37 l 1
 21 39 l 1
 23 39 l 1
 23 37 l 1
28 25 m 1
 27 25 l 1
 27 26 l 1
 26 26 l 1
 26 27 l 1
 28 27 l 1
 28 25 l 1
31 25 m 1
 29 25 l 1
 29 27 l 1
 31 27 l 1
 31 25 l 1
31 29 m 1
 29 29 l 1
 29 31 l 1
 31 31 l 1
 31 29 l 1
41 25 m 1
 39 25 l 1
 39 27 l 1
 41 27 l 1
 41 25 l 1
36 31 m 1
 34 31 l 1
 34 33 l 1
 36 33 l 1
 36 31 l 1
31 33 m 1
 29 33 l 1
 29 35 l 1
 31 35 l 1
 31 33 l 1
31 37 m 1
 29 37 l 1
 29 39 l 1
 31 39 l 1
 31 37 l 1
36 35 m 1
 34 35 l 1
 34 37 l 1
 36 37 l 1
 36 35 l 1
41 33 m 1
 39 33 l 1
 39 35 l 1
 41 35 l 1
 41 33 l 1
44 25 m 1
 42 25 l 1
 42 27 l 1
 43 27 l 1
 43 26 l 1
 44 26 l 1
 44 25 l 1
46 25 m 1
 45 25 l 1
 45 26 l 1
 44 26 l 1
 44 27 l 1
 46 27 l 1
 46 25 l 1
49 25 m 1
 47 25 l 1
 47 27 l 1
 49 27 l 1
 49 25 l 1
49 29 m 1
 47 29 l 1
 47 31 l 1
 49 31 l 1
 49 29 l 1
43 33 m 1
 42 33 l 1
 42 35 l 1
 44 35 l 1
 44 34 l 1
 43 34 l 1
 43 33 l 1
46 33 m 1
 44 33 l 1
 44 34 l 1
 45 34 l 1
 45 35 l 1
 46 35 l 1
 46 33 l 1
49 33 m 1
 47 33 l 1
 47 35 l 1
 49 35 l 1
 49 33 l 1
49 37 m 1
 47 37 l 1
 47 39 l 1
 49 39 l 1
 49 37 l 1
63 25 m 1
 61 25 l 1
 61 27 l 1
 63 27 l 1
 63 25 l 1
63 29 m 1
 61 29 l 1
 61 31 l 1
 63 31 l 1
 63 29 l 1
63 33 m 1
 61 33 l 1
 61 35 l 1
 63 35 l 1
 63 33 l 1
63 37 m 1
 61 37 l 1
 61 39 l 1
 63 39 l 1
 63 37 l 1
12 41 m 1
 10 41 l 1
 10 43 l 1
 11 43 l 1
 11 42 l 1
 12 42 l 1
 12 41 l 1
14 41 m 1
 13 41 l 1
 13 42 l 1
 12 42 l 1
 12 43 l 1
 14 43 l 1
 14 41 l 1
17 41 m 1
 15 41 l 1
 15 43 l 1
 17 43 l 1
 17 41 l 1
23 41 m 1
 21 41 l 1
 21 43 l 1
 23 43 l 1
 23 41 l 1
26 41 m 1
 24 41 l 1
 24 43 l 1
 25 43 l 1
 25 42 l 1
 26 42 l 1
 26 41 l 1
28 41 m 1
 27 41 l 1
 27 42 l 1
 26 42 l 1
 26 43 l 1
 28 43 l 1
 28 41 l 1
31 41 m 1
 29 41 l 1
 29 43 l 1
 31 43 l 1
 31 41 l 1
41 41 m 1
 39 41 l 1
 39 43 l 1
 41 43 l 1
 41 41 l 1
44 41 m 1
 42 41 l 1
 42 43 l 1
 43 43 l 1
 43 42 l 1
 44 42 l 1
 44 41 l 1
46 41 m 1
 45 41 l 1
 45 42 l 1
 44 42 l 1
 44 43 l 1
 46 43 l 1
 46 41 l 1
49 41 m 1
 47 41 l 1
 47 43 l 1
 49 43 l 1
 49 41 l 1
63 41 m 1
 61 41 l 1
 61 43 l 1
 63 43 l 1
 63 41 l 1
EndSplineSet
Ligature2: "'liga' Standard Ligatures in Latin lookup 0-1" three one zero three six
LCarets2: 1 0
EndChar

StartChar: custom_3_1_0_3_7
Encoding: 9593 -1 9348
Width: 70
Flags: H
LayerCount: 2
Fore
SplineSet
9 25 m 1
 7 25 l 1
 7 27 l 1
 9 27 l 1
 9 25 l 1
9 29 m 1
 7 29 l 1
 7 31 l 1
 9 31 l 1
 9 29 l 1
9 33 m 1
 7 33 l 1
 7 35 l 1
 9 35 l 1
 9 33 l 1
9 37 m 1
 7 37 l 1
 7 39 l 1
 9 39 l 1
 9 37 l 1
9 41 m 1
 7 41 l 1
 7 43 l 1
 9 43 l 1
 9 41 l 1
12 25 m 1
 10 25 l 1
 10 27 l 1
 11 27 l 1
 11 26 l 1
 12 26 l 1
 12 25 l 1
14 25 m 1
 13 25 l 1
 13 26 l 1
 12 26 l 1
 12 27 l 1
 14 27 l 1
 14 25 l 1
17 25 m 1
 15 25 l 1
 15 27 l 1
 17 27 l 1
 17 25 l 1
17 29 m 1
 15 29 l 1
 15 31 l 1
 17 31 l 1
 17 29 l 1
23 25 m 1
 21 25 l 1
 21 27 l 1
 23 27 l 1
 23 25 l 1
26 25 m 1
 24 25 l 1
 24 27 l 1
 25 27 l 1
 25 26 l 1
 26 26 l 1
 26 25 l 1
23 29 m 1
 21 29 l 1
 21 31 l 1
 23 31 l 1
 23 29 l 1
17 33 m 1
 15 33 l 1
 15 35 l 1
 17 35 l 1
 17 33 l 1
17 37 m 1
 15 37 l 1
 15 39 l 1
 17 39 l 1
 17 37 l 1
23 33 m 1
 21 33 l 1
 21 35 l 1
 23 35 l 1
 23 33 l 1
23 37 m 1
 21 37 l 1
 21 39 l 1
 23 39 l 1
 23 37 l 1
28 25 m 1
 27 25 l 1
 27 26 l 1
 26 26 l 1
 26 27 l 1
 28 27 l 1
 28 25 l 1
31 25 m 1
 29 25 l 1
 29 27 l 1
 31 27 l 1
 31 25 l 1
31 29 m 1
 29 29 l 1
 29 31 l 1
 31 31 l 1
 31 29 l 1
41 25 m 1
 39 25 l 1
 39 27 l 1
 41 27 l 1
 41 25 l 1
36 31 m 1
 34 31 l 1
 34 33 l 1
 36 33 l 1
 36 31 l 1
31 33 m 1
 29 33 l 1
 29 35 l 1
 31 35 l 1
 31 33 l 1
31 37 m 1
 29 37 l 1
 29 39 l 1
 31 39 l 1
 31 37 l 1
36 35 m 1
 34 35 l 1
 34 37 l 1
 36 37 l 1
 36 35 l 1
41 33 m 1
 39 33 l 1
 39 35 l 1
 41 35 l 1
 41 33 l 1
44 25 m 1
 42 25 l 1
 42 27 l 1
 43 27 l 1
 43 26 l 1
 44 26 l 1
 44 25 l 1
46 25 m 1
 45 25 l 1
 45 26 l 1
 44 26 l 1
 44 27 l 1
 46 27 l 1
 46 25 l 1
49 25 m 1
 47 25 l 1
 47 27 l 1
 49 27 l 1
 49 25 l 1
49 29 m 1
 47 29 l 1
 47 31 l 1
 49 31 l 1
 49 29 l 1
43 33 m 1
 42 33 l 1
 42 35 l 1
 44 35 l 1
 44 34 l 1
 43 34 l 1
 43 33 l 1
46 33 m 1
 44 33 l 1
 44 34 l 1
 45 34 l 1
 45 35 l 1
 46 35 l 1
 46 33 l 1
49 33 m 1
 47 33 l 1
 47 35 l 1
 49 35 l 1
 49 33 l 1
49 37 m 1
 47 37 l 1
 47 39 l 1
 49 39 l 1
 49 37 l 1
63 25 m 1
 61 25 l 1
 61 27 l 1
 63 27 l 1
 63 25 l 1
63 29 m 1
 61 29 l 1
 61 31 l 1
 63 31 l 1
 63 29 l 1
63 33 m 1
 61 33 l 1
 61 35 l 1
 63 35 l 1
 63 33 l 1
63 37 m 1
 61 37 l 1
 61 39 l 1
 63 39 l 1
 63 37 l 1
12 41 m 1
 10 41 l 1
 10 43 l 1
 11 43 l 1
 11 42 l 1
 12 42 l 1
 12 41 l 1
14 41 m 1
 13 41 l 1
 13 42 l 1
 12 42 l 1
 12 43 l 1
 14 43 l 1
 14 41 l 1
17 41 m 1
 15 41 l 1
 15 43 l 1
 17 43 l 1
 17 41 l 1
23 41 m 1
 21 41 l 1
 21 43 l 1
 23 43 l 1
 23 41 l 1
26 41 m 1
 24 41 l 1
 24 43 l 1
 25 43 l 1
 25 42 l 1
 26 42 l 1
 26 41 l 1
28 41 m 1
 27 41 l 1
 27 42 l 1
 26 42 l 1
 26 43 l 1
 28 43 l 1
 28 41 l 1
31 41 m 1
 29 41 l 1
 29 43 l 1
 31 43 l 1
 31 41 l 1
41 41 m 1
 39 41 l 1
 39 43 l 1
 41 43 l 1
 41 41 l 1
44 41 m 1
 42 41 l 1
 42 43 l 1
 43 43 l 1
 43 42 l 1
 44 42 l 1
 44 41 l 1
46 41 m 1
 45 41 l 1
 45 42 l 1
 44 42 l 1
 44 43 l 1
 46 43 l 1
 46 41 l 1
49 41 m 1
 47 41 l 1
 47 43 l 1
 49 43 l 1
 49 41 l 1
63 41 m 1
 61 41 l 1
 61 43 l 1
 63 43 l 1
 63 41 l 1
EndSplineSet
Ligature2: "'liga' Standard Ligatures in Latin lookup 0-1" three one zero three seven
LCarets2: 1 0
EndChar

StartChar: custom_3_1_0_3_8
Encoding: 9594 -1 9349
Width: 70
Flags: H
LayerCount: 2
Fore
SplineSet
9 25 m 1
 7 25 l 1
 7 27 l 1
 9 27 l 1
 9 25 l 1
9 29 m 1
 7 29 l 1
 7 31 l 1
 9 31 l 1
 9 29 l 1
9 33 m 1
 7 33 l 1
 7 35 l 1
 9 35 l 1
 9 33 l 1
9 37 m 1
 7 37 l 1
 7 39 l 1
 9 39 l 1
 9 37 l 1
9 41 m 1
 7 41 l 1
 7 43 l 1
 9 43 l 1
 9 41 l 1
12 25 m 1
 10 25 l 1
 10 27 l 1
 11 27 l 1
 11 26 l 1
 12 26 l 1
 12 25 l 1
14 25 m 1
 13 25 l 1
 13 26 l 1
 12 26 l 1
 12 27 l 1
 14 27 l 1
 14 25 l 1
17 25 m 1
 15 25 l 1
 15 27 l 1
 17 27 l 1
 17 25 l 1
17 29 m 1
 15 29 l 1
 15 31 l 1
 17 31 l 1
 17 29 l 1
23 25 m 1
 21 25 l 1
 21 27 l 1
 23 27 l 1
 23 25 l 1
26 25 m 1
 24 25 l 1
 24 27 l 1
 25 27 l 1
 25 26 l 1
 26 26 l 1
 26 25 l 1
23 29 m 1
 21 29 l 1
 21 31 l 1
 23 31 l 1
 23 29 l 1
17 33 m 1
 15 33 l 1
 15 35 l 1
 17 35 l 1
 17 33 l 1
17 37 m 1
 15 37 l 1
 15 39 l 1
 17 39 l 1
 17 37 l 1
23 33 m 1
 21 33 l 1
 21 35 l 1
 23 35 l 1
 23 33 l 1
23 37 m 1
 21 37 l 1
 21 39 l 1
 23 39 l 1
 23 37 l 1
28 25 m 1
 27 25 l 1
 27 26 l 1
 26 26 l 1
 26 27 l 1
 28 27 l 1
 28 25 l 1
31 25 m 1
 29 25 l 1
 29 27 l 1
 31 27 l 1
 31 25 l 1
31 29 m 1
 29 29 l 1
 29 31 l 1
 31 31 l 1
 31 29 l 1
41 25 m 1
 39 25 l 1
 39 27 l 1
 41 27 l 1
 41 25 l 1
36 31 m 1
 34 31 l 1
 34 33 l 1
 36 33 l 1
 36 31 l 1
31 33 m 1
 29 33 l 1
 29 35 l 1
 31 35 l 1
 31 33 l 1
31 37 m 1
 29 37 l 1
 29 39 l 1
 31 39 l 1
 31 37 l 1
36 35 m 1
 34 35 l 1
 34 37 l 1
 36 37 l 1
 36 35 l 1
41 33 m 1
 39 33 l 1
 39 35 l 1
 41 35 l 1
 41 33 l 1
44 25 m 1
 42 25 l 1
 42 27 l 1
 43 27 l 1
 43 26 l 1
 44 26 l 1
 44 25 l 1
46 25 m 1
 45 25 l 1
 45 26 l 1
 44 26 l 1
 44 27 l 1
 46 27 l 1
 46 25 l 1
49 25 m 1
 47 25 l 1
 47 27 l 1
 49 27 l 1
 49 25 l 1
49 29 m 1
 47 29 l 1
 47 31 l 1
 49 31 l 1
 49 29 l 1
43 33 m 1
 42 33 l 1
 42 35 l 1
 44 35 l 1
 44 34 l 1
 43 34 l 1
 43 33 l 1
46 33 m 1
 44 33 l 1
 44 34 l 1
 45 34 l 1
 45 35 l 1
 46 35 l 1
 46 33 l 1
49 33 m 1
 47 33 l 1
 47 35 l 1
 49 35 l 1
 49 33 l 1
49 37 m 1
 47 37 l 1
 47 39 l 1
 49 39 l 1
 49 37 l 1
63 25 m 1
 61 25 l 1
 61 27 l 1
 63 27 l 1
 63 25 l 1
63 29 m 1
 61 29 l 1
 61 31 l 1
 63 31 l 1
 63 29 l 1
63 33 m 1
 61 33 l 1
 61 35 l 1
 63 35 l 1
 63 33 l 1
63 37 m 1
 61 37 l 1
 61 39 l 1
 63 39 l 1
 63 37 l 1
12 41 m 1
 10 41 l 1
 10 43 l 1
 11 43 l 1
 11 42 l 1
 12 42 l 1
 12 41 l 1
14 41 m 1
 13 41 l 1
 13 42 l 1
 12 42 l 1
 12 43 l 1
 14 43 l 1
 14 41 l 1
17 41 m 1
 15 41 l 1
 15 43 l 1
 17 43 l 1
 17 41 l 1
23 41 m 1
 21 41 l 1
 21 43 l 1
 23 43 l 1
 23 41 l 1
26 41 m 1
 24 41 l 1
 24 43 l 1
 25 43 l 1
 25 42 l 1
 26 42 l 1
 26 41 l 1
28 41 m 1
 27 41 l 1
 27 42 l 1
 26 42 l 1
 26 43 l 1
 28 43 l 1
 28 41 l 1
31 41 m 1
 29 41 l 1
 29 43 l 1
 31 43 l 1
 31 41 l 1
41 41 m 1
 39 41 l 1
 39 43 l 1
 41 43 l 1
 41 41 l 1
44 41 m 1
 42 41 l 1
 42 43 l 1
 43 43 l 1
 43 42 l 1
 44 42 l 1
 44 41 l 1
46 41 m 1
 45 41 l 1
 45 42 l 1
 44 42 l 1
 44 43 l 1
 46 43 l 1
 46 41 l 1
49 41 m 1
 47 41 l 1
 47 43 l 1
 49 43 l 1
 49 41 l 1
63 41 m 1
 61 41 l 1
 61 43 l 1
 63 43 l 1
 63 41 l 1
EndSplineSet
Ligature2: "'liga' Standard Ligatures in Latin lookup 0-1" three one zero three eight
LCarets2: 1 0
EndChar

StartChar: custom_3_1_0_3_9
Encoding: 9595 -1 9350
Width: 70
Flags: H
LayerCount: 2
Fore
SplineSet
9 25 m 1
 7 25 l 1
 7 27 l 1
 9 27 l 1
 9 25 l 1
9 29 m 1
 7 29 l 1
 7 31 l 1
 9 31 l 1
 9 29 l 1
9 33 m 1
 7 33 l 1
 7 35 l 1
 9 35 l 1
 9 33 l 1
9 37 m 1
 7 37 l 1
 7 39 l 1
 9 39 l 1
 9 37 l 1
9 41 m 1
 7 41 l 1
 7 43 l 1
 9 43 l 1
 9 41 l 1
12 25 m 1
 10 25 l 1
 10 27 l 1
 11 27 l 1
 11 26 l 1
 12 26 l 1
 12 25 l 1
14 25 m 1
 13 25 l 1
 13 26 l 1
 12 26 l 1
 12 27 l 1
 14 27 l 1
 14 25 l 1
17 25 m 1
 15 25 l 1
 15 27 l 1
 17 27 l 1
 17 25 l 1
17 29 m 1
 15 29 l 1
 15 31 l 1
 17 31 l 1
 17 29 l 1
23 25 m 1
 21 25 l 1
 21 27 l 1
 23 27 l 1
 23 25 l 1
26 25 m 1
 24 25 l 1
 24 27 l 1
 25 27 l 1
 25 26 l 1
 26 26 l 1
 26 25 l 1
23 29 m 1
 21 29 l 1
 21 31 l 1
 23 31 l 1
 23 29 l 1
17 33 m 1
 15 33 l 1
 15 35 l 1
 17 35 l 1
 17 33 l 1
17 37 m 1
 15 37 l 1
 15 39 l 1
 17 39 l 1
 17 37 l 1
23 33 m 1
 21 33 l 1
 21 35 l 1
 23 35 l 1
 23 33 l 1
23 37 m 1
 21 37 l 1
 21 39 l 1
 23 39 l 1
 23 37 l 1
28 25 m 1
 27 25 l 1
 27 26 l 1
 26 26 l 1
 26 27 l 1
 28 27 l 1
 28 25 l 1
31 25 m 1
 29 25 l 1
 29 27 l 1
 31 27 l 1
 31 25 l 1
31 29 m 1
 29 29 l 1
 29 31 l 1
 31 31 l 1
 31 29 l 1
41 25 m 1
 39 25 l 1
 39 27 l 1
 41 27 l 1
 41 25 l 1
36 31 m 1
 34 31 l 1
 34 33 l 1
 36 33 l 1
 36 31 l 1
31 33 m 1
 29 33 l 1
 29 35 l 1
 31 35 l 1
 31 33 l 1
31 37 m 1
 29 37 l 1
 29 39 l 1
 31 39 l 1
 31 37 l 1
36 35 m 1
 34 35 l 1
 34 37 l 1
 36 37 l 1
 36 35 l 1
41 33 m 1
 39 33 l 1
 39 35 l 1
 41 35 l 1
 41 33 l 1
44 25 m 1
 42 25 l 1
 42 27 l 1
 43 27 l 1
 43 26 l 1
 44 26 l 1
 44 25 l 1
46 25 m 1
 45 25 l 1
 45 26 l 1
 44 26 l 1
 44 27 l 1
 46 27 l 1
 46 25 l 1
49 25 m 1
 47 25 l 1
 47 27 l 1
 49 27 l 1
 49 25 l 1
49 29 m 1
 47 29 l 1
 47 31 l 1
 49 31 l 1
 49 29 l 1
43 33 m 1
 42 33 l 1
 42 35 l 1
 44 35 l 1
 44 34 l 1
 43 34 l 1
 43 33 l 1
46 33 m 1
 44 33 l 1
 44 34 l 1
 45 34 l 1
 45 35 l 1
 46 35 l 1
 46 33 l 1
49 33 m 1
 47 33 l 1
 47 35 l 1
 49 35 l 1
 49 33 l 1
49 37 m 1
 47 37 l 1
 47 39 l 1
 49 39 l 1
 49 37 l 1
63 25 m 1
 61 25 l 1
 61 27 l 1
 63 27 l 1
 63 25 l 1
63 29 m 1
 61 29 l 1
 61 31 l 1
 63 31 l 1
 63 29 l 1
63 33 m 1
 61 33 l 1
 61 35 l 1
 63 35 l 1
 63 33 l 1
63 37 m 1
 61 37 l 1
 61 39 l 1
 63 39 l 1
 63 37 l 1
12 41 m 1
 10 41 l 1
 10 43 l 1
 11 43 l 1
 11 42 l 1
 12 42 l 1
 12 41 l 1
14 41 m 1
 13 41 l 1
 13 42 l 1
 12 42 l 1
 12 43 l 1
 14 43 l 1
 14 41 l 1
17 41 m 1
 15 41 l 1
 15 43 l 1
 17 43 l 1
 17 41 l 1
23 41 m 1
 21 41 l 1
 21 43 l 1
 23 43 l 1
 23 41 l 1
26 41 m 1
 24 41 l 1
 24 43 l 1
 25 43 l 1
 25 42 l 1
 26 42 l 1
 26 41 l 1
28 41 m 1
 27 41 l 1
 27 42 l 1
 26 42 l 1
 26 43 l 1
 28 43 l 1
 28 41 l 1
31 41 m 1
 29 41 l 1
 29 43 l 1
 31 43 l 1
 31 41 l 1
41 41 m 1
 39 41 l 1
 39 43 l 1
 41 43 l 1
 41 41 l 1
44 41 m 1
 42 41 l 1
 42 43 l 1
 43 43 l 1
 43 42 l 1
 44 42 l 1
 44 41 l 1
46 41 m 1
 45 41 l 1
 45 42 l 1
 44 42 l 1
 44 43 l 1
 46 43 l 1
 46 41 l 1
49 41 m 1
 47 41 l 1
 47 43 l 1
 49 43 l 1
 49 41 l 1
63 41 m 1
 61 41 l 1
 61 43 l 1
 63 43 l 1
 63 41 l 1
EndSplineSet
Ligature2: "'liga' Standard Ligatures in Latin lookup 0-1" three one zero three nine
LCarets2: 1 0
EndChar

StartChar: custom_3_1_0_4_0
Encoding: 9596 -1 9351
Width: 70
Flags: H
LayerCount: 2
Fore
SplineSet
9 25 m 1
 7 25 l 1
 7 27 l 1
 9 27 l 1
 9 25 l 1
9 29 m 1
 7 29 l 1
 7 31 l 1
 9 31 l 1
 9 29 l 1
9 33 m 1
 7 33 l 1
 7 35 l 1
 9 35 l 1
 9 33 l 1
9 37 m 1
 7 37 l 1
 7 39 l 1
 9 39 l 1
 9 37 l 1
9 41 m 1
 7 41 l 1
 7 43 l 1
 9 43 l 1
 9 41 l 1
12 25 m 1
 10 25 l 1
 10 27 l 1
 11 27 l 1
 11 26 l 1
 12 26 l 1
 12 25 l 1
14 25 m 1
 13 25 l 1
 13 26 l 1
 12 26 l 1
 12 27 l 1
 14 27 l 1
 14 25 l 1
17 25 m 1
 15 25 l 1
 15 27 l 1
 17 27 l 1
 17 25 l 1
17 29 m 1
 15 29 l 1
 15 31 l 1
 17 31 l 1
 17 29 l 1
23 25 m 1
 21 25 l 1
 21 27 l 1
 23 27 l 1
 23 25 l 1
26 25 m 1
 24 25 l 1
 24 27 l 1
 25 27 l 1
 25 26 l 1
 26 26 l 1
 26 25 l 1
23 29 m 1
 21 29 l 1
 21 31 l 1
 23 31 l 1
 23 29 l 1
17 33 m 1
 15 33 l 1
 15 35 l 1
 17 35 l 1
 17 33 l 1
17 37 m 1
 15 37 l 1
 15 39 l 1
 17 39 l 1
 17 37 l 1
23 33 m 1
 21 33 l 1
 21 35 l 1
 23 35 l 1
 23 33 l 1
23 37 m 1
 21 37 l 1
 21 39 l 1
 23 39 l 1
 23 37 l 1
28 25 m 1
 27 25 l 1
 27 26 l 1
 26 26 l 1
 26 27 l 1
 28 27 l 1
 28 25 l 1
31 25 m 1
 29 25 l 1
 29 27 l 1
 31 27 l 1
 31 25 l 1
31 29 m 1
 29 29 l 1
 29 31 l 1
 31 31 l 1
 31 29 l 1
41 25 m 1
 39 25 l 1
 39 27 l 1
 41 27 l 1
 41 25 l 1
36 31 m 1
 34 31 l 1
 34 33 l 1
 36 33 l 1
 36 31 l 1
31 33 m 1
 29 33 l 1
 29 35 l 1
 31 35 l 1
 31 33 l 1
31 37 m 1
 29 37 l 1
 29 39 l 1
 31 39 l 1
 31 37 l 1
36 35 m 1
 34 35 l 1
 34 37 l 1
 36 37 l 1
 36 35 l 1
41 33 m 1
 39 33 l 1
 39 35 l 1
 41 35 l 1
 41 33 l 1
44 25 m 1
 42 25 l 1
 42 27 l 1
 43 27 l 1
 43 26 l 1
 44 26 l 1
 44 25 l 1
46 25 m 1
 45 25 l 1
 45 26 l 1
 44 26 l 1
 44 27 l 1
 46 27 l 1
 46 25 l 1
49 25 m 1
 47 25 l 1
 47 27 l 1
 49 27 l 1
 49 25 l 1
49 29 m 1
 47 29 l 1
 47 31 l 1
 49 31 l 1
 49 29 l 1
43 33 m 1
 42 33 l 1
 42 35 l 1
 44 35 l 1
 44 34 l 1
 43 34 l 1
 43 33 l 1
46 33 m 1
 44 33 l 1
 44 34 l 1
 45 34 l 1
 45 35 l 1
 46 35 l 1
 46 33 l 1
49 33 m 1
 47 33 l 1
 47 35 l 1
 49 35 l 1
 49 33 l 1
49 37 m 1
 47 37 l 1
 47 39 l 1
 49 39 l 1
 49 37 l 1
63 25 m 1
 61 25 l 1
 61 27 l 1
 63 27 l 1
 63 25 l 1
63 29 m 1
 61 29 l 1
 61 31 l 1
 63 31 l 1
 63 29 l 1
63 33 m 1
 61 33 l 1
 61 35 l 1
 63 35 l 1
 63 33 l 1
63 37 m 1
 61 37 l 1
 61 39 l 1
 63 39 l 1
 63 37 l 1
12 41 m 1
 10 41 l 1
 10 43 l 1
 11 43 l 1
 11 42 l 1
 12 42 l 1
 12 41 l 1
14 41 m 1
 13 41 l 1
 13 42 l 1
 12 42 l 1
 12 43 l 1
 14 43 l 1
 14 41 l 1
17 41 m 1
 15 41 l 1
 15 43 l 1
 17 43 l 1
 17 41 l 1
23 41 m 1
 21 41 l 1
 21 43 l 1
 23 43 l 1
 23 41 l 1
26 41 m 1
 24 41 l 1
 24 43 l 1
 25 43 l 1
 25 42 l 1
 26 42 l 1
 26 41 l 1
28 41 m 1
 27 41 l 1
 27 42 l 1
 26 42 l 1
 26 43 l 1
 28 43 l 1
 28 41 l 1
31 41 m 1
 29 41 l 1
 29 43 l 1
 31 43 l 1
 31 41 l 1
41 41 m 1
 39 41 l 1
 39 43 l 1
 41 43 l 1
 41 41 l 1
44 41 m 1
 42 41 l 1
 42 43 l 1
 43 43 l 1
 43 42 l 1
 44 42 l 1
 44 41 l 1
46 41 m 1
 45 41 l 1
 45 42 l 1
 44 42 l 1
 44 43 l 1
 46 43 l 1
 46 41 l 1
49 41 m 1
 47 41 l 1
 47 43 l 1
 49 43 l 1
 49 41 l 1
63 41 m 1
 61 41 l 1
 61 43 l 1
 63 43 l 1
 63 41 l 1
EndSplineSet
Ligature2: "'liga' Standard Ligatures in Latin lookup 0-1" three one zero four zero
LCarets2: 1 0
EndChar

StartChar: custom_3_1_0_4_1
Encoding: 9597 -1 9352
Width: 70
Flags: H
LayerCount: 2
Fore
SplineSet
9 25 m 1
 7 25 l 1
 7 27 l 1
 9 27 l 1
 9 25 l 1
9 29 m 1
 7 29 l 1
 7 31 l 1
 9 31 l 1
 9 29 l 1
9 33 m 1
 7 33 l 1
 7 35 l 1
 9 35 l 1
 9 33 l 1
9 37 m 1
 7 37 l 1
 7 39 l 1
 9 39 l 1
 9 37 l 1
9 41 m 1
 7 41 l 1
 7 43 l 1
 9 43 l 1
 9 41 l 1
12 25 m 1
 10 25 l 1
 10 27 l 1
 11 27 l 1
 11 26 l 1
 12 26 l 1
 12 25 l 1
14 25 m 1
 13 25 l 1
 13 26 l 1
 12 26 l 1
 12 27 l 1
 14 27 l 1
 14 25 l 1
17 25 m 1
 15 25 l 1
 15 27 l 1
 17 27 l 1
 17 25 l 1
17 29 m 1
 15 29 l 1
 15 31 l 1
 17 31 l 1
 17 29 l 1
23 25 m 1
 21 25 l 1
 21 27 l 1
 23 27 l 1
 23 25 l 1
26 25 m 1
 24 25 l 1
 24 27 l 1
 25 27 l 1
 25 26 l 1
 26 26 l 1
 26 25 l 1
23 29 m 1
 21 29 l 1
 21 31 l 1
 23 31 l 1
 23 29 l 1
17 33 m 1
 15 33 l 1
 15 35 l 1
 17 35 l 1
 17 33 l 1
17 37 m 1
 15 37 l 1
 15 39 l 1
 17 39 l 1
 17 37 l 1
23 33 m 1
 21 33 l 1
 21 35 l 1
 23 35 l 1
 23 33 l 1
23 37 m 1
 21 37 l 1
 21 39 l 1
 23 39 l 1
 23 37 l 1
28 25 m 1
 27 25 l 1
 27 26 l 1
 26 26 l 1
 26 27 l 1
 28 27 l 1
 28 25 l 1
31 25 m 1
 29 25 l 1
 29 27 l 1
 31 27 l 1
 31 25 l 1
31 29 m 1
 29 29 l 1
 29 31 l 1
 31 31 l 1
 31 29 l 1
41 25 m 1
 39 25 l 1
 39 27 l 1
 41 27 l 1
 41 25 l 1
36 31 m 1
 34 31 l 1
 34 33 l 1
 36 33 l 1
 36 31 l 1
31 33 m 1
 29 33 l 1
 29 35 l 1
 31 35 l 1
 31 33 l 1
31 37 m 1
 29 37 l 1
 29 39 l 1
 31 39 l 1
 31 37 l 1
36 35 m 1
 34 35 l 1
 34 37 l 1
 36 37 l 1
 36 35 l 1
41 33 m 1
 39 33 l 1
 39 35 l 1
 41 35 l 1
 41 33 l 1
44 25 m 1
 42 25 l 1
 42 27 l 1
 43 27 l 1
 43 26 l 1
 44 26 l 1
 44 25 l 1
46 25 m 1
 45 25 l 1
 45 26 l 1
 44 26 l 1
 44 27 l 1
 46 27 l 1
 46 25 l 1
49 25 m 1
 47 25 l 1
 47 27 l 1
 49 27 l 1
 49 25 l 1
49 29 m 1
 47 29 l 1
 47 31 l 1
 49 31 l 1
 49 29 l 1
43 33 m 1
 42 33 l 1
 42 35 l 1
 44 35 l 1
 44 34 l 1
 43 34 l 1
 43 33 l 1
46 33 m 1
 44 33 l 1
 44 34 l 1
 45 34 l 1
 45 35 l 1
 46 35 l 1
 46 33 l 1
49 33 m 1
 47 33 l 1
 47 35 l 1
 49 35 l 1
 49 33 l 1
49 37 m 1
 47 37 l 1
 47 39 l 1
 49 39 l 1
 49 37 l 1
63 25 m 1
 61 25 l 1
 61 27 l 1
 63 27 l 1
 63 25 l 1
63 29 m 1
 61 29 l 1
 61 31 l 1
 63 31 l 1
 63 29 l 1
63 33 m 1
 61 33 l 1
 61 35 l 1
 63 35 l 1
 63 33 l 1
63 37 m 1
 61 37 l 1
 61 39 l 1
 63 39 l 1
 63 37 l 1
12 41 m 1
 10 41 l 1
 10 43 l 1
 11 43 l 1
 11 42 l 1
 12 42 l 1
 12 41 l 1
14 41 m 1
 13 41 l 1
 13 42 l 1
 12 42 l 1
 12 43 l 1
 14 43 l 1
 14 41 l 1
17 41 m 1
 15 41 l 1
 15 43 l 1
 17 43 l 1
 17 41 l 1
23 41 m 1
 21 41 l 1
 21 43 l 1
 23 43 l 1
 23 41 l 1
26 41 m 1
 24 41 l 1
 24 43 l 1
 25 43 l 1
 25 42 l 1
 26 42 l 1
 26 41 l 1
28 41 m 1
 27 41 l 1
 27 42 l 1
 26 42 l 1
 26 43 l 1
 28 43 l 1
 28 41 l 1
31 41 m 1
 29 41 l 1
 29 43 l 1
 31 43 l 1
 31 41 l 1
41 41 m 1
 39 41 l 1
 39 43 l 1
 41 43 l 1
 41 41 l 1
44 41 m 1
 42 41 l 1
 42 43 l 1
 43 43 l 1
 43 42 l 1
 44 42 l 1
 44 41 l 1
46 41 m 1
 45 41 l 1
 45 42 l 1
 44 42 l 1
 44 43 l 1
 46 43 l 1
 46 41 l 1
49 41 m 1
 47 41 l 1
 47 43 l 1
 49 43 l 1
 49 41 l 1
63 41 m 1
 61 41 l 1
 61 43 l 1
 63 43 l 1
 63 41 l 1
EndSplineSet
Ligature2: "'liga' Standard Ligatures in Latin lookup 0-1" three one zero four one
LCarets2: 1 0
EndChar

StartChar: custom_3_1_0_4_2
Encoding: 9598 -1 9353
Width: 70
Flags: H
LayerCount: 2
Fore
SplineSet
9 25 m 1
 7 25 l 1
 7 27 l 1
 9 27 l 1
 9 25 l 1
9 29 m 1
 7 29 l 1
 7 31 l 1
 9 31 l 1
 9 29 l 1
9 33 m 1
 7 33 l 1
 7 35 l 1
 9 35 l 1
 9 33 l 1
9 37 m 1
 7 37 l 1
 7 39 l 1
 9 39 l 1
 9 37 l 1
9 41 m 1
 7 41 l 1
 7 43 l 1
 9 43 l 1
 9 41 l 1
12 25 m 1
 10 25 l 1
 10 27 l 1
 11 27 l 1
 11 26 l 1
 12 26 l 1
 12 25 l 1
14 25 m 1
 13 25 l 1
 13 26 l 1
 12 26 l 1
 12 27 l 1
 14 27 l 1
 14 25 l 1
17 25 m 1
 15 25 l 1
 15 27 l 1
 17 27 l 1
 17 25 l 1
17 29 m 1
 15 29 l 1
 15 31 l 1
 17 31 l 1
 17 29 l 1
23 25 m 1
 21 25 l 1
 21 27 l 1
 23 27 l 1
 23 25 l 1
26 25 m 1
 24 25 l 1
 24 27 l 1
 25 27 l 1
 25 26 l 1
 26 26 l 1
 26 25 l 1
23 29 m 1
 21 29 l 1
 21 31 l 1
 23 31 l 1
 23 29 l 1
17 33 m 1
 15 33 l 1
 15 35 l 1
 17 35 l 1
 17 33 l 1
17 37 m 1
 15 37 l 1
 15 39 l 1
 17 39 l 1
 17 37 l 1
23 33 m 1
 21 33 l 1
 21 35 l 1
 23 35 l 1
 23 33 l 1
23 37 m 1
 21 37 l 1
 21 39 l 1
 23 39 l 1
 23 37 l 1
28 25 m 1
 27 25 l 1
 27 26 l 1
 26 26 l 1
 26 27 l 1
 28 27 l 1
 28 25 l 1
31 25 m 1
 29 25 l 1
 29 27 l 1
 31 27 l 1
 31 25 l 1
31 29 m 1
 29 29 l 1
 29 31 l 1
 31 31 l 1
 31 29 l 1
41 25 m 1
 39 25 l 1
 39 27 l 1
 41 27 l 1
 41 25 l 1
36 31 m 1
 34 31 l 1
 34 33 l 1
 36 33 l 1
 36 31 l 1
31 33 m 1
 29 33 l 1
 29 35 l 1
 31 35 l 1
 31 33 l 1
31 37 m 1
 29 37 l 1
 29 39 l 1
 31 39 l 1
 31 37 l 1
36 35 m 1
 34 35 l 1
 34 37 l 1
 36 37 l 1
 36 35 l 1
41 33 m 1
 39 33 l 1
 39 35 l 1
 41 35 l 1
 41 33 l 1
44 25 m 1
 42 25 l 1
 42 27 l 1
 43 27 l 1
 43 26 l 1
 44 26 l 1
 44 25 l 1
46 25 m 1
 45 25 l 1
 45 26 l 1
 44 26 l 1
 44 27 l 1
 46 27 l 1
 46 25 l 1
49 25 m 1
 47 25 l 1
 47 27 l 1
 49 27 l 1
 49 25 l 1
49 29 m 1
 47 29 l 1
 47 31 l 1
 49 31 l 1
 49 29 l 1
43 33 m 1
 42 33 l 1
 42 35 l 1
 44 35 l 1
 44 34 l 1
 43 34 l 1
 43 33 l 1
46 33 m 1
 44 33 l 1
 44 34 l 1
 45 34 l 1
 45 35 l 1
 46 35 l 1
 46 33 l 1
49 33 m 1
 47 33 l 1
 47 35 l 1
 49 35 l 1
 49 33 l 1
49 37 m 1
 47 37 l 1
 47 39 l 1
 49 39 l 1
 49 37 l 1
63 25 m 1
 61 25 l 1
 61 27 l 1
 63 27 l 1
 63 25 l 1
63 29 m 1
 61 29 l 1
 61 31 l 1
 63 31 l 1
 63 29 l 1
63 33 m 1
 61 33 l 1
 61 35 l 1
 63 35 l 1
 63 33 l 1
63 37 m 1
 61 37 l 1
 61 39 l 1
 63 39 l 1
 63 37 l 1
12 41 m 1
 10 41 l 1
 10 43 l 1
 11 43 l 1
 11 42 l 1
 12 42 l 1
 12 41 l 1
14 41 m 1
 13 41 l 1
 13 42 l 1
 12 42 l 1
 12 43 l 1
 14 43 l 1
 14 41 l 1
17 41 m 1
 15 41 l 1
 15 43 l 1
 17 43 l 1
 17 41 l 1
23 41 m 1
 21 41 l 1
 21 43 l 1
 23 43 l 1
 23 41 l 1
26 41 m 1
 24 41 l 1
 24 43 l 1
 25 43 l 1
 25 42 l 1
 26 42 l 1
 26 41 l 1
28 41 m 1
 27 41 l 1
 27 42 l 1
 26 42 l 1
 26 43 l 1
 28 43 l 1
 28 41 l 1
31 41 m 1
 29 41 l 1
 29 43 l 1
 31 43 l 1
 31 41 l 1
41 41 m 1
 39 41 l 1
 39 43 l 1
 41 43 l 1
 41 41 l 1
44 41 m 1
 42 41 l 1
 42 43 l 1
 43 43 l 1
 43 42 l 1
 44 42 l 1
 44 41 l 1
46 41 m 1
 45 41 l 1
 45 42 l 1
 44 42 l 1
 44 43 l 1
 46 43 l 1
 46 41 l 1
49 41 m 1
 47 41 l 1
 47 43 l 1
 49 43 l 1
 49 41 l 1
63 41 m 1
 61 41 l 1
 61 43 l 1
 63 43 l 1
 63 41 l 1
EndSplineSet
Ligature2: "'liga' Standard Ligatures in Latin lookup 0-1" three one zero four two
LCarets2: 1 0
EndChar

StartChar: custom_3_1_0_4_3
Encoding: 9599 -1 9354
Width: 70
Flags: H
LayerCount: 2
Fore
SplineSet
9 25 m 1
 7 25 l 1
 7 27 l 1
 9 27 l 1
 9 25 l 1
9 29 m 1
 7 29 l 1
 7 31 l 1
 9 31 l 1
 9 29 l 1
9 33 m 1
 7 33 l 1
 7 35 l 1
 9 35 l 1
 9 33 l 1
9 37 m 1
 7 37 l 1
 7 39 l 1
 9 39 l 1
 9 37 l 1
9 41 m 1
 7 41 l 1
 7 43 l 1
 9 43 l 1
 9 41 l 1
12 25 m 1
 10 25 l 1
 10 27 l 1
 11 27 l 1
 11 26 l 1
 12 26 l 1
 12 25 l 1
14 25 m 1
 13 25 l 1
 13 26 l 1
 12 26 l 1
 12 27 l 1
 14 27 l 1
 14 25 l 1
17 25 m 1
 15 25 l 1
 15 27 l 1
 17 27 l 1
 17 25 l 1
17 29 m 1
 15 29 l 1
 15 31 l 1
 17 31 l 1
 17 29 l 1
23 25 m 1
 21 25 l 1
 21 27 l 1
 23 27 l 1
 23 25 l 1
26 25 m 1
 24 25 l 1
 24 27 l 1
 25 27 l 1
 25 26 l 1
 26 26 l 1
 26 25 l 1
23 29 m 1
 21 29 l 1
 21 31 l 1
 23 31 l 1
 23 29 l 1
17 33 m 1
 15 33 l 1
 15 35 l 1
 17 35 l 1
 17 33 l 1
17 37 m 1
 15 37 l 1
 15 39 l 1
 17 39 l 1
 17 37 l 1
23 33 m 1
 21 33 l 1
 21 35 l 1
 23 35 l 1
 23 33 l 1
23 37 m 1
 21 37 l 1
 21 39 l 1
 23 39 l 1
 23 37 l 1
28 25 m 1
 27 25 l 1
 27 26 l 1
 26 26 l 1
 26 27 l 1
 28 27 l 1
 28 25 l 1
31 25 m 1
 29 25 l 1
 29 27 l 1
 31 27 l 1
 31 25 l 1
31 29 m 1
 29 29 l 1
 29 31 l 1
 31 31 l 1
 31 29 l 1
41 25 m 1
 39 25 l 1
 39 27 l 1
 41 27 l 1
 41 25 l 1
36 31 m 1
 34 31 l 1
 34 33 l 1
 36 33 l 1
 36 31 l 1
31 33 m 1
 29 33 l 1
 29 35 l 1
 31 35 l 1
 31 33 l 1
31 37 m 1
 29 37 l 1
 29 39 l 1
 31 39 l 1
 31 37 l 1
36 35 m 1
 34 35 l 1
 34 37 l 1
 36 37 l 1
 36 35 l 1
41 33 m 1
 39 33 l 1
 39 35 l 1
 41 35 l 1
 41 33 l 1
44 25 m 1
 42 25 l 1
 42 27 l 1
 43 27 l 1
 43 26 l 1
 44 26 l 1
 44 25 l 1
46 25 m 1
 45 25 l 1
 45 26 l 1
 44 26 l 1
 44 27 l 1
 46 27 l 1
 46 25 l 1
49 25 m 1
 47 25 l 1
 47 27 l 1
 49 27 l 1
 49 25 l 1
49 29 m 1
 47 29 l 1
 47 31 l 1
 49 31 l 1
 49 29 l 1
43 33 m 1
 42 33 l 1
 42 35 l 1
 44 35 l 1
 44 34 l 1
 43 34 l 1
 43 33 l 1
46 33 m 1
 44 33 l 1
 44 34 l 1
 45 34 l 1
 45 35 l 1
 46 35 l 1
 46 33 l 1
49 33 m 1
 47 33 l 1
 47 35 l 1
 49 35 l 1
 49 33 l 1
49 37 m 1
 47 37 l 1
 47 39 l 1
 49 39 l 1
 49 37 l 1
63 25 m 1
 61 25 l 1
 61 27 l 1
 63 27 l 1
 63 25 l 1
63 29 m 1
 61 29 l 1
 61 31 l 1
 63 31 l 1
 63 29 l 1
63 33 m 1
 61 33 l 1
 61 35 l 1
 63 35 l 1
 63 33 l 1
63 37 m 1
 61 37 l 1
 61 39 l 1
 63 39 l 1
 63 37 l 1
12 41 m 1
 10 41 l 1
 10 43 l 1
 11 43 l 1
 11 42 l 1
 12 42 l 1
 12 41 l 1
14 41 m 1
 13 41 l 1
 13 42 l 1
 12 42 l 1
 12 43 l 1
 14 43 l 1
 14 41 l 1
17 41 m 1
 15 41 l 1
 15 43 l 1
 17 43 l 1
 17 41 l 1
23 41 m 1
 21 41 l 1
 21 43 l 1
 23 43 l 1
 23 41 l 1
26 41 m 1
 24 41 l 1
 24 43 l 1
 25 43 l 1
 25 42 l 1
 26 42 l 1
 26 41 l 1
28 41 m 1
 27 41 l 1
 27 42 l 1
 26 42 l 1
 26 43 l 1
 28 43 l 1
 28 41 l 1
31 41 m 1
 29 41 l 1
 29 43 l 1
 31 43 l 1
 31 41 l 1
41 41 m 1
 39 41 l 1
 39 43 l 1
 41 43 l 1
 41 41 l 1
44 41 m 1
 42 41 l 1
 42 43 l 1
 43 43 l 1
 43 42 l 1
 44 42 l 1
 44 41 l 1
46 41 m 1
 45 41 l 1
 45 42 l 1
 44 42 l 1
 44 43 l 1
 46 43 l 1
 46 41 l 1
49 41 m 1
 47 41 l 1
 47 43 l 1
 49 43 l 1
 49 41 l 1
63 41 m 1
 61 41 l 1
 61 43 l 1
 63 43 l 1
 63 41 l 1
EndSplineSet
Ligature2: "'liga' Standard Ligatures in Latin lookup 0-1" three one zero four three
LCarets2: 1 0
EndChar

StartChar: custom_3_1_0_4_4
Encoding: 9600 -1 9355
Width: 70
Flags: H
LayerCount: 2
Fore
SplineSet
9 25 m 1
 7 25 l 1
 7 27 l 1
 9 27 l 1
 9 25 l 1
9 29 m 1
 7 29 l 1
 7 31 l 1
 9 31 l 1
 9 29 l 1
9 33 m 1
 7 33 l 1
 7 35 l 1
 9 35 l 1
 9 33 l 1
9 37 m 1
 7 37 l 1
 7 39 l 1
 9 39 l 1
 9 37 l 1
9 41 m 1
 7 41 l 1
 7 43 l 1
 9 43 l 1
 9 41 l 1
12 25 m 1
 10 25 l 1
 10 27 l 1
 11 27 l 1
 11 26 l 1
 12 26 l 1
 12 25 l 1
14 25 m 1
 13 25 l 1
 13 26 l 1
 12 26 l 1
 12 27 l 1
 14 27 l 1
 14 25 l 1
17 25 m 1
 15 25 l 1
 15 27 l 1
 17 27 l 1
 17 25 l 1
17 29 m 1
 15 29 l 1
 15 31 l 1
 17 31 l 1
 17 29 l 1
23 25 m 1
 21 25 l 1
 21 27 l 1
 23 27 l 1
 23 25 l 1
26 25 m 1
 24 25 l 1
 24 27 l 1
 25 27 l 1
 25 26 l 1
 26 26 l 1
 26 25 l 1
23 29 m 1
 21 29 l 1
 21 31 l 1
 23 31 l 1
 23 29 l 1
17 33 m 1
 15 33 l 1
 15 35 l 1
 17 35 l 1
 17 33 l 1
17 37 m 1
 15 37 l 1
 15 39 l 1
 17 39 l 1
 17 37 l 1
23 33 m 1
 21 33 l 1
 21 35 l 1
 23 35 l 1
 23 33 l 1
23 37 m 1
 21 37 l 1
 21 39 l 1
 23 39 l 1
 23 37 l 1
28 25 m 1
 27 25 l 1
 27 26 l 1
 26 26 l 1
 26 27 l 1
 28 27 l 1
 28 25 l 1
31 25 m 1
 29 25 l 1
 29 27 l 1
 31 27 l 1
 31 25 l 1
31 29 m 1
 29 29 l 1
 29 31 l 1
 31 31 l 1
 31 29 l 1
41 25 m 1
 39 25 l 1
 39 27 l 1
 41 27 l 1
 41 25 l 1
36 31 m 1
 34 31 l 1
 34 33 l 1
 36 33 l 1
 36 31 l 1
31 33 m 1
 29 33 l 1
 29 35 l 1
 31 35 l 1
 31 33 l 1
31 37 m 1
 29 37 l 1
 29 39 l 1
 31 39 l 1
 31 37 l 1
36 35 m 1
 34 35 l 1
 34 37 l 1
 36 37 l 1
 36 35 l 1
41 33 m 1
 39 33 l 1
 39 35 l 1
 41 35 l 1
 41 33 l 1
44 25 m 1
 42 25 l 1
 42 27 l 1
 43 27 l 1
 43 26 l 1
 44 26 l 1
 44 25 l 1
46 25 m 1
 45 25 l 1
 45 26 l 1
 44 26 l 1
 44 27 l 1
 46 27 l 1
 46 25 l 1
49 25 m 1
 47 25 l 1
 47 27 l 1
 49 27 l 1
 49 25 l 1
49 29 m 1
 47 29 l 1
 47 31 l 1
 49 31 l 1
 49 29 l 1
43 33 m 1
 42 33 l 1
 42 35 l 1
 44 35 l 1
 44 34 l 1
 43 34 l 1
 43 33 l 1
46 33 m 1
 44 33 l 1
 44 34 l 1
 45 34 l 1
 45 35 l 1
 46 35 l 1
 46 33 l 1
49 33 m 1
 47 33 l 1
 47 35 l 1
 49 35 l 1
 49 33 l 1
49 37 m 1
 47 37 l 1
 47 39 l 1
 49 39 l 1
 49 37 l 1
63 25 m 1
 61 25 l 1
 61 27 l 1
 63 27 l 1
 63 25 l 1
63 29 m 1
 61 29 l 1
 61 31 l 1
 63 31 l 1
 63 29 l 1
63 33 m 1
 61 33 l 1
 61 35 l 1
 63 35 l 1
 63 33 l 1
63 37 m 1
 61 37 l 1
 61 39 l 1
 63 39 l 1
 63 37 l 1
12 41 m 1
 10 41 l 1
 10 43 l 1
 11 43 l 1
 11 42 l 1
 12 42 l 1
 12 41 l 1
14 41 m 1
 13 41 l 1
 13 42 l 1
 12 42 l 1
 12 43 l 1
 14 43 l 1
 14 41 l 1
17 41 m 1
 15 41 l 1
 15 43 l 1
 17 43 l 1
 17 41 l 1
23 41 m 1
 21 41 l 1
 21 43 l 1
 23 43 l 1
 23 41 l 1
26 41 m 1
 24 41 l 1
 24 43 l 1
 25 43 l 1
 25 42 l 1
 26 42 l 1
 26 41 l 1
28 41 m 1
 27 41 l 1
 27 42 l 1
 26 42 l 1
 26 43 l 1
 28 43 l 1
 28 41 l 1
31 41 m 1
 29 41 l 1
 29 43 l 1
 31 43 l 1
 31 41 l 1
41 41 m 1
 39 41 l 1
 39 43 l 1
 41 43 l 1
 41 41 l 1
44 41 m 1
 42 41 l 1
 42 43 l 1
 43 43 l 1
 43 42 l 1
 44 42 l 1
 44 41 l 1
46 41 m 1
 45 41 l 1
 45 42 l 1
 44 42 l 1
 44 43 l 1
 46 43 l 1
 46 41 l 1
49 41 m 1
 47 41 l 1
 47 43 l 1
 49 43 l 1
 49 41 l 1
63 41 m 1
 61 41 l 1
 61 43 l 1
 63 43 l 1
 63 41 l 1
EndSplineSet
Ligature2: "'liga' Standard Ligatures in Latin lookup 0-1" three one zero four four
LCarets2: 1 0
EndChar

StartChar: custom_3_1_0_4_5
Encoding: 9601 -1 9356
Width: 70
Flags: H
LayerCount: 2
Fore
SplineSet
9 25 m 1
 7 25 l 1
 7 27 l 1
 9 27 l 1
 9 25 l 1
9 29 m 1
 7 29 l 1
 7 31 l 1
 9 31 l 1
 9 29 l 1
9 33 m 1
 7 33 l 1
 7 35 l 1
 9 35 l 1
 9 33 l 1
9 37 m 1
 7 37 l 1
 7 39 l 1
 9 39 l 1
 9 37 l 1
9 41 m 1
 7 41 l 1
 7 43 l 1
 9 43 l 1
 9 41 l 1
12 25 m 1
 10 25 l 1
 10 27 l 1
 11 27 l 1
 11 26 l 1
 12 26 l 1
 12 25 l 1
14 25 m 1
 13 25 l 1
 13 26 l 1
 12 26 l 1
 12 27 l 1
 14 27 l 1
 14 25 l 1
17 25 m 1
 15 25 l 1
 15 27 l 1
 17 27 l 1
 17 25 l 1
17 29 m 1
 15 29 l 1
 15 31 l 1
 17 31 l 1
 17 29 l 1
23 25 m 1
 21 25 l 1
 21 27 l 1
 23 27 l 1
 23 25 l 1
26 25 m 1
 24 25 l 1
 24 27 l 1
 25 27 l 1
 25 26 l 1
 26 26 l 1
 26 25 l 1
23 29 m 1
 21 29 l 1
 21 31 l 1
 23 31 l 1
 23 29 l 1
17 33 m 1
 15 33 l 1
 15 35 l 1
 17 35 l 1
 17 33 l 1
17 37 m 1
 15 37 l 1
 15 39 l 1
 17 39 l 1
 17 37 l 1
23 33 m 1
 21 33 l 1
 21 35 l 1
 23 35 l 1
 23 33 l 1
23 37 m 1
 21 37 l 1
 21 39 l 1
 23 39 l 1
 23 37 l 1
28 25 m 1
 27 25 l 1
 27 26 l 1
 26 26 l 1
 26 27 l 1
 28 27 l 1
 28 25 l 1
31 25 m 1
 29 25 l 1
 29 27 l 1
 31 27 l 1
 31 25 l 1
31 29 m 1
 29 29 l 1
 29 31 l 1
 31 31 l 1
 31 29 l 1
41 25 m 1
 39 25 l 1
 39 27 l 1
 41 27 l 1
 41 25 l 1
36 31 m 1
 34 31 l 1
 34 33 l 1
 36 33 l 1
 36 31 l 1
31 33 m 1
 29 33 l 1
 29 35 l 1
 31 35 l 1
 31 33 l 1
31 37 m 1
 29 37 l 1
 29 39 l 1
 31 39 l 1
 31 37 l 1
36 35 m 1
 34 35 l 1
 34 37 l 1
 36 37 l 1
 36 35 l 1
41 33 m 1
 39 33 l 1
 39 35 l 1
 41 35 l 1
 41 33 l 1
44 25 m 1
 42 25 l 1
 42 27 l 1
 43 27 l 1
 43 26 l 1
 44 26 l 1
 44 25 l 1
46 25 m 1
 45 25 l 1
 45 26 l 1
 44 26 l 1
 44 27 l 1
 46 27 l 1
 46 25 l 1
49 25 m 1
 47 25 l 1
 47 27 l 1
 49 27 l 1
 49 25 l 1
49 29 m 1
 47 29 l 1
 47 31 l 1
 49 31 l 1
 49 29 l 1
43 33 m 1
 42 33 l 1
 42 35 l 1
 44 35 l 1
 44 34 l 1
 43 34 l 1
 43 33 l 1
46 33 m 1
 44 33 l 1
 44 34 l 1
 45 34 l 1
 45 35 l 1
 46 35 l 1
 46 33 l 1
49 33 m 1
 47 33 l 1
 47 35 l 1
 49 35 l 1
 49 33 l 1
49 37 m 1
 47 37 l 1
 47 39 l 1
 49 39 l 1
 49 37 l 1
63 25 m 1
 61 25 l 1
 61 27 l 1
 63 27 l 1
 63 25 l 1
63 29 m 1
 61 29 l 1
 61 31 l 1
 63 31 l 1
 63 29 l 1
63 33 m 1
 61 33 l 1
 61 35 l 1
 63 35 l 1
 63 33 l 1
63 37 m 1
 61 37 l 1
 61 39 l 1
 63 39 l 1
 63 37 l 1
12 41 m 1
 10 41 l 1
 10 43 l 1
 11 43 l 1
 11 42 l 1
 12 42 l 1
 12 41 l 1
14 41 m 1
 13 41 l 1
 13 42 l 1
 12 42 l 1
 12 43 l 1
 14 43 l 1
 14 41 l 1
17 41 m 1
 15 41 l 1
 15 43 l 1
 17 43 l 1
 17 41 l 1
23 41 m 1
 21 41 l 1
 21 43 l 1
 23 43 l 1
 23 41 l 1
26 41 m 1
 24 41 l 1
 24 43 l 1
 25 43 l 1
 25 42 l 1
 26 42 l 1
 26 41 l 1
28 41 m 1
 27 41 l 1
 27 42 l 1
 26 42 l 1
 26 43 l 1
 28 43 l 1
 28 41 l 1
31 41 m 1
 29 41 l 1
 29 43 l 1
 31 43 l 1
 31 41 l 1
41 41 m 1
 39 41 l 1
 39 43 l 1
 41 43 l 1
 41 41 l 1
44 41 m 1
 42 41 l 1
 42 43 l 1
 43 43 l 1
 43 42 l 1
 44 42 l 1
 44 41 l 1
46 41 m 1
 45 41 l 1
 45 42 l 1
 44 42 l 1
 44 43 l 1
 46 43 l 1
 46 41 l 1
49 41 m 1
 47 41 l 1
 47 43 l 1
 49 43 l 1
 49 41 l 1
63 41 m 1
 61 41 l 1
 61 43 l 1
 63 43 l 1
 63 41 l 1
EndSplineSet
Ligature2: "'liga' Standard Ligatures in Latin lookup 0-1" three one zero four five
LCarets2: 1 0
EndChar

StartChar: custom_3_1_0_4_6
Encoding: 9602 -1 9357
Width: 70
Flags: H
LayerCount: 2
Fore
SplineSet
9 25 m 1
 7 25 l 1
 7 27 l 1
 9 27 l 1
 9 25 l 1
9 29 m 1
 7 29 l 1
 7 31 l 1
 9 31 l 1
 9 29 l 1
9 33 m 1
 7 33 l 1
 7 35 l 1
 9 35 l 1
 9 33 l 1
9 37 m 1
 7 37 l 1
 7 39 l 1
 9 39 l 1
 9 37 l 1
9 41 m 1
 7 41 l 1
 7 43 l 1
 9 43 l 1
 9 41 l 1
12 25 m 1
 10 25 l 1
 10 27 l 1
 11 27 l 1
 11 26 l 1
 12 26 l 1
 12 25 l 1
14 25 m 1
 13 25 l 1
 13 26 l 1
 12 26 l 1
 12 27 l 1
 14 27 l 1
 14 25 l 1
17 25 m 1
 15 25 l 1
 15 27 l 1
 17 27 l 1
 17 25 l 1
17 29 m 1
 15 29 l 1
 15 31 l 1
 17 31 l 1
 17 29 l 1
23 25 m 1
 21 25 l 1
 21 27 l 1
 23 27 l 1
 23 25 l 1
26 25 m 1
 24 25 l 1
 24 27 l 1
 25 27 l 1
 25 26 l 1
 26 26 l 1
 26 25 l 1
23 29 m 1
 21 29 l 1
 21 31 l 1
 23 31 l 1
 23 29 l 1
17 33 m 1
 15 33 l 1
 15 35 l 1
 17 35 l 1
 17 33 l 1
17 37 m 1
 15 37 l 1
 15 39 l 1
 17 39 l 1
 17 37 l 1
23 33 m 1
 21 33 l 1
 21 35 l 1
 23 35 l 1
 23 33 l 1
23 37 m 1
 21 37 l 1
 21 39 l 1
 23 39 l 1
 23 37 l 1
28 25 m 1
 27 25 l 1
 27 26 l 1
 26 26 l 1
 26 27 l 1
 28 27 l 1
 28 25 l 1
31 25 m 1
 29 25 l 1
 29 27 l 1
 31 27 l 1
 31 25 l 1
31 29 m 1
 29 29 l 1
 29 31 l 1
 31 31 l 1
 31 29 l 1
41 25 m 1
 39 25 l 1
 39 27 l 1
 41 27 l 1
 41 25 l 1
36 31 m 1
 34 31 l 1
 34 33 l 1
 36 33 l 1
 36 31 l 1
31 33 m 1
 29 33 l 1
 29 35 l 1
 31 35 l 1
 31 33 l 1
31 37 m 1
 29 37 l 1
 29 39 l 1
 31 39 l 1
 31 37 l 1
36 35 m 1
 34 35 l 1
 34 37 l 1
 36 37 l 1
 36 35 l 1
41 33 m 1
 39 33 l 1
 39 35 l 1
 41 35 l 1
 41 33 l 1
44 25 m 1
 42 25 l 1
 42 27 l 1
 43 27 l 1
 43 26 l 1
 44 26 l 1
 44 25 l 1
46 25 m 1
 45 25 l 1
 45 26 l 1
 44 26 l 1
 44 27 l 1
 46 27 l 1
 46 25 l 1
49 25 m 1
 47 25 l 1
 47 27 l 1
 49 27 l 1
 49 25 l 1
49 29 m 1
 47 29 l 1
 47 31 l 1
 49 31 l 1
 49 29 l 1
43 33 m 1
 42 33 l 1
 42 35 l 1
 44 35 l 1
 44 34 l 1
 43 34 l 1
 43 33 l 1
46 33 m 1
 44 33 l 1
 44 34 l 1
 45 34 l 1
 45 35 l 1
 46 35 l 1
 46 33 l 1
49 33 m 1
 47 33 l 1
 47 35 l 1
 49 35 l 1
 49 33 l 1
49 37 m 1
 47 37 l 1
 47 39 l 1
 49 39 l 1
 49 37 l 1
63 25 m 1
 61 25 l 1
 61 27 l 1
 63 27 l 1
 63 25 l 1
63 29 m 1
 61 29 l 1
 61 31 l 1
 63 31 l 1
 63 29 l 1
63 33 m 1
 61 33 l 1
 61 35 l 1
 63 35 l 1
 63 33 l 1
63 37 m 1
 61 37 l 1
 61 39 l 1
 63 39 l 1
 63 37 l 1
12 41 m 1
 10 41 l 1
 10 43 l 1
 11 43 l 1
 11 42 l 1
 12 42 l 1
 12 41 l 1
14 41 m 1
 13 41 l 1
 13 42 l 1
 12 42 l 1
 12 43 l 1
 14 43 l 1
 14 41 l 1
17 41 m 1
 15 41 l 1
 15 43 l 1
 17 43 l 1
 17 41 l 1
23 41 m 1
 21 41 l 1
 21 43 l 1
 23 43 l 1
 23 41 l 1
26 41 m 1
 24 41 l 1
 24 43 l 1
 25 43 l 1
 25 42 l 1
 26 42 l 1
 26 41 l 1
28 41 m 1
 27 41 l 1
 27 42 l 1
 26 42 l 1
 26 43 l 1
 28 43 l 1
 28 41 l 1
31 41 m 1
 29 41 l 1
 29 43 l 1
 31 43 l 1
 31 41 l 1
41 41 m 1
 39 41 l 1
 39 43 l 1
 41 43 l 1
 41 41 l 1
44 41 m 1
 42 41 l 1
 42 43 l 1
 43 43 l 1
 43 42 l 1
 44 42 l 1
 44 41 l 1
46 41 m 1
 45 41 l 1
 45 42 l 1
 44 42 l 1
 44 43 l 1
 46 43 l 1
 46 41 l 1
49 41 m 1
 47 41 l 1
 47 43 l 1
 49 43 l 1
 49 41 l 1
63 41 m 1
 61 41 l 1
 61 43 l 1
 63 43 l 1
 63 41 l 1
EndSplineSet
Ligature2: "'liga' Standard Ligatures in Latin lookup 0-1" three one zero four six
LCarets2: 1 0
EndChar

StartChar: custom_3_1_0_4_7
Encoding: 9603 -1 9358
Width: 70
Flags: H
LayerCount: 2
Fore
SplineSet
9 25 m 1
 7 25 l 1
 7 27 l 1
 9 27 l 1
 9 25 l 1
9 29 m 1
 7 29 l 1
 7 31 l 1
 9 31 l 1
 9 29 l 1
9 33 m 1
 7 33 l 1
 7 35 l 1
 9 35 l 1
 9 33 l 1
9 37 m 1
 7 37 l 1
 7 39 l 1
 9 39 l 1
 9 37 l 1
9 41 m 1
 7 41 l 1
 7 43 l 1
 9 43 l 1
 9 41 l 1
12 25 m 1
 10 25 l 1
 10 27 l 1
 11 27 l 1
 11 26 l 1
 12 26 l 1
 12 25 l 1
14 25 m 1
 13 25 l 1
 13 26 l 1
 12 26 l 1
 12 27 l 1
 14 27 l 1
 14 25 l 1
17 25 m 1
 15 25 l 1
 15 27 l 1
 17 27 l 1
 17 25 l 1
17 29 m 1
 15 29 l 1
 15 31 l 1
 17 31 l 1
 17 29 l 1
23 25 m 1
 21 25 l 1
 21 27 l 1
 23 27 l 1
 23 25 l 1
26 25 m 1
 24 25 l 1
 24 27 l 1
 25 27 l 1
 25 26 l 1
 26 26 l 1
 26 25 l 1
23 29 m 1
 21 29 l 1
 21 31 l 1
 23 31 l 1
 23 29 l 1
17 33 m 1
 15 33 l 1
 15 35 l 1
 17 35 l 1
 17 33 l 1
17 37 m 1
 15 37 l 1
 15 39 l 1
 17 39 l 1
 17 37 l 1
23 33 m 1
 21 33 l 1
 21 35 l 1
 23 35 l 1
 23 33 l 1
23 37 m 1
 21 37 l 1
 21 39 l 1
 23 39 l 1
 23 37 l 1
28 25 m 1
 27 25 l 1
 27 26 l 1
 26 26 l 1
 26 27 l 1
 28 27 l 1
 28 25 l 1
31 25 m 1
 29 25 l 1
 29 27 l 1
 31 27 l 1
 31 25 l 1
31 29 m 1
 29 29 l 1
 29 31 l 1
 31 31 l 1
 31 29 l 1
41 25 m 1
 39 25 l 1
 39 27 l 1
 41 27 l 1
 41 25 l 1
36 31 m 1
 34 31 l 1
 34 33 l 1
 36 33 l 1
 36 31 l 1
31 33 m 1
 29 33 l 1
 29 35 l 1
 31 35 l 1
 31 33 l 1
31 37 m 1
 29 37 l 1
 29 39 l 1
 31 39 l 1
 31 37 l 1
36 35 m 1
 34 35 l 1
 34 37 l 1
 36 37 l 1
 36 35 l 1
41 33 m 1
 39 33 l 1
 39 35 l 1
 41 35 l 1
 41 33 l 1
44 25 m 1
 42 25 l 1
 42 27 l 1
 43 27 l 1
 43 26 l 1
 44 26 l 1
 44 25 l 1
46 25 m 1
 45 25 l 1
 45 26 l 1
 44 26 l 1
 44 27 l 1
 46 27 l 1
 46 25 l 1
49 25 m 1
 47 25 l 1
 47 27 l 1
 49 27 l 1
 49 25 l 1
49 29 m 1
 47 29 l 1
 47 31 l 1
 49 31 l 1
 49 29 l 1
43 33 m 1
 42 33 l 1
 42 35 l 1
 44 35 l 1
 44 34 l 1
 43 34 l 1
 43 33 l 1
46 33 m 1
 44 33 l 1
 44 34 l 1
 45 34 l 1
 45 35 l 1
 46 35 l 1
 46 33 l 1
49 33 m 1
 47 33 l 1
 47 35 l 1
 49 35 l 1
 49 33 l 1
49 37 m 1
 47 37 l 1
 47 39 l 1
 49 39 l 1
 49 37 l 1
63 25 m 1
 61 25 l 1
 61 27 l 1
 63 27 l 1
 63 25 l 1
63 29 m 1
 61 29 l 1
 61 31 l 1
 63 31 l 1
 63 29 l 1
63 33 m 1
 61 33 l 1
 61 35 l 1
 63 35 l 1
 63 33 l 1
63 37 m 1
 61 37 l 1
 61 39 l 1
 63 39 l 1
 63 37 l 1
12 41 m 1
 10 41 l 1
 10 43 l 1
 11 43 l 1
 11 42 l 1
 12 42 l 1
 12 41 l 1
14 41 m 1
 13 41 l 1
 13 42 l 1
 12 42 l 1
 12 43 l 1
 14 43 l 1
 14 41 l 1
17 41 m 1
 15 41 l 1
 15 43 l 1
 17 43 l 1
 17 41 l 1
23 41 m 1
 21 41 l 1
 21 43 l 1
 23 43 l 1
 23 41 l 1
26 41 m 1
 24 41 l 1
 24 43 l 1
 25 43 l 1
 25 42 l 1
 26 42 l 1
 26 41 l 1
28 41 m 1
 27 41 l 1
 27 42 l 1
 26 42 l 1
 26 43 l 1
 28 43 l 1
 28 41 l 1
31 41 m 1
 29 41 l 1
 29 43 l 1
 31 43 l 1
 31 41 l 1
41 41 m 1
 39 41 l 1
 39 43 l 1
 41 43 l 1
 41 41 l 1
44 41 m 1
 42 41 l 1
 42 43 l 1
 43 43 l 1
 43 42 l 1
 44 42 l 1
 44 41 l 1
46 41 m 1
 45 41 l 1
 45 42 l 1
 44 42 l 1
 44 43 l 1
 46 43 l 1
 46 41 l 1
49 41 m 1
 47 41 l 1
 47 43 l 1
 49 43 l 1
 49 41 l 1
63 41 m 1
 61 41 l 1
 61 43 l 1
 63 43 l 1
 63 41 l 1
EndSplineSet
Ligature2: "'liga' Standard Ligatures in Latin lookup 0-1" three one zero four seven
LCarets2: 1 0
EndChar

StartChar: custom_3_1_0_4_8
Encoding: 9604 -1 9359
Width: 70
Flags: H
LayerCount: 2
Fore
SplineSet
9 25 m 1
 7 25 l 1
 7 27 l 1
 9 27 l 1
 9 25 l 1
9 29 m 1
 7 29 l 1
 7 31 l 1
 9 31 l 1
 9 29 l 1
9 33 m 1
 7 33 l 1
 7 35 l 1
 9 35 l 1
 9 33 l 1
9 37 m 1
 7 37 l 1
 7 39 l 1
 9 39 l 1
 9 37 l 1
9 41 m 1
 7 41 l 1
 7 43 l 1
 9 43 l 1
 9 41 l 1
12 25 m 1
 10 25 l 1
 10 27 l 1
 11 27 l 1
 11 26 l 1
 12 26 l 1
 12 25 l 1
14 25 m 1
 13 25 l 1
 13 26 l 1
 12 26 l 1
 12 27 l 1
 14 27 l 1
 14 25 l 1
17 25 m 1
 15 25 l 1
 15 27 l 1
 17 27 l 1
 17 25 l 1
17 29 m 1
 15 29 l 1
 15 31 l 1
 17 31 l 1
 17 29 l 1
23 25 m 1
 21 25 l 1
 21 27 l 1
 23 27 l 1
 23 25 l 1
26 25 m 1
 24 25 l 1
 24 27 l 1
 25 27 l 1
 25 26 l 1
 26 26 l 1
 26 25 l 1
23 29 m 1
 21 29 l 1
 21 31 l 1
 23 31 l 1
 23 29 l 1
17 33 m 1
 15 33 l 1
 15 35 l 1
 17 35 l 1
 17 33 l 1
17 37 m 1
 15 37 l 1
 15 39 l 1
 17 39 l 1
 17 37 l 1
23 33 m 1
 21 33 l 1
 21 35 l 1
 23 35 l 1
 23 33 l 1
23 37 m 1
 21 37 l 1
 21 39 l 1
 23 39 l 1
 23 37 l 1
28 25 m 1
 27 25 l 1
 27 26 l 1
 26 26 l 1
 26 27 l 1
 28 27 l 1
 28 25 l 1
31 25 m 1
 29 25 l 1
 29 27 l 1
 31 27 l 1
 31 25 l 1
31 29 m 1
 29 29 l 1
 29 31 l 1
 31 31 l 1
 31 29 l 1
41 25 m 1
 39 25 l 1
 39 27 l 1
 41 27 l 1
 41 25 l 1
36 31 m 1
 34 31 l 1
 34 33 l 1
 36 33 l 1
 36 31 l 1
31 33 m 1
 29 33 l 1
 29 35 l 1
 31 35 l 1
 31 33 l 1
31 37 m 1
 29 37 l 1
 29 39 l 1
 31 39 l 1
 31 37 l 1
36 35 m 1
 34 35 l 1
 34 37 l 1
 36 37 l 1
 36 35 l 1
41 33 m 1
 39 33 l 1
 39 35 l 1
 41 35 l 1
 41 33 l 1
44 25 m 1
 42 25 l 1
 42 27 l 1
 43 27 l 1
 43 26 l 1
 44 26 l 1
 44 25 l 1
46 25 m 1
 45 25 l 1
 45 26 l 1
 44 26 l 1
 44 27 l 1
 46 27 l 1
 46 25 l 1
49 25 m 1
 47 25 l 1
 47 27 l 1
 49 27 l 1
 49 25 l 1
49 29 m 1
 47 29 l 1
 47 31 l 1
 49 31 l 1
 49 29 l 1
43 33 m 1
 42 33 l 1
 42 35 l 1
 44 35 l 1
 44 34 l 1
 43 34 l 1
 43 33 l 1
46 33 m 1
 44 33 l 1
 44 34 l 1
 45 34 l 1
 45 35 l 1
 46 35 l 1
 46 33 l 1
49 33 m 1
 47 33 l 1
 47 35 l 1
 49 35 l 1
 49 33 l 1
49 37 m 1
 47 37 l 1
 47 39 l 1
 49 39 l 1
 49 37 l 1
63 25 m 1
 61 25 l 1
 61 27 l 1
 63 27 l 1
 63 25 l 1
63 29 m 1
 61 29 l 1
 61 31 l 1
 63 31 l 1
 63 29 l 1
63 33 m 1
 61 33 l 1
 61 35 l 1
 63 35 l 1
 63 33 l 1
63 37 m 1
 61 37 l 1
 61 39 l 1
 63 39 l 1
 63 37 l 1
12 41 m 1
 10 41 l 1
 10 43 l 1
 11 43 l 1
 11 42 l 1
 12 42 l 1
 12 41 l 1
14 41 m 1
 13 41 l 1
 13 42 l 1
 12 42 l 1
 12 43 l 1
 14 43 l 1
 14 41 l 1
17 41 m 1
 15 41 l 1
 15 43 l 1
 17 43 l 1
 17 41 l 1
23 41 m 1
 21 41 l 1
 21 43 l 1
 23 43 l 1
 23 41 l 1
26 41 m 1
 24 41 l 1
 24 43 l 1
 25 43 l 1
 25 42 l 1
 26 42 l 1
 26 41 l 1
28 41 m 1
 27 41 l 1
 27 42 l 1
 26 42 l 1
 26 43 l 1
 28 43 l 1
 28 41 l 1
31 41 m 1
 29 41 l 1
 29 43 l 1
 31 43 l 1
 31 41 l 1
41 41 m 1
 39 41 l 1
 39 43 l 1
 41 43 l 1
 41 41 l 1
44 41 m 1
 42 41 l 1
 42 43 l 1
 43 43 l 1
 43 42 l 1
 44 42 l 1
 44 41 l 1
46 41 m 1
 45 41 l 1
 45 42 l 1
 44 42 l 1
 44 43 l 1
 46 43 l 1
 46 41 l 1
49 41 m 1
 47 41 l 1
 47 43 l 1
 49 43 l 1
 49 41 l 1
63 41 m 1
 61 41 l 1
 61 43 l 1
 63 43 l 1
 63 41 l 1
EndSplineSet
Ligature2: "'liga' Standard Ligatures in Latin lookup 0-1" three one zero four eight
LCarets2: 1 0
EndChar

StartChar: custom_3_1_0_4_9
Encoding: 9605 -1 9360
Width: 70
Flags: H
LayerCount: 2
Fore
SplineSet
9 25 m 1
 7 25 l 1
 7 27 l 1
 9 27 l 1
 9 25 l 1
9 29 m 1
 7 29 l 1
 7 31 l 1
 9 31 l 1
 9 29 l 1
9 33 m 1
 7 33 l 1
 7 35 l 1
 9 35 l 1
 9 33 l 1
9 37 m 1
 7 37 l 1
 7 39 l 1
 9 39 l 1
 9 37 l 1
9 41 m 1
 7 41 l 1
 7 43 l 1
 9 43 l 1
 9 41 l 1
12 25 m 1
 10 25 l 1
 10 27 l 1
 11 27 l 1
 11 26 l 1
 12 26 l 1
 12 25 l 1
14 25 m 1
 13 25 l 1
 13 26 l 1
 12 26 l 1
 12 27 l 1
 14 27 l 1
 14 25 l 1
17 25 m 1
 15 25 l 1
 15 27 l 1
 17 27 l 1
 17 25 l 1
17 29 m 1
 15 29 l 1
 15 31 l 1
 17 31 l 1
 17 29 l 1
23 25 m 1
 21 25 l 1
 21 27 l 1
 23 27 l 1
 23 25 l 1
26 25 m 1
 24 25 l 1
 24 27 l 1
 25 27 l 1
 25 26 l 1
 26 26 l 1
 26 25 l 1
23 29 m 1
 21 29 l 1
 21 31 l 1
 23 31 l 1
 23 29 l 1
17 33 m 1
 15 33 l 1
 15 35 l 1
 17 35 l 1
 17 33 l 1
17 37 m 1
 15 37 l 1
 15 39 l 1
 17 39 l 1
 17 37 l 1
23 33 m 1
 21 33 l 1
 21 35 l 1
 23 35 l 1
 23 33 l 1
23 37 m 1
 21 37 l 1
 21 39 l 1
 23 39 l 1
 23 37 l 1
28 25 m 1
 27 25 l 1
 27 26 l 1
 26 26 l 1
 26 27 l 1
 28 27 l 1
 28 25 l 1
31 25 m 1
 29 25 l 1
 29 27 l 1
 31 27 l 1
 31 25 l 1
31 29 m 1
 29 29 l 1
 29 31 l 1
 31 31 l 1
 31 29 l 1
41 25 m 1
 39 25 l 1
 39 27 l 1
 41 27 l 1
 41 25 l 1
36 31 m 1
 34 31 l 1
 34 33 l 1
 36 33 l 1
 36 31 l 1
31 33 m 1
 29 33 l 1
 29 35 l 1
 31 35 l 1
 31 33 l 1
31 37 m 1
 29 37 l 1
 29 39 l 1
 31 39 l 1
 31 37 l 1
36 35 m 1
 34 35 l 1
 34 37 l 1
 36 37 l 1
 36 35 l 1
41 33 m 1
 39 33 l 1
 39 35 l 1
 41 35 l 1
 41 33 l 1
44 25 m 1
 42 25 l 1
 42 27 l 1
 43 27 l 1
 43 26 l 1
 44 26 l 1
 44 25 l 1
46 25 m 1
 45 25 l 1
 45 26 l 1
 44 26 l 1
 44 27 l 1
 46 27 l 1
 46 25 l 1
49 25 m 1
 47 25 l 1
 47 27 l 1
 49 27 l 1
 49 25 l 1
49 29 m 1
 47 29 l 1
 47 31 l 1
 49 31 l 1
 49 29 l 1
43 33 m 1
 42 33 l 1
 42 35 l 1
 44 35 l 1
 44 34 l 1
 43 34 l 1
 43 33 l 1
46 33 m 1
 44 33 l 1
 44 34 l 1
 45 34 l 1
 45 35 l 1
 46 35 l 1
 46 33 l 1
49 33 m 1
 47 33 l 1
 47 35 l 1
 49 35 l 1
 49 33 l 1
49 37 m 1
 47 37 l 1
 47 39 l 1
 49 39 l 1
 49 37 l 1
63 25 m 1
 61 25 l 1
 61 27 l 1
 63 27 l 1
 63 25 l 1
63 29 m 1
 61 29 l 1
 61 31 l 1
 63 31 l 1
 63 29 l 1
63 33 m 1
 61 33 l 1
 61 35 l 1
 63 35 l 1
 63 33 l 1
63 37 m 1
 61 37 l 1
 61 39 l 1
 63 39 l 1
 63 37 l 1
12 41 m 1
 10 41 l 1
 10 43 l 1
 11 43 l 1
 11 42 l 1
 12 42 l 1
 12 41 l 1
14 41 m 1
 13 41 l 1
 13 42 l 1
 12 42 l 1
 12 43 l 1
 14 43 l 1
 14 41 l 1
17 41 m 1
 15 41 l 1
 15 43 l 1
 17 43 l 1
 17 41 l 1
23 41 m 1
 21 41 l 1
 21 43 l 1
 23 43 l 1
 23 41 l 1
26 41 m 1
 24 41 l 1
 24 43 l 1
 25 43 l 1
 25 42 l 1
 26 42 l 1
 26 41 l 1
28 41 m 1
 27 41 l 1
 27 42 l 1
 26 42 l 1
 26 43 l 1
 28 43 l 1
 28 41 l 1
31 41 m 1
 29 41 l 1
 29 43 l 1
 31 43 l 1
 31 41 l 1
41 41 m 1
 39 41 l 1
 39 43 l 1
 41 43 l 1
 41 41 l 1
44 41 m 1
 42 41 l 1
 42 43 l 1
 43 43 l 1
 43 42 l 1
 44 42 l 1
 44 41 l 1
46 41 m 1
 45 41 l 1
 45 42 l 1
 44 42 l 1
 44 43 l 1
 46 43 l 1
 46 41 l 1
49 41 m 1
 47 41 l 1
 47 43 l 1
 49 43 l 1
 49 41 l 1
63 41 m 1
 61 41 l 1
 61 43 l 1
 63 43 l 1
 63 41 l 1
EndSplineSet
Ligature2: "'liga' Standard Ligatures in Latin lookup 0-1" three one zero four nine
LCarets2: 1 0
EndChar

StartChar: custom_3_1_0_5_0
Encoding: 9606 -1 9361
Width: 70
Flags: H
LayerCount: 2
Fore
SplineSet
9 25 m 1
 7 25 l 1
 7 27 l 1
 9 27 l 1
 9 25 l 1
9 29 m 1
 7 29 l 1
 7 31 l 1
 9 31 l 1
 9 29 l 1
9 33 m 1
 7 33 l 1
 7 35 l 1
 9 35 l 1
 9 33 l 1
9 37 m 1
 7 37 l 1
 7 39 l 1
 9 39 l 1
 9 37 l 1
9 41 m 1
 7 41 l 1
 7 43 l 1
 9 43 l 1
 9 41 l 1
12 25 m 1
 10 25 l 1
 10 27 l 1
 11 27 l 1
 11 26 l 1
 12 26 l 1
 12 25 l 1
14 25 m 1
 13 25 l 1
 13 26 l 1
 12 26 l 1
 12 27 l 1
 14 27 l 1
 14 25 l 1
17 25 m 1
 15 25 l 1
 15 27 l 1
 17 27 l 1
 17 25 l 1
17 29 m 1
 15 29 l 1
 15 31 l 1
 17 31 l 1
 17 29 l 1
23 25 m 1
 21 25 l 1
 21 27 l 1
 23 27 l 1
 23 25 l 1
26 25 m 1
 24 25 l 1
 24 27 l 1
 25 27 l 1
 25 26 l 1
 26 26 l 1
 26 25 l 1
23 29 m 1
 21 29 l 1
 21 31 l 1
 23 31 l 1
 23 29 l 1
17 33 m 1
 15 33 l 1
 15 35 l 1
 17 35 l 1
 17 33 l 1
17 37 m 1
 15 37 l 1
 15 39 l 1
 17 39 l 1
 17 37 l 1
23 33 m 1
 21 33 l 1
 21 35 l 1
 23 35 l 1
 23 33 l 1
23 37 m 1
 21 37 l 1
 21 39 l 1
 23 39 l 1
 23 37 l 1
28 25 m 1
 27 25 l 1
 27 26 l 1
 26 26 l 1
 26 27 l 1
 28 27 l 1
 28 25 l 1
31 25 m 1
 29 25 l 1
 29 27 l 1
 31 27 l 1
 31 25 l 1
31 29 m 1
 29 29 l 1
 29 31 l 1
 31 31 l 1
 31 29 l 1
41 25 m 1
 39 25 l 1
 39 27 l 1
 41 27 l 1
 41 25 l 1
36 31 m 1
 34 31 l 1
 34 33 l 1
 36 33 l 1
 36 31 l 1
31 33 m 1
 29 33 l 1
 29 35 l 1
 31 35 l 1
 31 33 l 1
31 37 m 1
 29 37 l 1
 29 39 l 1
 31 39 l 1
 31 37 l 1
36 35 m 1
 34 35 l 1
 34 37 l 1
 36 37 l 1
 36 35 l 1
41 33 m 1
 39 33 l 1
 39 35 l 1
 41 35 l 1
 41 33 l 1
44 25 m 1
 42 25 l 1
 42 27 l 1
 43 27 l 1
 43 26 l 1
 44 26 l 1
 44 25 l 1
46 25 m 1
 45 25 l 1
 45 26 l 1
 44 26 l 1
 44 27 l 1
 46 27 l 1
 46 25 l 1
49 25 m 1
 47 25 l 1
 47 27 l 1
 49 27 l 1
 49 25 l 1
49 29 m 1
 47 29 l 1
 47 31 l 1
 49 31 l 1
 49 29 l 1
43 33 m 1
 42 33 l 1
 42 35 l 1
 44 35 l 1
 44 34 l 1
 43 34 l 1
 43 33 l 1
46 33 m 1
 44 33 l 1
 44 34 l 1
 45 34 l 1
 45 35 l 1
 46 35 l 1
 46 33 l 1
49 33 m 1
 47 33 l 1
 47 35 l 1
 49 35 l 1
 49 33 l 1
49 37 m 1
 47 37 l 1
 47 39 l 1
 49 39 l 1
 49 37 l 1
63 25 m 1
 61 25 l 1
 61 27 l 1
 63 27 l 1
 63 25 l 1
63 29 m 1
 61 29 l 1
 61 31 l 1
 63 31 l 1
 63 29 l 1
63 33 m 1
 61 33 l 1
 61 35 l 1
 63 35 l 1
 63 33 l 1
63 37 m 1
 61 37 l 1
 61 39 l 1
 63 39 l 1
 63 37 l 1
12 41 m 1
 10 41 l 1
 10 43 l 1
 11 43 l 1
 11 42 l 1
 12 42 l 1
 12 41 l 1
14 41 m 1
 13 41 l 1
 13 42 l 1
 12 42 l 1
 12 43 l 1
 14 43 l 1
 14 41 l 1
17 41 m 1
 15 41 l 1
 15 43 l 1
 17 43 l 1
 17 41 l 1
23 41 m 1
 21 41 l 1
 21 43 l 1
 23 43 l 1
 23 41 l 1
26 41 m 1
 24 41 l 1
 24 43 l 1
 25 43 l 1
 25 42 l 1
 26 42 l 1
 26 41 l 1
28 41 m 1
 27 41 l 1
 27 42 l 1
 26 42 l 1
 26 43 l 1
 28 43 l 1
 28 41 l 1
31 41 m 1
 29 41 l 1
 29 43 l 1
 31 43 l 1
 31 41 l 1
41 41 m 1
 39 41 l 1
 39 43 l 1
 41 43 l 1
 41 41 l 1
44 41 m 1
 42 41 l 1
 42 43 l 1
 43 43 l 1
 43 42 l 1
 44 42 l 1
 44 41 l 1
46 41 m 1
 45 41 l 1
 45 42 l 1
 44 42 l 1
 44 43 l 1
 46 43 l 1
 46 41 l 1
49 41 m 1
 47 41 l 1
 47 43 l 1
 49 43 l 1
 49 41 l 1
63 41 m 1
 61 41 l 1
 61 43 l 1
 63 43 l 1
 63 41 l 1
EndSplineSet
Ligature2: "'liga' Standard Ligatures in Latin lookup 0-1" three one zero five zero
LCarets2: 1 0
EndChar

StartChar: custom_3_1_0_5_1
Encoding: 9607 -1 9362
Width: 70
Flags: H
LayerCount: 2
Fore
SplineSet
9 25 m 1
 7 25 l 1
 7 27 l 1
 9 27 l 1
 9 25 l 1
9 29 m 1
 7 29 l 1
 7 31 l 1
 9 31 l 1
 9 29 l 1
9 33 m 1
 7 33 l 1
 7 35 l 1
 9 35 l 1
 9 33 l 1
9 37 m 1
 7 37 l 1
 7 39 l 1
 9 39 l 1
 9 37 l 1
9 41 m 1
 7 41 l 1
 7 43 l 1
 9 43 l 1
 9 41 l 1
12 25 m 1
 10 25 l 1
 10 27 l 1
 11 27 l 1
 11 26 l 1
 12 26 l 1
 12 25 l 1
14 25 m 1
 13 25 l 1
 13 26 l 1
 12 26 l 1
 12 27 l 1
 14 27 l 1
 14 25 l 1
17 25 m 1
 15 25 l 1
 15 27 l 1
 17 27 l 1
 17 25 l 1
17 29 m 1
 15 29 l 1
 15 31 l 1
 17 31 l 1
 17 29 l 1
23 25 m 1
 21 25 l 1
 21 27 l 1
 23 27 l 1
 23 25 l 1
26 25 m 1
 24 25 l 1
 24 27 l 1
 25 27 l 1
 25 26 l 1
 26 26 l 1
 26 25 l 1
23 29 m 1
 21 29 l 1
 21 31 l 1
 23 31 l 1
 23 29 l 1
17 33 m 1
 15 33 l 1
 15 35 l 1
 17 35 l 1
 17 33 l 1
17 37 m 1
 15 37 l 1
 15 39 l 1
 17 39 l 1
 17 37 l 1
23 33 m 1
 21 33 l 1
 21 35 l 1
 23 35 l 1
 23 33 l 1
23 37 m 1
 21 37 l 1
 21 39 l 1
 23 39 l 1
 23 37 l 1
28 25 m 1
 27 25 l 1
 27 26 l 1
 26 26 l 1
 26 27 l 1
 28 27 l 1
 28 25 l 1
31 25 m 1
 29 25 l 1
 29 27 l 1
 31 27 l 1
 31 25 l 1
31 29 m 1
 29 29 l 1
 29 31 l 1
 31 31 l 1
 31 29 l 1
41 25 m 1
 39 25 l 1
 39 27 l 1
 41 27 l 1
 41 25 l 1
36 31 m 1
 34 31 l 1
 34 33 l 1
 36 33 l 1
 36 31 l 1
31 33 m 1
 29 33 l 1
 29 35 l 1
 31 35 l 1
 31 33 l 1
31 37 m 1
 29 37 l 1
 29 39 l 1
 31 39 l 1
 31 37 l 1
36 35 m 1
 34 35 l 1
 34 37 l 1
 36 37 l 1
 36 35 l 1
41 33 m 1
 39 33 l 1
 39 35 l 1
 41 35 l 1
 41 33 l 1
44 25 m 1
 42 25 l 1
 42 27 l 1
 43 27 l 1
 43 26 l 1
 44 26 l 1
 44 25 l 1
46 25 m 1
 45 25 l 1
 45 26 l 1
 44 26 l 1
 44 27 l 1
 46 27 l 1
 46 25 l 1
49 25 m 1
 47 25 l 1
 47 27 l 1
 49 27 l 1
 49 25 l 1
49 29 m 1
 47 29 l 1
 47 31 l 1
 49 31 l 1
 49 29 l 1
43 33 m 1
 42 33 l 1
 42 35 l 1
 44 35 l 1
 44 34 l 1
 43 34 l 1
 43 33 l 1
46 33 m 1
 44 33 l 1
 44 34 l 1
 45 34 l 1
 45 35 l 1
 46 35 l 1
 46 33 l 1
49 33 m 1
 47 33 l 1
 47 35 l 1
 49 35 l 1
 49 33 l 1
49 37 m 1
 47 37 l 1
 47 39 l 1
 49 39 l 1
 49 37 l 1
63 25 m 1
 61 25 l 1
 61 27 l 1
 63 27 l 1
 63 25 l 1
63 29 m 1
 61 29 l 1
 61 31 l 1
 63 31 l 1
 63 29 l 1
63 33 m 1
 61 33 l 1
 61 35 l 1
 63 35 l 1
 63 33 l 1
63 37 m 1
 61 37 l 1
 61 39 l 1
 63 39 l 1
 63 37 l 1
12 41 m 1
 10 41 l 1
 10 43 l 1
 11 43 l 1
 11 42 l 1
 12 42 l 1
 12 41 l 1
14 41 m 1
 13 41 l 1
 13 42 l 1
 12 42 l 1
 12 43 l 1
 14 43 l 1
 14 41 l 1
17 41 m 1
 15 41 l 1
 15 43 l 1
 17 43 l 1
 17 41 l 1
23 41 m 1
 21 41 l 1
 21 43 l 1
 23 43 l 1
 23 41 l 1
26 41 m 1
 24 41 l 1
 24 43 l 1
 25 43 l 1
 25 42 l 1
 26 42 l 1
 26 41 l 1
28 41 m 1
 27 41 l 1
 27 42 l 1
 26 42 l 1
 26 43 l 1
 28 43 l 1
 28 41 l 1
31 41 m 1
 29 41 l 1
 29 43 l 1
 31 43 l 1
 31 41 l 1
41 41 m 1
 39 41 l 1
 39 43 l 1
 41 43 l 1
 41 41 l 1
44 41 m 1
 42 41 l 1
 42 43 l 1
 43 43 l 1
 43 42 l 1
 44 42 l 1
 44 41 l 1
46 41 m 1
 45 41 l 1
 45 42 l 1
 44 42 l 1
 44 43 l 1
 46 43 l 1
 46 41 l 1
49 41 m 1
 47 41 l 1
 47 43 l 1
 49 43 l 1
 49 41 l 1
63 41 m 1
 61 41 l 1
 61 43 l 1
 63 43 l 1
 63 41 l 1
EndSplineSet
Ligature2: "'liga' Standard Ligatures in Latin lookup 0-1" three one zero five one
LCarets2: 1 0
EndChar

StartChar: custom_3_1_0_5_2
Encoding: 9608 -1 9363
Width: 70
Flags: H
LayerCount: 2
Fore
SplineSet
9 25 m 1
 7 25 l 1
 7 27 l 1
 9 27 l 1
 9 25 l 1
9 29 m 1
 7 29 l 1
 7 31 l 1
 9 31 l 1
 9 29 l 1
9 33 m 1
 7 33 l 1
 7 35 l 1
 9 35 l 1
 9 33 l 1
9 37 m 1
 7 37 l 1
 7 39 l 1
 9 39 l 1
 9 37 l 1
9 41 m 1
 7 41 l 1
 7 43 l 1
 9 43 l 1
 9 41 l 1
12 25 m 1
 10 25 l 1
 10 27 l 1
 11 27 l 1
 11 26 l 1
 12 26 l 1
 12 25 l 1
14 25 m 1
 13 25 l 1
 13 26 l 1
 12 26 l 1
 12 27 l 1
 14 27 l 1
 14 25 l 1
17 25 m 1
 15 25 l 1
 15 27 l 1
 17 27 l 1
 17 25 l 1
17 29 m 1
 15 29 l 1
 15 31 l 1
 17 31 l 1
 17 29 l 1
23 25 m 1
 21 25 l 1
 21 27 l 1
 23 27 l 1
 23 25 l 1
26 25 m 1
 24 25 l 1
 24 27 l 1
 25 27 l 1
 25 26 l 1
 26 26 l 1
 26 25 l 1
23 29 m 1
 21 29 l 1
 21 31 l 1
 23 31 l 1
 23 29 l 1
17 33 m 1
 15 33 l 1
 15 35 l 1
 17 35 l 1
 17 33 l 1
17 37 m 1
 15 37 l 1
 15 39 l 1
 17 39 l 1
 17 37 l 1
23 33 m 1
 21 33 l 1
 21 35 l 1
 23 35 l 1
 23 33 l 1
23 37 m 1
 21 37 l 1
 21 39 l 1
 23 39 l 1
 23 37 l 1
28 25 m 1
 27 25 l 1
 27 26 l 1
 26 26 l 1
 26 27 l 1
 28 27 l 1
 28 25 l 1
31 25 m 1
 29 25 l 1
 29 27 l 1
 31 27 l 1
 31 25 l 1
31 29 m 1
 29 29 l 1
 29 31 l 1
 31 31 l 1
 31 29 l 1
41 25 m 1
 39 25 l 1
 39 27 l 1
 41 27 l 1
 41 25 l 1
36 31 m 1
 34 31 l 1
 34 33 l 1
 36 33 l 1
 36 31 l 1
31 33 m 1
 29 33 l 1
 29 35 l 1
 31 35 l 1
 31 33 l 1
31 37 m 1
 29 37 l 1
 29 39 l 1
 31 39 l 1
 31 37 l 1
36 35 m 1
 34 35 l 1
 34 37 l 1
 36 37 l 1
 36 35 l 1
41 33 m 1
 39 33 l 1
 39 35 l 1
 41 35 l 1
 41 33 l 1
44 25 m 1
 42 25 l 1
 42 27 l 1
 43 27 l 1
 43 26 l 1
 44 26 l 1
 44 25 l 1
46 25 m 1
 45 25 l 1
 45 26 l 1
 44 26 l 1
 44 27 l 1
 46 27 l 1
 46 25 l 1
49 25 m 1
 47 25 l 1
 47 27 l 1
 49 27 l 1
 49 25 l 1
49 29 m 1
 47 29 l 1
 47 31 l 1
 49 31 l 1
 49 29 l 1
43 33 m 1
 42 33 l 1
 42 35 l 1
 44 35 l 1
 44 34 l 1
 43 34 l 1
 43 33 l 1
46 33 m 1
 44 33 l 1
 44 34 l 1
 45 34 l 1
 45 35 l 1
 46 35 l 1
 46 33 l 1
49 33 m 1
 47 33 l 1
 47 35 l 1
 49 35 l 1
 49 33 l 1
49 37 m 1
 47 37 l 1
 47 39 l 1
 49 39 l 1
 49 37 l 1
63 25 m 1
 61 25 l 1
 61 27 l 1
 63 27 l 1
 63 25 l 1
63 29 m 1
 61 29 l 1
 61 31 l 1
 63 31 l 1
 63 29 l 1
63 33 m 1
 61 33 l 1
 61 35 l 1
 63 35 l 1
 63 33 l 1
63 37 m 1
 61 37 l 1
 61 39 l 1
 63 39 l 1
 63 37 l 1
12 41 m 1
 10 41 l 1
 10 43 l 1
 11 43 l 1
 11 42 l 1
 12 42 l 1
 12 41 l 1
14 41 m 1
 13 41 l 1
 13 42 l 1
 12 42 l 1
 12 43 l 1
 14 43 l 1
 14 41 l 1
17 41 m 1
 15 41 l 1
 15 43 l 1
 17 43 l 1
 17 41 l 1
23 41 m 1
 21 41 l 1
 21 43 l 1
 23 43 l 1
 23 41 l 1
26 41 m 1
 24 41 l 1
 24 43 l 1
 25 43 l 1
 25 42 l 1
 26 42 l 1
 26 41 l 1
28 41 m 1
 27 41 l 1
 27 42 l 1
 26 42 l 1
 26 43 l 1
 28 43 l 1
 28 41 l 1
31 41 m 1
 29 41 l 1
 29 43 l 1
 31 43 l 1
 31 41 l 1
41 41 m 1
 39 41 l 1
 39 43 l 1
 41 43 l 1
 41 41 l 1
44 41 m 1
 42 41 l 1
 42 43 l 1
 43 43 l 1
 43 42 l 1
 44 42 l 1
 44 41 l 1
46 41 m 1
 45 41 l 1
 45 42 l 1
 44 42 l 1
 44 43 l 1
 46 43 l 1
 46 41 l 1
49 41 m 1
 47 41 l 1
 47 43 l 1
 49 43 l 1
 49 41 l 1
63 41 m 1
 61 41 l 1
 61 43 l 1
 63 43 l 1
 63 41 l 1
EndSplineSet
Ligature2: "'liga' Standard Ligatures in Latin lookup 0-1" three one zero five two
LCarets2: 1 0
EndChar

StartChar: custom_3_1_0_5_3
Encoding: 9609 -1 9364
Width: 70
Flags: H
LayerCount: 2
Fore
SplineSet
9 25 m 1
 7 25 l 1
 7 27 l 1
 9 27 l 1
 9 25 l 1
9 29 m 1
 7 29 l 1
 7 31 l 1
 9 31 l 1
 9 29 l 1
9 33 m 1
 7 33 l 1
 7 35 l 1
 9 35 l 1
 9 33 l 1
9 37 m 1
 7 37 l 1
 7 39 l 1
 9 39 l 1
 9 37 l 1
9 41 m 1
 7 41 l 1
 7 43 l 1
 9 43 l 1
 9 41 l 1
12 25 m 1
 10 25 l 1
 10 27 l 1
 11 27 l 1
 11 26 l 1
 12 26 l 1
 12 25 l 1
14 25 m 1
 13 25 l 1
 13 26 l 1
 12 26 l 1
 12 27 l 1
 14 27 l 1
 14 25 l 1
17 25 m 1
 15 25 l 1
 15 27 l 1
 17 27 l 1
 17 25 l 1
17 29 m 1
 15 29 l 1
 15 31 l 1
 17 31 l 1
 17 29 l 1
23 25 m 1
 21 25 l 1
 21 27 l 1
 23 27 l 1
 23 25 l 1
26 25 m 1
 24 25 l 1
 24 27 l 1
 25 27 l 1
 25 26 l 1
 26 26 l 1
 26 25 l 1
23 29 m 1
 21 29 l 1
 21 31 l 1
 23 31 l 1
 23 29 l 1
17 33 m 1
 15 33 l 1
 15 35 l 1
 17 35 l 1
 17 33 l 1
17 37 m 1
 15 37 l 1
 15 39 l 1
 17 39 l 1
 17 37 l 1
23 33 m 1
 21 33 l 1
 21 35 l 1
 23 35 l 1
 23 33 l 1
23 37 m 1
 21 37 l 1
 21 39 l 1
 23 39 l 1
 23 37 l 1
28 25 m 1
 27 25 l 1
 27 26 l 1
 26 26 l 1
 26 27 l 1
 28 27 l 1
 28 25 l 1
31 25 m 1
 29 25 l 1
 29 27 l 1
 31 27 l 1
 31 25 l 1
31 29 m 1
 29 29 l 1
 29 31 l 1
 31 31 l 1
 31 29 l 1
41 25 m 1
 39 25 l 1
 39 27 l 1
 41 27 l 1
 41 25 l 1
36 31 m 1
 34 31 l 1
 34 33 l 1
 36 33 l 1
 36 31 l 1
31 33 m 1
 29 33 l 1
 29 35 l 1
 31 35 l 1
 31 33 l 1
31 37 m 1
 29 37 l 1
 29 39 l 1
 31 39 l 1
 31 37 l 1
36 35 m 1
 34 35 l 1
 34 37 l 1
 36 37 l 1
 36 35 l 1
41 33 m 1
 39 33 l 1
 39 35 l 1
 41 35 l 1
 41 33 l 1
44 25 m 1
 42 25 l 1
 42 27 l 1
 43 27 l 1
 43 26 l 1
 44 26 l 1
 44 25 l 1
46 25 m 1
 45 25 l 1
 45 26 l 1
 44 26 l 1
 44 27 l 1
 46 27 l 1
 46 25 l 1
49 25 m 1
 47 25 l 1
 47 27 l 1
 49 27 l 1
 49 25 l 1
49 29 m 1
 47 29 l 1
 47 31 l 1
 49 31 l 1
 49 29 l 1
43 33 m 1
 42 33 l 1
 42 35 l 1
 44 35 l 1
 44 34 l 1
 43 34 l 1
 43 33 l 1
46 33 m 1
 44 33 l 1
 44 34 l 1
 45 34 l 1
 45 35 l 1
 46 35 l 1
 46 33 l 1
49 33 m 1
 47 33 l 1
 47 35 l 1
 49 35 l 1
 49 33 l 1
49 37 m 1
 47 37 l 1
 47 39 l 1
 49 39 l 1
 49 37 l 1
63 25 m 1
 61 25 l 1
 61 27 l 1
 63 27 l 1
 63 25 l 1
63 29 m 1
 61 29 l 1
 61 31 l 1
 63 31 l 1
 63 29 l 1
63 33 m 1
 61 33 l 1
 61 35 l 1
 63 35 l 1
 63 33 l 1
63 37 m 1
 61 37 l 1
 61 39 l 1
 63 39 l 1
 63 37 l 1
12 41 m 1
 10 41 l 1
 10 43 l 1
 11 43 l 1
 11 42 l 1
 12 42 l 1
 12 41 l 1
14 41 m 1
 13 41 l 1
 13 42 l 1
 12 42 l 1
 12 43 l 1
 14 43 l 1
 14 41 l 1
17 41 m 1
 15 41 l 1
 15 43 l 1
 17 43 l 1
 17 41 l 1
23 41 m 1
 21 41 l 1
 21 43 l 1
 23 43 l 1
 23 41 l 1
26 41 m 1
 24 41 l 1
 24 43 l 1
 25 43 l 1
 25 42 l 1
 26 42 l 1
 26 41 l 1
28 41 m 1
 27 41 l 1
 27 42 l 1
 26 42 l 1
 26 43 l 1
 28 43 l 1
 28 41 l 1
31 41 m 1
 29 41 l 1
 29 43 l 1
 31 43 l 1
 31 41 l 1
41 41 m 1
 39 41 l 1
 39 43 l 1
 41 43 l 1
 41 41 l 1
44 41 m 1
 42 41 l 1
 42 43 l 1
 43 43 l 1
 43 42 l 1
 44 42 l 1
 44 41 l 1
46 41 m 1
 45 41 l 1
 45 42 l 1
 44 42 l 1
 44 43 l 1
 46 43 l 1
 46 41 l 1
49 41 m 1
 47 41 l 1
 47 43 l 1
 49 43 l 1
 49 41 l 1
63 41 m 1
 61 41 l 1
 61 43 l 1
 63 43 l 1
 63 41 l 1
EndSplineSet
Ligature2: "'liga' Standard Ligatures in Latin lookup 0-1" three one zero five three
LCarets2: 1 0
EndChar

StartChar: custom_3_1_0_5_4
Encoding: 9610 -1 9365
Width: 70
Flags: H
LayerCount: 2
Fore
SplineSet
9 25 m 1
 7 25 l 1
 7 27 l 1
 9 27 l 1
 9 25 l 1
9 29 m 1
 7 29 l 1
 7 31 l 1
 9 31 l 1
 9 29 l 1
9 33 m 1
 7 33 l 1
 7 35 l 1
 9 35 l 1
 9 33 l 1
9 37 m 1
 7 37 l 1
 7 39 l 1
 9 39 l 1
 9 37 l 1
9 41 m 1
 7 41 l 1
 7 43 l 1
 9 43 l 1
 9 41 l 1
12 25 m 1
 10 25 l 1
 10 27 l 1
 11 27 l 1
 11 26 l 1
 12 26 l 1
 12 25 l 1
14 25 m 1
 13 25 l 1
 13 26 l 1
 12 26 l 1
 12 27 l 1
 14 27 l 1
 14 25 l 1
17 25 m 1
 15 25 l 1
 15 27 l 1
 17 27 l 1
 17 25 l 1
17 29 m 1
 15 29 l 1
 15 31 l 1
 17 31 l 1
 17 29 l 1
23 25 m 1
 21 25 l 1
 21 27 l 1
 23 27 l 1
 23 25 l 1
26 25 m 1
 24 25 l 1
 24 27 l 1
 25 27 l 1
 25 26 l 1
 26 26 l 1
 26 25 l 1
23 29 m 1
 21 29 l 1
 21 31 l 1
 23 31 l 1
 23 29 l 1
17 33 m 1
 15 33 l 1
 15 35 l 1
 17 35 l 1
 17 33 l 1
17 37 m 1
 15 37 l 1
 15 39 l 1
 17 39 l 1
 17 37 l 1
23 33 m 1
 21 33 l 1
 21 35 l 1
 23 35 l 1
 23 33 l 1
23 37 m 1
 21 37 l 1
 21 39 l 1
 23 39 l 1
 23 37 l 1
28 25 m 1
 27 25 l 1
 27 26 l 1
 26 26 l 1
 26 27 l 1
 28 27 l 1
 28 25 l 1
31 25 m 1
 29 25 l 1
 29 27 l 1
 31 27 l 1
 31 25 l 1
31 29 m 1
 29 29 l 1
 29 31 l 1
 31 31 l 1
 31 29 l 1
41 25 m 1
 39 25 l 1
 39 27 l 1
 41 27 l 1
 41 25 l 1
36 31 m 1
 34 31 l 1
 34 33 l 1
 36 33 l 1
 36 31 l 1
31 33 m 1
 29 33 l 1
 29 35 l 1
 31 35 l 1
 31 33 l 1
31 37 m 1
 29 37 l 1
 29 39 l 1
 31 39 l 1
 31 37 l 1
36 35 m 1
 34 35 l 1
 34 37 l 1
 36 37 l 1
 36 35 l 1
41 33 m 1
 39 33 l 1
 39 35 l 1
 41 35 l 1
 41 33 l 1
44 25 m 1
 42 25 l 1
 42 27 l 1
 43 27 l 1
 43 26 l 1
 44 26 l 1
 44 25 l 1
46 25 m 1
 45 25 l 1
 45 26 l 1
 44 26 l 1
 44 27 l 1
 46 27 l 1
 46 25 l 1
49 25 m 1
 47 25 l 1
 47 27 l 1
 49 27 l 1
 49 25 l 1
49 29 m 1
 47 29 l 1
 47 31 l 1
 49 31 l 1
 49 29 l 1
43 33 m 1
 42 33 l 1
 42 35 l 1
 44 35 l 1
 44 34 l 1
 43 34 l 1
 43 33 l 1
46 33 m 1
 44 33 l 1
 44 34 l 1
 45 34 l 1
 45 35 l 1
 46 35 l 1
 46 33 l 1
49 33 m 1
 47 33 l 1
 47 35 l 1
 49 35 l 1
 49 33 l 1
49 37 m 1
 47 37 l 1
 47 39 l 1
 49 39 l 1
 49 37 l 1
63 25 m 1
 61 25 l 1
 61 27 l 1
 63 27 l 1
 63 25 l 1
63 29 m 1
 61 29 l 1
 61 31 l 1
 63 31 l 1
 63 29 l 1
63 33 m 1
 61 33 l 1
 61 35 l 1
 63 35 l 1
 63 33 l 1
63 37 m 1
 61 37 l 1
 61 39 l 1
 63 39 l 1
 63 37 l 1
12 41 m 1
 10 41 l 1
 10 43 l 1
 11 43 l 1
 11 42 l 1
 12 42 l 1
 12 41 l 1
14 41 m 1
 13 41 l 1
 13 42 l 1
 12 42 l 1
 12 43 l 1
 14 43 l 1
 14 41 l 1
17 41 m 1
 15 41 l 1
 15 43 l 1
 17 43 l 1
 17 41 l 1
23 41 m 1
 21 41 l 1
 21 43 l 1
 23 43 l 1
 23 41 l 1
26 41 m 1
 24 41 l 1
 24 43 l 1
 25 43 l 1
 25 42 l 1
 26 42 l 1
 26 41 l 1
28 41 m 1
 27 41 l 1
 27 42 l 1
 26 42 l 1
 26 43 l 1
 28 43 l 1
 28 41 l 1
31 41 m 1
 29 41 l 1
 29 43 l 1
 31 43 l 1
 31 41 l 1
41 41 m 1
 39 41 l 1
 39 43 l 1
 41 43 l 1
 41 41 l 1
44 41 m 1
 42 41 l 1
 42 43 l 1
 43 43 l 1
 43 42 l 1
 44 42 l 1
 44 41 l 1
46 41 m 1
 45 41 l 1
 45 42 l 1
 44 42 l 1
 44 43 l 1
 46 43 l 1
 46 41 l 1
49 41 m 1
 47 41 l 1
 47 43 l 1
 49 43 l 1
 49 41 l 1
63 41 m 1
 61 41 l 1
 61 43 l 1
 63 43 l 1
 63 41 l 1
EndSplineSet
Ligature2: "'liga' Standard Ligatures in Latin lookup 0-1" three one zero five four
LCarets2: 1 0
EndChar

StartChar: custom_3_1_0_5_5
Encoding: 9611 -1 9366
Width: 70
Flags: H
LayerCount: 2
Fore
SplineSet
9 25 m 1
 7 25 l 1
 7 27 l 1
 9 27 l 1
 9 25 l 1
9 29 m 1
 7 29 l 1
 7 31 l 1
 9 31 l 1
 9 29 l 1
9 33 m 1
 7 33 l 1
 7 35 l 1
 9 35 l 1
 9 33 l 1
9 37 m 1
 7 37 l 1
 7 39 l 1
 9 39 l 1
 9 37 l 1
9 41 m 1
 7 41 l 1
 7 43 l 1
 9 43 l 1
 9 41 l 1
12 25 m 1
 10 25 l 1
 10 27 l 1
 11 27 l 1
 11 26 l 1
 12 26 l 1
 12 25 l 1
14 25 m 1
 13 25 l 1
 13 26 l 1
 12 26 l 1
 12 27 l 1
 14 27 l 1
 14 25 l 1
17 25 m 1
 15 25 l 1
 15 27 l 1
 17 27 l 1
 17 25 l 1
17 29 m 1
 15 29 l 1
 15 31 l 1
 17 31 l 1
 17 29 l 1
23 25 m 1
 21 25 l 1
 21 27 l 1
 23 27 l 1
 23 25 l 1
26 25 m 1
 24 25 l 1
 24 27 l 1
 25 27 l 1
 25 26 l 1
 26 26 l 1
 26 25 l 1
23 29 m 1
 21 29 l 1
 21 31 l 1
 23 31 l 1
 23 29 l 1
17 33 m 1
 15 33 l 1
 15 35 l 1
 17 35 l 1
 17 33 l 1
17 37 m 1
 15 37 l 1
 15 39 l 1
 17 39 l 1
 17 37 l 1
23 33 m 1
 21 33 l 1
 21 35 l 1
 23 35 l 1
 23 33 l 1
23 37 m 1
 21 37 l 1
 21 39 l 1
 23 39 l 1
 23 37 l 1
28 25 m 1
 27 25 l 1
 27 26 l 1
 26 26 l 1
 26 27 l 1
 28 27 l 1
 28 25 l 1
31 25 m 1
 29 25 l 1
 29 27 l 1
 31 27 l 1
 31 25 l 1
31 29 m 1
 29 29 l 1
 29 31 l 1
 31 31 l 1
 31 29 l 1
41 25 m 1
 39 25 l 1
 39 27 l 1
 41 27 l 1
 41 25 l 1
36 31 m 1
 34 31 l 1
 34 33 l 1
 36 33 l 1
 36 31 l 1
31 33 m 1
 29 33 l 1
 29 35 l 1
 31 35 l 1
 31 33 l 1
31 37 m 1
 29 37 l 1
 29 39 l 1
 31 39 l 1
 31 37 l 1
36 35 m 1
 34 35 l 1
 34 37 l 1
 36 37 l 1
 36 35 l 1
41 33 m 1
 39 33 l 1
 39 35 l 1
 41 35 l 1
 41 33 l 1
44 25 m 1
 42 25 l 1
 42 27 l 1
 43 27 l 1
 43 26 l 1
 44 26 l 1
 44 25 l 1
46 25 m 1
 45 25 l 1
 45 26 l 1
 44 26 l 1
 44 27 l 1
 46 27 l 1
 46 25 l 1
49 25 m 1
 47 25 l 1
 47 27 l 1
 49 27 l 1
 49 25 l 1
49 29 m 1
 47 29 l 1
 47 31 l 1
 49 31 l 1
 49 29 l 1
43 33 m 1
 42 33 l 1
 42 35 l 1
 44 35 l 1
 44 34 l 1
 43 34 l 1
 43 33 l 1
46 33 m 1
 44 33 l 1
 44 34 l 1
 45 34 l 1
 45 35 l 1
 46 35 l 1
 46 33 l 1
49 33 m 1
 47 33 l 1
 47 35 l 1
 49 35 l 1
 49 33 l 1
49 37 m 1
 47 37 l 1
 47 39 l 1
 49 39 l 1
 49 37 l 1
63 25 m 1
 61 25 l 1
 61 27 l 1
 63 27 l 1
 63 25 l 1
63 29 m 1
 61 29 l 1
 61 31 l 1
 63 31 l 1
 63 29 l 1
63 33 m 1
 61 33 l 1
 61 35 l 1
 63 35 l 1
 63 33 l 1
63 37 m 1
 61 37 l 1
 61 39 l 1
 63 39 l 1
 63 37 l 1
12 41 m 1
 10 41 l 1
 10 43 l 1
 11 43 l 1
 11 42 l 1
 12 42 l 1
 12 41 l 1
14 41 m 1
 13 41 l 1
 13 42 l 1
 12 42 l 1
 12 43 l 1
 14 43 l 1
 14 41 l 1
17 41 m 1
 15 41 l 1
 15 43 l 1
 17 43 l 1
 17 41 l 1
23 41 m 1
 21 41 l 1
 21 43 l 1
 23 43 l 1
 23 41 l 1
26 41 m 1
 24 41 l 1
 24 43 l 1
 25 43 l 1
 25 42 l 1
 26 42 l 1
 26 41 l 1
28 41 m 1
 27 41 l 1
 27 42 l 1
 26 42 l 1
 26 43 l 1
 28 43 l 1
 28 41 l 1
31 41 m 1
 29 41 l 1
 29 43 l 1
 31 43 l 1
 31 41 l 1
41 41 m 1
 39 41 l 1
 39 43 l 1
 41 43 l 1
 41 41 l 1
44 41 m 1
 42 41 l 1
 42 43 l 1
 43 43 l 1
 43 42 l 1
 44 42 l 1
 44 41 l 1
46 41 m 1
 45 41 l 1
 45 42 l 1
 44 42 l 1
 44 43 l 1
 46 43 l 1
 46 41 l 1
49 41 m 1
 47 41 l 1
 47 43 l 1
 49 43 l 1
 49 41 l 1
63 41 m 1
 61 41 l 1
 61 43 l 1
 63 43 l 1
 63 41 l 1
EndSplineSet
Ligature2: "'liga' Standard Ligatures in Latin lookup 0-1" three one zero five five
LCarets2: 1 0
EndChar

StartChar: custom_3_1_0_5_6
Encoding: 9612 -1 9367
Width: 70
Flags: H
LayerCount: 2
Fore
SplineSet
9 25 m 1
 7 25 l 1
 7 27 l 1
 9 27 l 1
 9 25 l 1
9 29 m 1
 7 29 l 1
 7 31 l 1
 9 31 l 1
 9 29 l 1
9 33 m 1
 7 33 l 1
 7 35 l 1
 9 35 l 1
 9 33 l 1
9 37 m 1
 7 37 l 1
 7 39 l 1
 9 39 l 1
 9 37 l 1
9 41 m 1
 7 41 l 1
 7 43 l 1
 9 43 l 1
 9 41 l 1
12 25 m 1
 10 25 l 1
 10 27 l 1
 11 27 l 1
 11 26 l 1
 12 26 l 1
 12 25 l 1
14 25 m 1
 13 25 l 1
 13 26 l 1
 12 26 l 1
 12 27 l 1
 14 27 l 1
 14 25 l 1
17 25 m 1
 15 25 l 1
 15 27 l 1
 17 27 l 1
 17 25 l 1
17 29 m 1
 15 29 l 1
 15 31 l 1
 17 31 l 1
 17 29 l 1
23 25 m 1
 21 25 l 1
 21 27 l 1
 23 27 l 1
 23 25 l 1
26 25 m 1
 24 25 l 1
 24 27 l 1
 25 27 l 1
 25 26 l 1
 26 26 l 1
 26 25 l 1
23 29 m 1
 21 29 l 1
 21 31 l 1
 23 31 l 1
 23 29 l 1
17 33 m 1
 15 33 l 1
 15 35 l 1
 17 35 l 1
 17 33 l 1
17 37 m 1
 15 37 l 1
 15 39 l 1
 17 39 l 1
 17 37 l 1
23 33 m 1
 21 33 l 1
 21 35 l 1
 23 35 l 1
 23 33 l 1
23 37 m 1
 21 37 l 1
 21 39 l 1
 23 39 l 1
 23 37 l 1
28 25 m 1
 27 25 l 1
 27 26 l 1
 26 26 l 1
 26 27 l 1
 28 27 l 1
 28 25 l 1
31 25 m 1
 29 25 l 1
 29 27 l 1
 31 27 l 1
 31 25 l 1
31 29 m 1
 29 29 l 1
 29 31 l 1
 31 31 l 1
 31 29 l 1
41 25 m 1
 39 25 l 1
 39 27 l 1
 41 27 l 1
 41 25 l 1
36 31 m 1
 34 31 l 1
 34 33 l 1
 36 33 l 1
 36 31 l 1
31 33 m 1
 29 33 l 1
 29 35 l 1
 31 35 l 1
 31 33 l 1
31 37 m 1
 29 37 l 1
 29 39 l 1
 31 39 l 1
 31 37 l 1
36 35 m 1
 34 35 l 1
 34 37 l 1
 36 37 l 1
 36 35 l 1
41 33 m 1
 39 33 l 1
 39 35 l 1
 41 35 l 1
 41 33 l 1
44 25 m 1
 42 25 l 1
 42 27 l 1
 43 27 l 1
 43 26 l 1
 44 26 l 1
 44 25 l 1
46 25 m 1
 45 25 l 1
 45 26 l 1
 44 26 l 1
 44 27 l 1
 46 27 l 1
 46 25 l 1
49 25 m 1
 47 25 l 1
 47 27 l 1
 49 27 l 1
 49 25 l 1
49 29 m 1
 47 29 l 1
 47 31 l 1
 49 31 l 1
 49 29 l 1
43 33 m 1
 42 33 l 1
 42 35 l 1
 44 35 l 1
 44 34 l 1
 43 34 l 1
 43 33 l 1
46 33 m 1
 44 33 l 1
 44 34 l 1
 45 34 l 1
 45 35 l 1
 46 35 l 1
 46 33 l 1
49 33 m 1
 47 33 l 1
 47 35 l 1
 49 35 l 1
 49 33 l 1
49 37 m 1
 47 37 l 1
 47 39 l 1
 49 39 l 1
 49 37 l 1
63 25 m 1
 61 25 l 1
 61 27 l 1
 63 27 l 1
 63 25 l 1
63 29 m 1
 61 29 l 1
 61 31 l 1
 63 31 l 1
 63 29 l 1
63 33 m 1
 61 33 l 1
 61 35 l 1
 63 35 l 1
 63 33 l 1
63 37 m 1
 61 37 l 1
 61 39 l 1
 63 39 l 1
 63 37 l 1
12 41 m 1
 10 41 l 1
 10 43 l 1
 11 43 l 1
 11 42 l 1
 12 42 l 1
 12 41 l 1
14 41 m 1
 13 41 l 1
 13 42 l 1
 12 42 l 1
 12 43 l 1
 14 43 l 1
 14 41 l 1
17 41 m 1
 15 41 l 1
 15 43 l 1
 17 43 l 1
 17 41 l 1
23 41 m 1
 21 41 l 1
 21 43 l 1
 23 43 l 1
 23 41 l 1
26 41 m 1
 24 41 l 1
 24 43 l 1
 25 43 l 1
 25 42 l 1
 26 42 l 1
 26 41 l 1
28 41 m 1
 27 41 l 1
 27 42 l 1
 26 42 l 1
 26 43 l 1
 28 43 l 1
 28 41 l 1
31 41 m 1
 29 41 l 1
 29 43 l 1
 31 43 l 1
 31 41 l 1
41 41 m 1
 39 41 l 1
 39 43 l 1
 41 43 l 1
 41 41 l 1
44 41 m 1
 42 41 l 1
 42 43 l 1
 43 43 l 1
 43 42 l 1
 44 42 l 1
 44 41 l 1
46 41 m 1
 45 41 l 1
 45 42 l 1
 44 42 l 1
 44 43 l 1
 46 43 l 1
 46 41 l 1
49 41 m 1
 47 41 l 1
 47 43 l 1
 49 43 l 1
 49 41 l 1
63 41 m 1
 61 41 l 1
 61 43 l 1
 63 43 l 1
 63 41 l 1
EndSplineSet
Ligature2: "'liga' Standard Ligatures in Latin lookup 0-1" three one zero five six
LCarets2: 1 0
EndChar

StartChar: custom_3_1_0_5_7
Encoding: 9613 -1 9368
Width: 70
Flags: H
LayerCount: 2
Fore
SplineSet
9 25 m 1
 7 25 l 1
 7 27 l 1
 9 27 l 1
 9 25 l 1
9 29 m 1
 7 29 l 1
 7 31 l 1
 9 31 l 1
 9 29 l 1
9 33 m 1
 7 33 l 1
 7 35 l 1
 9 35 l 1
 9 33 l 1
9 37 m 1
 7 37 l 1
 7 39 l 1
 9 39 l 1
 9 37 l 1
9 41 m 1
 7 41 l 1
 7 43 l 1
 9 43 l 1
 9 41 l 1
12 25 m 1
 10 25 l 1
 10 27 l 1
 11 27 l 1
 11 26 l 1
 12 26 l 1
 12 25 l 1
14 25 m 1
 13 25 l 1
 13 26 l 1
 12 26 l 1
 12 27 l 1
 14 27 l 1
 14 25 l 1
17 25 m 1
 15 25 l 1
 15 27 l 1
 17 27 l 1
 17 25 l 1
17 29 m 1
 15 29 l 1
 15 31 l 1
 17 31 l 1
 17 29 l 1
23 25 m 1
 21 25 l 1
 21 27 l 1
 23 27 l 1
 23 25 l 1
26 25 m 1
 24 25 l 1
 24 27 l 1
 25 27 l 1
 25 26 l 1
 26 26 l 1
 26 25 l 1
23 29 m 1
 21 29 l 1
 21 31 l 1
 23 31 l 1
 23 29 l 1
17 33 m 1
 15 33 l 1
 15 35 l 1
 17 35 l 1
 17 33 l 1
17 37 m 1
 15 37 l 1
 15 39 l 1
 17 39 l 1
 17 37 l 1
23 33 m 1
 21 33 l 1
 21 35 l 1
 23 35 l 1
 23 33 l 1
23 37 m 1
 21 37 l 1
 21 39 l 1
 23 39 l 1
 23 37 l 1
28 25 m 1
 27 25 l 1
 27 26 l 1
 26 26 l 1
 26 27 l 1
 28 27 l 1
 28 25 l 1
31 25 m 1
 29 25 l 1
 29 27 l 1
 31 27 l 1
 31 25 l 1
31 29 m 1
 29 29 l 1
 29 31 l 1
 31 31 l 1
 31 29 l 1
41 25 m 1
 39 25 l 1
 39 27 l 1
 41 27 l 1
 41 25 l 1
36 31 m 1
 34 31 l 1
 34 33 l 1
 36 33 l 1
 36 31 l 1
31 33 m 1
 29 33 l 1
 29 35 l 1
 31 35 l 1
 31 33 l 1
31 37 m 1
 29 37 l 1
 29 39 l 1
 31 39 l 1
 31 37 l 1
36 35 m 1
 34 35 l 1
 34 37 l 1
 36 37 l 1
 36 35 l 1
41 33 m 1
 39 33 l 1
 39 35 l 1
 41 35 l 1
 41 33 l 1
44 25 m 1
 42 25 l 1
 42 27 l 1
 43 27 l 1
 43 26 l 1
 44 26 l 1
 44 25 l 1
46 25 m 1
 45 25 l 1
 45 26 l 1
 44 26 l 1
 44 27 l 1
 46 27 l 1
 46 25 l 1
49 25 m 1
 47 25 l 1
 47 27 l 1
 49 27 l 1
 49 25 l 1
49 29 m 1
 47 29 l 1
 47 31 l 1
 49 31 l 1
 49 29 l 1
43 33 m 1
 42 33 l 1
 42 35 l 1
 44 35 l 1
 44 34 l 1
 43 34 l 1
 43 33 l 1
46 33 m 1
 44 33 l 1
 44 34 l 1
 45 34 l 1
 45 35 l 1
 46 35 l 1
 46 33 l 1
49 33 m 1
 47 33 l 1
 47 35 l 1
 49 35 l 1
 49 33 l 1
49 37 m 1
 47 37 l 1
 47 39 l 1
 49 39 l 1
 49 37 l 1
63 25 m 1
 61 25 l 1
 61 27 l 1
 63 27 l 1
 63 25 l 1
63 29 m 1
 61 29 l 1
 61 31 l 1
 63 31 l 1
 63 29 l 1
63 33 m 1
 61 33 l 1
 61 35 l 1
 63 35 l 1
 63 33 l 1
63 37 m 1
 61 37 l 1
 61 39 l 1
 63 39 l 1
 63 37 l 1
12 41 m 1
 10 41 l 1
 10 43 l 1
 11 43 l 1
 11 42 l 1
 12 42 l 1
 12 41 l 1
14 41 m 1
 13 41 l 1
 13 42 l 1
 12 42 l 1
 12 43 l 1
 14 43 l 1
 14 41 l 1
17 41 m 1
 15 41 l 1
 15 43 l 1
 17 43 l 1
 17 41 l 1
23 41 m 1
 21 41 l 1
 21 43 l 1
 23 43 l 1
 23 41 l 1
26 41 m 1
 24 41 l 1
 24 43 l 1
 25 43 l 1
 25 42 l 1
 26 42 l 1
 26 41 l 1
28 41 m 1
 27 41 l 1
 27 42 l 1
 26 42 l 1
 26 43 l 1
 28 43 l 1
 28 41 l 1
31 41 m 1
 29 41 l 1
 29 43 l 1
 31 43 l 1
 31 41 l 1
41 41 m 1
 39 41 l 1
 39 43 l 1
 41 43 l 1
 41 41 l 1
44 41 m 1
 42 41 l 1
 42 43 l 1
 43 43 l 1
 43 42 l 1
 44 42 l 1
 44 41 l 1
46 41 m 1
 45 41 l 1
 45 42 l 1
 44 42 l 1
 44 43 l 1
 46 43 l 1
 46 41 l 1
49 41 m 1
 47 41 l 1
 47 43 l 1
 49 43 l 1
 49 41 l 1
63 41 m 1
 61 41 l 1
 61 43 l 1
 63 43 l 1
 63 41 l 1
EndSplineSet
Ligature2: "'liga' Standard Ligatures in Latin lookup 0-1" three one zero five seven
LCarets2: 1 0
EndChar

StartChar: custom_3_1_0_5_8
Encoding: 9614 -1 9369
Width: 70
Flags: H
LayerCount: 2
Fore
SplineSet
9 25 m 1
 7 25 l 1
 7 27 l 1
 9 27 l 1
 9 25 l 1
9 29 m 1
 7 29 l 1
 7 31 l 1
 9 31 l 1
 9 29 l 1
9 33 m 1
 7 33 l 1
 7 35 l 1
 9 35 l 1
 9 33 l 1
9 37 m 1
 7 37 l 1
 7 39 l 1
 9 39 l 1
 9 37 l 1
9 41 m 1
 7 41 l 1
 7 43 l 1
 9 43 l 1
 9 41 l 1
12 25 m 1
 10 25 l 1
 10 27 l 1
 11 27 l 1
 11 26 l 1
 12 26 l 1
 12 25 l 1
14 25 m 1
 13 25 l 1
 13 26 l 1
 12 26 l 1
 12 27 l 1
 14 27 l 1
 14 25 l 1
17 25 m 1
 15 25 l 1
 15 27 l 1
 17 27 l 1
 17 25 l 1
17 29 m 1
 15 29 l 1
 15 31 l 1
 17 31 l 1
 17 29 l 1
23 25 m 1
 21 25 l 1
 21 27 l 1
 23 27 l 1
 23 25 l 1
26 25 m 1
 24 25 l 1
 24 27 l 1
 25 27 l 1
 25 26 l 1
 26 26 l 1
 26 25 l 1
23 29 m 1
 21 29 l 1
 21 31 l 1
 23 31 l 1
 23 29 l 1
17 33 m 1
 15 33 l 1
 15 35 l 1
 17 35 l 1
 17 33 l 1
17 37 m 1
 15 37 l 1
 15 39 l 1
 17 39 l 1
 17 37 l 1
23 33 m 1
 21 33 l 1
 21 35 l 1
 23 35 l 1
 23 33 l 1
23 37 m 1
 21 37 l 1
 21 39 l 1
 23 39 l 1
 23 37 l 1
28 25 m 1
 27 25 l 1
 27 26 l 1
 26 26 l 1
 26 27 l 1
 28 27 l 1
 28 25 l 1
31 25 m 1
 29 25 l 1
 29 27 l 1
 31 27 l 1
 31 25 l 1
31 29 m 1
 29 29 l 1
 29 31 l 1
 31 31 l 1
 31 29 l 1
41 25 m 1
 39 25 l 1
 39 27 l 1
 41 27 l 1
 41 25 l 1
36 31 m 1
 34 31 l 1
 34 33 l 1
 36 33 l 1
 36 31 l 1
31 33 m 1
 29 33 l 1
 29 35 l 1
 31 35 l 1
 31 33 l 1
31 37 m 1
 29 37 l 1
 29 39 l 1
 31 39 l 1
 31 37 l 1
36 35 m 1
 34 35 l 1
 34 37 l 1
 36 37 l 1
 36 35 l 1
41 33 m 1
 39 33 l 1
 39 35 l 1
 41 35 l 1
 41 33 l 1
44 25 m 1
 42 25 l 1
 42 27 l 1
 43 27 l 1
 43 26 l 1
 44 26 l 1
 44 25 l 1
46 25 m 1
 45 25 l 1
 45 26 l 1
 44 26 l 1
 44 27 l 1
 46 27 l 1
 46 25 l 1
49 25 m 1
 47 25 l 1
 47 27 l 1
 49 27 l 1
 49 25 l 1
49 29 m 1
 47 29 l 1
 47 31 l 1
 49 31 l 1
 49 29 l 1
43 33 m 1
 42 33 l 1
 42 35 l 1
 44 35 l 1
 44 34 l 1
 43 34 l 1
 43 33 l 1
46 33 m 1
 44 33 l 1
 44 34 l 1
 45 34 l 1
 45 35 l 1
 46 35 l 1
 46 33 l 1
49 33 m 1
 47 33 l 1
 47 35 l 1
 49 35 l 1
 49 33 l 1
49 37 m 1
 47 37 l 1
 47 39 l 1
 49 39 l 1
 49 37 l 1
63 25 m 1
 61 25 l 1
 61 27 l 1
 63 27 l 1
 63 25 l 1
63 29 m 1
 61 29 l 1
 61 31 l 1
 63 31 l 1
 63 29 l 1
63 33 m 1
 61 33 l 1
 61 35 l 1
 63 35 l 1
 63 33 l 1
63 37 m 1
 61 37 l 1
 61 39 l 1
 63 39 l 1
 63 37 l 1
12 41 m 1
 10 41 l 1
 10 43 l 1
 11 43 l 1
 11 42 l 1
 12 42 l 1
 12 41 l 1
14 41 m 1
 13 41 l 1
 13 42 l 1
 12 42 l 1
 12 43 l 1
 14 43 l 1
 14 41 l 1
17 41 m 1
 15 41 l 1
 15 43 l 1
 17 43 l 1
 17 41 l 1
23 41 m 1
 21 41 l 1
 21 43 l 1
 23 43 l 1
 23 41 l 1
26 41 m 1
 24 41 l 1
 24 43 l 1
 25 43 l 1
 25 42 l 1
 26 42 l 1
 26 41 l 1
28 41 m 1
 27 41 l 1
 27 42 l 1
 26 42 l 1
 26 43 l 1
 28 43 l 1
 28 41 l 1
31 41 m 1
 29 41 l 1
 29 43 l 1
 31 43 l 1
 31 41 l 1
41 41 m 1
 39 41 l 1
 39 43 l 1
 41 43 l 1
 41 41 l 1
44 41 m 1
 42 41 l 1
 42 43 l 1
 43 43 l 1
 43 42 l 1
 44 42 l 1
 44 41 l 1
46 41 m 1
 45 41 l 1
 45 42 l 1
 44 42 l 1
 44 43 l 1
 46 43 l 1
 46 41 l 1
49 41 m 1
 47 41 l 1
 47 43 l 1
 49 43 l 1
 49 41 l 1
63 41 m 1
 61 41 l 1
 61 43 l 1
 63 43 l 1
 63 41 l 1
EndSplineSet
Ligature2: "'liga' Standard Ligatures in Latin lookup 0-1" three one zero five eight
LCarets2: 1 0
EndChar

StartChar: custom_3_1_0_5_9
Encoding: 9615 -1 9370
Width: 70
Flags: H
LayerCount: 2
Fore
SplineSet
9 25 m 1
 7 25 l 1
 7 27 l 1
 9 27 l 1
 9 25 l 1
9 29 m 1
 7 29 l 1
 7 31 l 1
 9 31 l 1
 9 29 l 1
9 33 m 1
 7 33 l 1
 7 35 l 1
 9 35 l 1
 9 33 l 1
9 37 m 1
 7 37 l 1
 7 39 l 1
 9 39 l 1
 9 37 l 1
9 41 m 1
 7 41 l 1
 7 43 l 1
 9 43 l 1
 9 41 l 1
12 25 m 1
 10 25 l 1
 10 27 l 1
 11 27 l 1
 11 26 l 1
 12 26 l 1
 12 25 l 1
14 25 m 1
 13 25 l 1
 13 26 l 1
 12 26 l 1
 12 27 l 1
 14 27 l 1
 14 25 l 1
17 25 m 1
 15 25 l 1
 15 27 l 1
 17 27 l 1
 17 25 l 1
17 29 m 1
 15 29 l 1
 15 31 l 1
 17 31 l 1
 17 29 l 1
23 25 m 1
 21 25 l 1
 21 27 l 1
 23 27 l 1
 23 25 l 1
26 25 m 1
 24 25 l 1
 24 27 l 1
 25 27 l 1
 25 26 l 1
 26 26 l 1
 26 25 l 1
23 29 m 1
 21 29 l 1
 21 31 l 1
 23 31 l 1
 23 29 l 1
17 33 m 1
 15 33 l 1
 15 35 l 1
 17 35 l 1
 17 33 l 1
17 37 m 1
 15 37 l 1
 15 39 l 1
 17 39 l 1
 17 37 l 1
23 33 m 1
 21 33 l 1
 21 35 l 1
 23 35 l 1
 23 33 l 1
23 37 m 1
 21 37 l 1
 21 39 l 1
 23 39 l 1
 23 37 l 1
28 25 m 1
 27 25 l 1
 27 26 l 1
 26 26 l 1
 26 27 l 1
 28 27 l 1
 28 25 l 1
31 25 m 1
 29 25 l 1
 29 27 l 1
 31 27 l 1
 31 25 l 1
31 29 m 1
 29 29 l 1
 29 31 l 1
 31 31 l 1
 31 29 l 1
41 25 m 1
 39 25 l 1
 39 27 l 1
 41 27 l 1
 41 25 l 1
36 31 m 1
 34 31 l 1
 34 33 l 1
 36 33 l 1
 36 31 l 1
31 33 m 1
 29 33 l 1
 29 35 l 1
 31 35 l 1
 31 33 l 1
31 37 m 1
 29 37 l 1
 29 39 l 1
 31 39 l 1
 31 37 l 1
36 35 m 1
 34 35 l 1
 34 37 l 1
 36 37 l 1
 36 35 l 1
41 33 m 1
 39 33 l 1
 39 35 l 1
 41 35 l 1
 41 33 l 1
44 25 m 1
 42 25 l 1
 42 27 l 1
 43 27 l 1
 43 26 l 1
 44 26 l 1
 44 25 l 1
46 25 m 1
 45 25 l 1
 45 26 l 1
 44 26 l 1
 44 27 l 1
 46 27 l 1
 46 25 l 1
49 25 m 1
 47 25 l 1
 47 27 l 1
 49 27 l 1
 49 25 l 1
49 29 m 1
 47 29 l 1
 47 31 l 1
 49 31 l 1
 49 29 l 1
43 33 m 1
 42 33 l 1
 42 35 l 1
 44 35 l 1
 44 34 l 1
 43 34 l 1
 43 33 l 1
46 33 m 1
 44 33 l 1
 44 34 l 1
 45 34 l 1
 45 35 l 1
 46 35 l 1
 46 33 l 1
49 33 m 1
 47 33 l 1
 47 35 l 1
 49 35 l 1
 49 33 l 1
49 37 m 1
 47 37 l 1
 47 39 l 1
 49 39 l 1
 49 37 l 1
63 25 m 1
 61 25 l 1
 61 27 l 1
 63 27 l 1
 63 25 l 1
63 29 m 1
 61 29 l 1
 61 31 l 1
 63 31 l 1
 63 29 l 1
63 33 m 1
 61 33 l 1
 61 35 l 1
 63 35 l 1
 63 33 l 1
63 37 m 1
 61 37 l 1
 61 39 l 1
 63 39 l 1
 63 37 l 1
12 41 m 1
 10 41 l 1
 10 43 l 1
 11 43 l 1
 11 42 l 1
 12 42 l 1
 12 41 l 1
14 41 m 1
 13 41 l 1
 13 42 l 1
 12 42 l 1
 12 43 l 1
 14 43 l 1
 14 41 l 1
17 41 m 1
 15 41 l 1
 15 43 l 1
 17 43 l 1
 17 41 l 1
23 41 m 1
 21 41 l 1
 21 43 l 1
 23 43 l 1
 23 41 l 1
26 41 m 1
 24 41 l 1
 24 43 l 1
 25 43 l 1
 25 42 l 1
 26 42 l 1
 26 41 l 1
28 41 m 1
 27 41 l 1
 27 42 l 1
 26 42 l 1
 26 43 l 1
 28 43 l 1
 28 41 l 1
31 41 m 1
 29 41 l 1
 29 43 l 1
 31 43 l 1
 31 41 l 1
41 41 m 1
 39 41 l 1
 39 43 l 1
 41 43 l 1
 41 41 l 1
44 41 m 1
 42 41 l 1
 42 43 l 1
 43 43 l 1
 43 42 l 1
 44 42 l 1
 44 41 l 1
46 41 m 1
 45 41 l 1
 45 42 l 1
 44 42 l 1
 44 43 l 1
 46 43 l 1
 46 41 l 1
49 41 m 1
 47 41 l 1
 47 43 l 1
 49 43 l 1
 49 41 l 1
63 41 m 1
 61 41 l 1
 61 43 l 1
 63 43 l 1
 63 41 l 1
EndSplineSet
Ligature2: "'liga' Standard Ligatures in Latin lookup 0-1" three one zero five nine
LCarets2: 1 0
EndChar

StartChar: custom_3_1_0_6_0
Encoding: 9616 -1 9371
Width: 70
Flags: H
LayerCount: 2
Fore
SplineSet
5 0 m 1
 4 0 l 1
 4 1 l 1
 5 1 l 1
 5 0 l 1
9 25 m 1
 7 25 l 1
 7 27 l 1
 9 27 l 1
 9 25 l 1
9 29 m 1
 7 29 l 1
 7 31 l 1
 9 31 l 1
 9 29 l 1
9 33 m 1
 7 33 l 1
 7 35 l 1
 9 35 l 1
 9 33 l 1
9 37 m 1
 7 37 l 1
 7 39 l 1
 9 39 l 1
 9 37 l 1
9 41 m 1
 7 41 l 1
 7 43 l 1
 9 43 l 1
 9 41 l 1
12 25 m 1
 10 25 l 1
 10 27 l 1
 11 27 l 1
 11 26 l 1
 12 26 l 1
 12 25 l 1
14 25 m 1
 13 25 l 1
 13 26 l 1
 12 26 l 1
 12 27 l 1
 14 27 l 1
 14 25 l 1
17 25 m 1
 15 25 l 1
 15 27 l 1
 17 27 l 1
 17 25 l 1
17 29 m 1
 15 29 l 1
 15 31 l 1
 17 31 l 1
 17 29 l 1
23 25 m 1
 21 25 l 1
 21 27 l 1
 23 27 l 1
 23 25 l 1
26 25 m 1
 24 25 l 1
 24 27 l 1
 25 27 l 1
 25 26 l 1
 26 26 l 1
 26 25 l 1
23 29 m 1
 21 29 l 1
 21 31 l 1
 23 31 l 1
 23 29 l 1
17 33 m 1
 15 33 l 1
 15 35 l 1
 17 35 l 1
 17 33 l 1
17 37 m 1
 15 37 l 1
 15 39 l 1
 17 39 l 1
 17 37 l 1
23 33 m 1
 21 33 l 1
 21 35 l 1
 23 35 l 1
 23 33 l 1
23 37 m 1
 21 37 l 1
 21 39 l 1
 23 39 l 1
 23 37 l 1
28 25 m 1
 27 25 l 1
 27 26 l 1
 26 26 l 1
 26 27 l 1
 28 27 l 1
 28 25 l 1
31 25 m 1
 29 25 l 1
 29 27 l 1
 31 27 l 1
 31 25 l 1
31 29 m 1
 29 29 l 1
 29 31 l 1
 31 31 l 1
 31 29 l 1
41 25 m 1
 39 25 l 1
 39 27 l 1
 41 27 l 1
 41 25 l 1
36 31 m 1
 34 31 l 1
 34 33 l 1
 36 33 l 1
 36 31 l 1
31 33 m 1
 29 33 l 1
 29 35 l 1
 31 35 l 1
 31 33 l 1
31 37 m 1
 29 37 l 1
 29 39 l 1
 31 39 l 1
 31 37 l 1
36 35 m 1
 34 35 l 1
 34 37 l 1
 36 37 l 1
 36 35 l 1
41 33 m 1
 39 33 l 1
 39 35 l 1
 41 35 l 1
 41 33 l 1
44 25 m 1
 42 25 l 1
 42 27 l 1
 43 27 l 1
 43 26 l 1
 44 26 l 1
 44 25 l 1
46 25 m 1
 45 25 l 1
 45 26 l 1
 44 26 l 1
 44 27 l 1
 46 27 l 1
 46 25 l 1
49 25 m 1
 47 25 l 1
 47 27 l 1
 49 27 l 1
 49 25 l 1
49 29 m 1
 47 29 l 1
 47 31 l 1
 49 31 l 1
 49 29 l 1
43 33 m 1
 42 33 l 1
 42 35 l 1
 44 35 l 1
 44 34 l 1
 43 34 l 1
 43 33 l 1
46 33 m 1
 44 33 l 1
 44 34 l 1
 45 34 l 1
 45 35 l 1
 46 35 l 1
 46 33 l 1
49 33 m 1
 47 33 l 1
 47 35 l 1
 49 35 l 1
 49 33 l 1
49 37 m 1
 47 37 l 1
 47 39 l 1
 49 39 l 1
 49 37 l 1
63 25 m 1
 61 25 l 1
 61 27 l 1
 63 27 l 1
 63 25 l 1
63 29 m 1
 61 29 l 1
 61 31 l 1
 63 31 l 1
 63 29 l 1
63 33 m 1
 61 33 l 1
 61 35 l 1
 63 35 l 1
 63 33 l 1
63 37 m 1
 61 37 l 1
 61 39 l 1
 63 39 l 1
 63 37 l 1
12 41 m 1
 10 41 l 1
 10 43 l 1
 11 43 l 1
 11 42 l 1
 12 42 l 1
 12 41 l 1
14 41 m 1
 13 41 l 1
 13 42 l 1
 12 42 l 1
 12 43 l 1
 14 43 l 1
 14 41 l 1
17 41 m 1
 15 41 l 1
 15 43 l 1
 17 43 l 1
 17 41 l 1
23 41 m 1
 21 41 l 1
 21 43 l 1
 23 43 l 1
 23 41 l 1
26 41 m 1
 24 41 l 1
 24 43 l 1
 25 43 l 1
 25 42 l 1
 26 42 l 1
 26 41 l 1
28 41 m 1
 27 41 l 1
 27 42 l 1
 26 42 l 1
 26 43 l 1
 28 43 l 1
 28 41 l 1
31 41 m 1
 29 41 l 1
 29 43 l 1
 31 43 l 1
 31 41 l 1
41 41 m 1
 39 41 l 1
 39 43 l 1
 41 43 l 1
 41 41 l 1
44 41 m 1
 42 41 l 1
 42 43 l 1
 43 43 l 1
 43 42 l 1
 44 42 l 1
 44 41 l 1
46 41 m 1
 45 41 l 1
 45 42 l 1
 44 42 l 1
 44 43 l 1
 46 43 l 1
 46 41 l 1
49 41 m 1
 47 41 l 1
 47 43 l 1
 49 43 l 1
 49 41 l 1
63 41 m 1
 61 41 l 1
 61 43 l 1
 63 43 l 1
 63 41 l 1
EndSplineSet
Ligature2: "'liga' Standard Ligatures in Latin lookup 0-1" three one zero six zero
LCarets2: 1 0
EndChar

StartChar: custom_3_1_0_6_1
Encoding: 9617 -1 9372
Width: 70
Flags: H
LayerCount: 2
Fore
SplineSet
6 0 m 1
 4 0 l 1
 4 1 l 1
 6 1 l 1
 6 0 l 1
9 25 m 1
 7 25 l 1
 7 27 l 1
 9 27 l 1
 9 25 l 1
9 29 m 1
 7 29 l 1
 7 31 l 1
 9 31 l 1
 9 29 l 1
9 33 m 1
 7 33 l 1
 7 35 l 1
 9 35 l 1
 9 33 l 1
9 37 m 1
 7 37 l 1
 7 39 l 1
 9 39 l 1
 9 37 l 1
9 41 m 1
 7 41 l 1
 7 43 l 1
 9 43 l 1
 9 41 l 1
12 25 m 1
 10 25 l 1
 10 27 l 1
 11 27 l 1
 11 26 l 1
 12 26 l 1
 12 25 l 1
14 25 m 1
 13 25 l 1
 13 26 l 1
 12 26 l 1
 12 27 l 1
 14 27 l 1
 14 25 l 1
17 25 m 1
 15 25 l 1
 15 27 l 1
 17 27 l 1
 17 25 l 1
17 29 m 1
 15 29 l 1
 15 31 l 1
 17 31 l 1
 17 29 l 1
23 25 m 1
 21 25 l 1
 21 27 l 1
 23 27 l 1
 23 25 l 1
26 25 m 1
 24 25 l 1
 24 27 l 1
 25 27 l 1
 25 26 l 1
 26 26 l 1
 26 25 l 1
23 29 m 1
 21 29 l 1
 21 31 l 1
 23 31 l 1
 23 29 l 1
17 33 m 1
 15 33 l 1
 15 35 l 1
 17 35 l 1
 17 33 l 1
17 37 m 1
 15 37 l 1
 15 39 l 1
 17 39 l 1
 17 37 l 1
23 33 m 1
 21 33 l 1
 21 35 l 1
 23 35 l 1
 23 33 l 1
23 37 m 1
 21 37 l 1
 21 39 l 1
 23 39 l 1
 23 37 l 1
28 25 m 1
 27 25 l 1
 27 26 l 1
 26 26 l 1
 26 27 l 1
 28 27 l 1
 28 25 l 1
31 25 m 1
 29 25 l 1
 29 27 l 1
 31 27 l 1
 31 25 l 1
31 29 m 1
 29 29 l 1
 29 31 l 1
 31 31 l 1
 31 29 l 1
41 25 m 1
 39 25 l 1
 39 27 l 1
 41 27 l 1
 41 25 l 1
36 31 m 1
 34 31 l 1
 34 33 l 1
 36 33 l 1
 36 31 l 1
31 33 m 1
 29 33 l 1
 29 35 l 1
 31 35 l 1
 31 33 l 1
31 37 m 1
 29 37 l 1
 29 39 l 1
 31 39 l 1
 31 37 l 1
36 35 m 1
 34 35 l 1
 34 37 l 1
 36 37 l 1
 36 35 l 1
41 33 m 1
 39 33 l 1
 39 35 l 1
 41 35 l 1
 41 33 l 1
44 25 m 1
 42 25 l 1
 42 27 l 1
 43 27 l 1
 43 26 l 1
 44 26 l 1
 44 25 l 1
46 25 m 1
 45 25 l 1
 45 26 l 1
 44 26 l 1
 44 27 l 1
 46 27 l 1
 46 25 l 1
49 25 m 1
 47 25 l 1
 47 27 l 1
 49 27 l 1
 49 25 l 1
49 29 m 1
 47 29 l 1
 47 31 l 1
 49 31 l 1
 49 29 l 1
43 33 m 1
 42 33 l 1
 42 35 l 1
 44 35 l 1
 44 34 l 1
 43 34 l 1
 43 33 l 1
46 33 m 1
 44 33 l 1
 44 34 l 1
 45 34 l 1
 45 35 l 1
 46 35 l 1
 46 33 l 1
49 33 m 1
 47 33 l 1
 47 35 l 1
 49 35 l 1
 49 33 l 1
49 37 m 1
 47 37 l 1
 47 39 l 1
 49 39 l 1
 49 37 l 1
63 25 m 1
 61 25 l 1
 61 27 l 1
 63 27 l 1
 63 25 l 1
63 29 m 1
 61 29 l 1
 61 31 l 1
 63 31 l 1
 63 29 l 1
63 33 m 1
 61 33 l 1
 61 35 l 1
 63 35 l 1
 63 33 l 1
63 37 m 1
 61 37 l 1
 61 39 l 1
 63 39 l 1
 63 37 l 1
12 41 m 1
 10 41 l 1
 10 43 l 1
 11 43 l 1
 11 42 l 1
 12 42 l 1
 12 41 l 1
14 41 m 1
 13 41 l 1
 13 42 l 1
 12 42 l 1
 12 43 l 1
 14 43 l 1
 14 41 l 1
17 41 m 1
 15 41 l 1
 15 43 l 1
 17 43 l 1
 17 41 l 1
23 41 m 1
 21 41 l 1
 21 43 l 1
 23 43 l 1
 23 41 l 1
26 41 m 1
 24 41 l 1
 24 43 l 1
 25 43 l 1
 25 42 l 1
 26 42 l 1
 26 41 l 1
28 41 m 1
 27 41 l 1
 27 42 l 1
 26 42 l 1
 26 43 l 1
 28 43 l 1
 28 41 l 1
31 41 m 1
 29 41 l 1
 29 43 l 1
 31 43 l 1
 31 41 l 1
41 41 m 1
 39 41 l 1
 39 43 l 1
 41 43 l 1
 41 41 l 1
44 41 m 1
 42 41 l 1
 42 43 l 1
 43 43 l 1
 43 42 l 1
 44 42 l 1
 44 41 l 1
46 41 m 1
 45 41 l 1
 45 42 l 1
 44 42 l 1
 44 43 l 1
 46 43 l 1
 46 41 l 1
49 41 m 1
 47 41 l 1
 47 43 l 1
 49 43 l 1
 49 41 l 1
63 41 m 1
 61 41 l 1
 61 43 l 1
 63 43 l 1
 63 41 l 1
EndSplineSet
Ligature2: "'liga' Standard Ligatures in Latin lookup 0-1" three one zero six one
LCarets2: 1 0
EndChar

StartChar: custom_3_1_0_6_2
Encoding: 9618 -1 9373
Width: 70
Flags: H
LayerCount: 2
Fore
SplineSet
6 0 m 1
 4 0 l 1
 4 1 l 1
 6 1 l 1
 6 0 l 1
9 25 m 1
 7 25 l 1
 7 27 l 1
 9 27 l 1
 9 25 l 1
9 29 m 1
 7 29 l 1
 7 31 l 1
 9 31 l 1
 9 29 l 1
9 33 m 1
 7 33 l 1
 7 35 l 1
 9 35 l 1
 9 33 l 1
9 37 m 1
 7 37 l 1
 7 39 l 1
 9 39 l 1
 9 37 l 1
9 41 m 1
 7 41 l 1
 7 43 l 1
 9 43 l 1
 9 41 l 1
12 25 m 1
 10 25 l 1
 10 27 l 1
 11 27 l 1
 11 26 l 1
 12 26 l 1
 12 25 l 1
14 25 m 1
 13 25 l 1
 13 26 l 1
 12 26 l 1
 12 27 l 1
 14 27 l 1
 14 25 l 1
17 25 m 1
 15 25 l 1
 15 27 l 1
 17 27 l 1
 17 25 l 1
17 29 m 1
 15 29 l 1
 15 31 l 1
 17 31 l 1
 17 29 l 1
23 25 m 1
 21 25 l 1
 21 27 l 1
 23 27 l 1
 23 25 l 1
26 25 m 1
 24 25 l 1
 24 27 l 1
 25 27 l 1
 25 26 l 1
 26 26 l 1
 26 25 l 1
23 29 m 1
 21 29 l 1
 21 31 l 1
 23 31 l 1
 23 29 l 1
17 33 m 1
 15 33 l 1
 15 35 l 1
 17 35 l 1
 17 33 l 1
17 37 m 1
 15 37 l 1
 15 39 l 1
 17 39 l 1
 17 37 l 1
23 33 m 1
 21 33 l 1
 21 35 l 1
 23 35 l 1
 23 33 l 1
23 37 m 1
 21 37 l 1
 21 39 l 1
 23 39 l 1
 23 37 l 1
28 25 m 1
 27 25 l 1
 27 26 l 1
 26 26 l 1
 26 27 l 1
 28 27 l 1
 28 25 l 1
31 25 m 1
 29 25 l 1
 29 27 l 1
 31 27 l 1
 31 25 l 1
31 29 m 1
 29 29 l 1
 29 31 l 1
 31 31 l 1
 31 29 l 1
41 25 m 1
 39 25 l 1
 39 27 l 1
 41 27 l 1
 41 25 l 1
36 31 m 1
 34 31 l 1
 34 33 l 1
 36 33 l 1
 36 31 l 1
31 33 m 1
 29 33 l 1
 29 35 l 1
 31 35 l 1
 31 33 l 1
31 37 m 1
 29 37 l 1
 29 39 l 1
 31 39 l 1
 31 37 l 1
36 35 m 1
 34 35 l 1
 34 37 l 1
 36 37 l 1
 36 35 l 1
41 33 m 1
 39 33 l 1
 39 35 l 1
 41 35 l 1
 41 33 l 1
44 25 m 1
 42 25 l 1
 42 27 l 1
 43 27 l 1
 43 26 l 1
 44 26 l 1
 44 25 l 1
46 25 m 1
 45 25 l 1
 45 26 l 1
 44 26 l 1
 44 27 l 1
 46 27 l 1
 46 25 l 1
49 25 m 1
 47 25 l 1
 47 27 l 1
 49 27 l 1
 49 25 l 1
49 29 m 1
 47 29 l 1
 47 31 l 1
 49 31 l 1
 49 29 l 1
43 33 m 1
 42 33 l 1
 42 35 l 1
 44 35 l 1
 44 34 l 1
 43 34 l 1
 43 33 l 1
46 33 m 1
 44 33 l 1
 44 34 l 1
 45 34 l 1
 45 35 l 1
 46 35 l 1
 46 33 l 1
49 33 m 1
 47 33 l 1
 47 35 l 1
 49 35 l 1
 49 33 l 1
49 37 m 1
 47 37 l 1
 47 39 l 1
 49 39 l 1
 49 37 l 1
63 25 m 1
 61 25 l 1
 61 27 l 1
 63 27 l 1
 63 25 l 1
63 29 m 1
 61 29 l 1
 61 31 l 1
 63 31 l 1
 63 29 l 1
63 33 m 1
 61 33 l 1
 61 35 l 1
 63 35 l 1
 63 33 l 1
63 37 m 1
 61 37 l 1
 61 39 l 1
 63 39 l 1
 63 37 l 1
12 41 m 1
 10 41 l 1
 10 43 l 1
 11 43 l 1
 11 42 l 1
 12 42 l 1
 12 41 l 1
14 41 m 1
 13 41 l 1
 13 42 l 1
 12 42 l 1
 12 43 l 1
 14 43 l 1
 14 41 l 1
17 41 m 1
 15 41 l 1
 15 43 l 1
 17 43 l 1
 17 41 l 1
23 41 m 1
 21 41 l 1
 21 43 l 1
 23 43 l 1
 23 41 l 1
26 41 m 1
 24 41 l 1
 24 43 l 1
 25 43 l 1
 25 42 l 1
 26 42 l 1
 26 41 l 1
28 41 m 1
 27 41 l 1
 27 42 l 1
 26 42 l 1
 26 43 l 1
 28 43 l 1
 28 41 l 1
31 41 m 1
 29 41 l 1
 29 43 l 1
 31 43 l 1
 31 41 l 1
41 41 m 1
 39 41 l 1
 39 43 l 1
 41 43 l 1
 41 41 l 1
44 41 m 1
 42 41 l 1
 42 43 l 1
 43 43 l 1
 43 42 l 1
 44 42 l 1
 44 41 l 1
46 41 m 1
 45 41 l 1
 45 42 l 1
 44 42 l 1
 44 43 l 1
 46 43 l 1
 46 41 l 1
49 41 m 1
 47 41 l 1
 47 43 l 1
 49 43 l 1
 49 41 l 1
63 41 m 1
 61 41 l 1
 61 43 l 1
 63 43 l 1
 63 41 l 1
EndSplineSet
Ligature2: "'liga' Standard Ligatures in Latin lookup 0-1" three one zero six two
LCarets2: 1 0
EndChar

